<svg width="256" height="257" viewBox="0 0 256 257" fill="none" xmlns="http://www.w3.org/2000/svg">
<g clip-path="url(#clip0_257_783)">
<path d="M60.561 71.2559C62.8481 62.7205 71.6215 57.6552 80.1569 59.9422L203.795 93.0711C212.331 95.3581 217.396 104.132 215.109 112.667L195.439 186.077C193.152 194.613 184.378 199.678 175.843 197.391L52.2045 164.262C43.669 161.975 38.6037 153.202 40.8908 144.666L60.561 71.2559Z" fill="url(#paint0_linear_257_783)"/>
<path d="M160.282 123.988L161.709 126.499C161.709 126.499 164.671 124.582 166.512 124.031C168.353 123.48 170.32 123.442 172.2 123.946C174.897 124.668 177.193 126.447 178.582 128.891C179.971 131.334 180.34 134.242 179.608 136.975C177.585 144.524 162.496 154.474 154.768 152.404C147.04 150.333 138.948 134.172 140.971 126.623C141.703 123.89 143.477 121.557 145.901 120.135C148.326 118.714 151.204 118.321 153.9 119.044C156.597 119.766 158.893 121.545 160.282 123.988Z" fill="url(#paint1_linear_257_783)"/>
<path d="M86.5717 82.3666C86.8575 81.2997 87.9542 80.6666 89.0212 80.9524C90.0881 81.2383 90.7212 82.335 90.4354 83.4019L72.8357 149.085C72.5498 150.152 71.4531 150.785 70.3862 150.499C69.3192 150.213 68.6861 149.117 68.972 148.05L86.5717 82.3666Z" fill="white"/>
<path d="M98.1628 85.4725C98.4487 84.4055 99.5453 83.7724 100.612 84.0583C101.679 84.3441 102.312 85.4408 102.026 86.5078L88.5679 136.736C88.282 137.803 87.1853 138.436 86.1184 138.15C85.0515 137.864 84.4183 136.768 84.7042 135.701L98.1628 85.4725Z" fill="white"/>
<path d="M109.754 88.5783C110.04 87.5114 111.136 86.8782 112.203 87.1641C113.27 87.45 113.903 88.5466 113.618 89.6136L96.0179 155.297C95.732 156.363 94.6353 156.997 93.5684 156.711C92.5015 156.425 91.8683 155.328 92.1542 154.261L109.754 88.5783Z" fill="white"/>
<path d="M121.345 91.6841C121.631 90.6172 122.728 89.984 123.794 90.2699C124.861 90.5558 125.495 91.6525 125.209 92.7194L111.75 142.948C111.464 144.014 110.368 144.648 109.301 144.362C108.234 144.076 107.601 142.979 107.886 141.912L121.345 91.6841Z" fill="white"/>
</g>
<g clip-path="url(#clip1_257_783)">
<path d="M48 90.6667C48 81.8302 55.1634 74.6667 64 74.6667H192C200.837 74.6667 208 81.8302 208 90.6667V166.667C208 175.503 200.837 182.667 192 182.667H64C55.1634 182.667 48 175.503 48 166.667V90.6667Z" fill="url(#paint2_linear_257_783)"/>
<path d="M157.971 115.792L159.999 117.848C159.999 117.848 162.364 115.23 164 114.221C165.636 113.213 167.526 112.667 169.472 112.667C172.264 112.667 174.942 113.791 176.916 115.791C178.89 117.792 179.999 120.505 179.999 123.335C179.999 131.15 168 144.667 159.999 144.667C151.999 144.667 140 131.151 140 123.336C140 120.506 141.109 117.793 143.083 115.792C145.058 113.792 147.735 112.668 150.527 112.668C153.319 112.668 155.997 113.792 157.971 115.792Z" fill="url(#paint3_linear_257_783)"/>
<path d="M76 94.6667C76 93.5622 76.8954 92.6667 78 92.6667C79.1046 92.6667 80 93.5622 80 94.6667V162.667C80 163.771 79.1046 164.667 78 164.667C76.8954 164.667 76 163.771 76 162.667V94.6667Z" fill="white"/>
<path d="M88 94.6667C88 93.5622 88.8954 92.6667 90 92.6667C91.1046 92.6667 92 93.5622 92 94.6667V146.667C92 147.771 91.1046 148.667 90 148.667C88.8954 148.667 88 147.771 88 146.667V94.6667Z" fill="white"/>
<path d="M100 94.6667C100 93.5622 100.895 92.6667 102 92.6667C103.105 92.6667 104 93.5622 104 94.6667V162.667C104 163.771 103.105 164.667 102 164.667C100.895 164.667 100 163.771 100 162.667V94.6667Z" fill="white"/>
<path d="M112 94.6667C112 93.5622 112.895 92.6667 114 92.6667C115.105 92.6667 116 93.5622 116 94.6667V146.667C116 147.771 115.105 148.667 114 148.667C112.895 148.667 112 147.771 112 146.667V94.6667Z" fill="white"/>
</g>
<g clip-path="url(#clip2_257_783)">
<path d="M40.8908 112.667C38.6037 104.132 43.6691 95.3584 52.2045 93.0713L175.843 59.9425C184.378 57.6554 193.152 62.7207 195.439 71.2562L215.109 144.667C217.396 153.202 212.331 161.975 203.795 164.262L80.157 197.391C71.6215 199.678 62.8481 194.613 60.561 186.078L40.8908 112.667Z" fill="url(#paint4_linear_257_783)"/>
<path fill-rule="evenodd" clip-rule="evenodd" d="M189.542 95.6123C188.475 95.8982 187.378 95.2651 187.092 94.1981L181.916 74.8796C181.63 73.8127 180.533 73.1795 179.466 73.4654L160.148 78.6418C159.081 78.9277 157.984 78.2945 157.698 77.2276C157.413 76.1606 158.046 75.064 159.113 74.7781L178.431 69.6017C181.632 68.744 184.922 70.6435 185.78 73.8443L190.956 93.1629C191.242 94.2298 190.609 95.3265 189.542 95.6123ZM68.9076 163.136C68.6217 162.069 67.5251 161.435 66.4581 161.721C65.3912 162.007 64.758 163.104 65.0439 164.171L70.2203 183.489C71.0779 186.69 74.368 188.59 77.5688 187.732L96.8873 182.556C97.9542 182.27 98.5874 181.173 98.3015 180.106C98.0156 179.039 96.9189 178.406 95.852 178.692L76.5335 183.868C75.4666 184.154 74.3699 183.521 74.084 182.454L68.9076 163.136ZM180.853 155.916C179.787 156.202 179.153 157.298 179.439 158.365C179.725 159.432 180.822 160.065 181.889 159.78L201.207 154.603C204.408 153.746 206.308 150.455 205.45 147.255L200.274 127.936C199.988 126.869 198.891 126.236 197.824 126.522C196.757 126.808 196.124 127.905 196.41 128.971L201.586 148.29C201.872 149.357 201.239 150.454 200.172 150.739L180.853 155.916ZM75.1465 101.418C76.2134 101.132 76.8466 100.035 76.5607 98.9684C76.2748 97.9014 75.1781 97.2683 74.1112 97.5542L54.7927 102.731C51.5919 103.588 49.6924 106.878 50.55 110.079L55.7264 129.398C56.0123 130.464 57.109 131.098 58.1759 130.812C59.2428 130.526 59.876 129.429 59.5901 128.362L54.4137 109.044C54.1279 107.977 54.761 106.88 55.828 106.594L75.1465 101.418Z" fill="#333333"/>
<g clip-path="url(#clip3_257_783)">
<path fill-rule="evenodd" clip-rule="evenodd" d="M143.935 101.537C144.892 102.089 145.22 103.312 144.667 104.269L114.969 155.708C114.417 156.665 113.194 156.993 112.237 156.44C111.28 155.888 110.953 154.665 111.505 153.708L141.203 102.269C141.756 101.312 142.979 100.985 143.935 101.537Z" fill="#FF647C"/>
<path fill-rule="evenodd" clip-rule="evenodd" d="M144.646 132.834C140.911 133.834 138.695 137.673 139.696 141.407C140.696 145.141 144.535 147.357 148.269 146.357C152.003 145.356 154.219 141.518 153.219 137.783C152.218 134.049 148.38 131.833 144.646 132.834ZM135.832 142.442C134.26 136.574 137.742 130.542 143.61 128.97C149.478 127.398 155.51 130.88 157.083 136.748C158.655 142.616 155.172 148.648 149.304 150.22C143.436 151.793 137.405 148.31 135.832 142.442Z" fill="#FF647C"/>
<path fill-rule="evenodd" clip-rule="evenodd" d="M107.903 111.62C104.169 112.621 101.953 116.459 102.954 120.194C103.954 123.928 107.792 126.144 111.527 125.143C115.261 124.143 117.477 120.304 116.476 116.57C115.476 112.836 111.638 110.62 107.903 111.62ZM99.0898 121.229C97.5174 115.361 101 109.329 106.868 107.757C112.736 106.184 118.768 109.667 120.34 115.535C121.913 121.403 118.43 127.435 112.562 129.007C106.694 130.579 100.662 127.097 99.0898 121.229Z" fill="#FF647C"/>
</g>
</g>
<defs>
<linearGradient id="paint0_linear_257_783" x1="36.7497" y1="160.121" x2="171.906" y2="42.7118" gradientUnits="userSpaceOnUse">
<stop stop-color="#00C48C"/>
<stop offset="1" stop-color="#03E8A6"/>
</linearGradient>
<linearGradient id="paint1_linear_257_783" x1="135.45" y1="147.227" x2="182.369" y2="126.671" gradientUnits="userSpaceOnUse">
<stop stop-color="#FF5872"/>
<stop offset="1" stop-color="#FF7890"/>
</linearGradient>
<linearGradient id="paint2_linear_257_783" x1="48" y1="192.667" x2="208" y2="64.6668" gradientUnits="userSpaceOnUse">
<stop stop-color="#FF9960"/>
<stop offset="1" stop-color="#FFAC60"/>
</linearGradient>
<linearGradient id="paint3_linear_257_783" x1="140" y1="144.667" x2="180" y2="112.667" gradientUnits="userSpaceOnUse">
<stop stop-color="#FF5872"/>
<stop offset="1" stop-color="#FF7890"/>
</linearGradient>
<linearGradient id="paint4_linear_257_783" x1="67.2903" y1="211.192" x2="188.71" y2="46.142" gradientUnits="userSpaceOnUse">
<stop stop-color="#FFE352"/>
<stop offset="1" stop-color="#FDFF92"/>
</linearGradient>
<clipPath id="clip0_257_783">
<rect width="160" height="108" fill="white" transform="translate(64.7021 55.8013) rotate(15)"/>
</clipPath>
<clipPath id="clip1_257_783">
<rect width="160" height="108" fill="white" transform="translate(48 74.6667)"/>
</clipPath>
<clipPath id="clip2_257_783">
<rect width="160" height="108" fill="white" transform="translate(36.7497 97.2124) rotate(-15)"/>
</clipPath>
<clipPath id="clip3_257_783">
<rect width="72" height="72" fill="white" transform="translate(83.9954 103.533) rotate(-15)"/>
</clipPath>
</defs>
</svg>
