<svg width="24" height="25" viewBox="0 0 24 25" fill="none" xmlns="http://www.w3.org/2000/svg">
<path d="M21.6597 16.4347C22.0537 15.4933 22.1073 14.4469 21.8114 13.4712C21.5155 12.4955 20.8882 11.6498 20.0347 11.0762C19.1813 10.5026 18.1536 10.2358 17.1243 10.3208L15.9944 10.4154C15.6166 9.35392 14.9884 8.39611 14.1615 7.62096C13.3345 6.84581 12.3326 6.27551 11.2383 5.95708C10.8323 5.83895 10.4179 5.75673 10 5.71068M2 2.66675L5.82716 6.49391M22 22.6667L18.3782 19.045M5.82716 6.49391C5.46374 6.6839 5.11634 6.90486 4.78911 7.15494C3.8873 7.84413 3.16453 8.73477 2.68036 9.75344C2.1962 10.7721 1.96452 11.8896 2.0044 13.0139C2.04429 14.1382 2.3546 15.237 2.90977 16.2199C3.20766 16.7472 3.57147 17.2331 3.99121 17.6667C4.60524 18.3012 5.67815 18.7951 7 19.1464L18 19.1546C18.1287 19.1195 18.2548 19.083 18.3782 19.045M5.82716 6.49391L18.3782 19.045" stroke="#333333" stroke-linecap="round" stroke-linejoin="round"/>
</svg>
