<svg width="24" height="25" viewBox="0 0 24 25" fill="none" xmlns="http://www.w3.org/2000/svg">
<path fill-rule="evenodd" clip-rule="evenodd" d="M19.676 4.67239C19.4818 4.67789 19.2545 4.76809 19.0556 5.04543C18.4885 5.83626 17.7842 6.83903 17.2209 7.64515L17.1155 7.79604C17.9797 7.41366 18.9165 6.99489 19.7865 6.57721L19.8015 6.57005C20.2645 6.17508 20.4269 5.81869 20.4598 5.55961C20.4927 5.30096 20.4054 5.08032 20.2549 4.92123C20.0996 4.75715 19.8843 4.6665 19.676 4.67239ZM16.4012 7.07239C16.1892 7.37572 15.9974 7.65101 15.8405 7.87651C15.7356 7.11616 15.1969 6.41197 14.2475 6.16279C13.9057 6.07308 13.668 6.00877 13.4843 5.95907L13.4843 5.95907L13.4842 5.95904C12.918 5.80585 12.8649 5.79146 11.8559 5.59956C11.1671 5.46854 10.4777 5.60936 9.83744 5.87633C9.19723 6.14328 8.5764 6.54854 8.00605 6.98899C7.2353 7.58419 6.49299 8.29954 5.91213 8.85931C5.80408 8.96343 5.70162 9.06217 5.6056 9.15375C5.12107 8.54352 4.29047 8.45387 3.69502 8.94813L2.13477 10.2432C1.46792 10.7967 1.35849 11.8566 1.89718 12.5445L8.62396 21.134C9.09971 21.7415 9.91826 21.8425 10.5163 21.3675L12.1413 20.0768C12.8304 19.5295 12.9504 18.4476 12.3994 17.7504L10.7304 15.6385C10.9786 15.6822 11.2404 15.7069 11.5121 15.7069C12.5553 15.707 13.0232 15.5103 13.3917 15.3554C13.5062 15.3073 13.6111 15.2632 13.7206 15.2303C13.9851 15.1509 14.1351 14.8721 14.0557 14.6076C13.9763 14.3431 13.6975 14.1931 13.433 14.2725C13.2262 14.3347 13.0764 14.3977 12.9383 14.4558C12.6057 14.5958 12.3414 14.707 11.5121 14.7069C10.439 14.7069 9.63215 14.2155 9.40101 13.9551C9.39854 13.9523 9.39604 13.9496 9.39352 13.9469L6.22878 9.94231C6.3704 9.80858 6.51912 9.665 6.67472 9.51478L6.67474 9.51476L6.67475 9.51475L6.67475 9.51475C7.23604 8.97285 7.88688 8.34449 8.61726 7.78046C9.15118 7.36814 9.69402 7.01958 10.2223 6.79931C10.7505 6.57907 11.2344 6.49928 11.669 6.58194C12.6412 6.76685 12.6716 6.77508 13.2204 6.92362L13.2205 6.92364C13.403 6.97303 13.6428 7.03795 13.9936 7.13003C14.9825 7.38957 15.1208 8.46911 14.429 8.99299C14.3458 9.05604 14.1969 9.11361 13.9622 9.14084C13.7336 9.16736 13.4666 9.16027 13.1887 9.13231C12.7756 9.09076 12.4053 9.01313 12.1275 8.95489L12.1274 8.95487L12.1273 8.95485L12.1272 8.95483L12.1272 8.95482C12.0196 8.93227 11.9259 8.91262 11.8489 8.89912C11.5769 8.85137 11.3177 9.03315 11.27 9.30514C11.2222 9.57712 11.404 9.83631 11.676 9.88406C11.7151 9.89092 11.7779 9.9041 11.8589 9.92109C12.1325 9.97852 12.6136 10.0795 13.0886 10.1273C13.4049 10.1591 13.7504 10.1721 14.0774 10.1342C14.3201 10.106 14.5794 10.0469 14.8143 9.92666C14.8534 9.91773 14.8919 9.90394 14.9292 9.88502C15.3919 9.65044 16.1624 9.31018 17.0765 8.90655L17.0766 8.9065L17.0766 8.9065L17.1821 8.85994C18.1341 8.4395 19.2183 7.95928 20.2193 7.47868C20.568 7.31128 20.8358 7.32651 21.0234 7.40198C21.2185 7.48044 21.3816 7.64605 21.4744 7.87295C21.654 8.31197 21.5589 8.97932 20.8125 9.4275C20.8048 9.43213 20.7972 9.43698 20.7897 9.44202L16.1446 12.5842C15.9159 12.7389 15.8559 13.0498 16.0106 13.2785C16.1653 13.5072 16.4762 13.5672 16.7049 13.4125L21.3393 10.2776C22.4865 9.58173 22.7706 8.40036 22.3999 7.49433C22.217 7.04712 21.8709 6.66502 21.3967 6.47424C21.3373 6.45035 21.2767 6.42978 21.215 6.41257C21.3422 6.1733 21.4208 5.92956 21.4518 5.68564C21.5248 5.11123 21.3245 4.5967 20.9812 4.23395C20.6427 3.87619 20.1581 3.65836 19.6478 3.67279C19.1233 3.68763 18.6131 3.94657 18.243 4.46265C17.6721 5.25867 16.9649 6.26556 16.4012 7.07239ZM8.60047 14.548L4.89236 9.85587C4.73096 9.65163 4.45356 9.62141 4.25478 9.78641L2.69453 11.0815C2.47225 11.266 2.43577 11.6193 2.61534 11.8486L9.34211 20.4381C9.5007 20.6406 9.77355 20.6743 9.97288 20.516L11.5979 19.2252C11.8276 19.0428 11.8676 18.6821 11.684 18.4497L8.67921 14.6476C8.67027 14.638 8.66157 14.6285 8.65311 14.6189C8.63318 14.5965 8.61564 14.5727 8.60047 14.548Z" fill="#333333"/>
</svg>
