<svg width="24" height="25" viewBox="0 0 24 25" fill="none" xmlns="http://www.w3.org/2000/svg">
<path d="M14 11.6667V17.6667M10 11.6667V17.6667M3 6.66675H16M16 6.66675H21M16 6.66675V4.66675C16 4.13632 15.7893 3.62761 15.4142 3.25253C15.0391 2.87746 14.5304 2.66675 14 2.66675H10C9.46957 2.66675 8.96086 2.87746 8.58579 3.25253C8.46111 3.37721 8.3546 3.51665 8.26794 3.66675M19 9.66675V20.6667C19 21.1972 18.7893 21.7059 18.4142 22.081C18.0391 22.456 17.5304 22.6667 17 22.6667H7C6.46957 22.6667 5.96086 22.456 5.58579 22.081C5.21071 21.7059 5 21.1972 5 20.6667V9.66675" stroke="#333333" stroke-linecap="round" stroke-linejoin="round"/>
</svg>
