<svg fill="none" height="15" viewBox="0 0 15 15" width="15" xmlns="http://www.w3.org/2000/svg" xmlns:xlink="http://www.w3.org/1999/xlink"><clipPath id="a"><rect height="15" rx="7.5" width="15"/></clipPath><g clip-path="url(#a)"><rect fill="#1a47b8" height="15" rx="7.5" width="15"/><path clip-rule="evenodd" d="m-.766028 0h-2.233972v2.5l18.7539 12.5h2.2461v-2.5z" fill="#fff" fill-rule="evenodd"/><path d="m-2.2549 0 20.2549 13.5354v1.4646h-.7276l-20.2724-13.54944v-1.45056z" fill="#f93939"/><path clip-rule="evenodd" d="m16 0h2v2.5s-12.9902 8.3281-19 12.5h-2v-2.5z" fill="#fff" fill-rule="evenodd"/><path d="m18 0h-.6782l-20.3218 13.5471v1.4529h.7451l20.2549-13.53849z" fill="#f93939"/><g clip-rule="evenodd" fill-rule="evenodd"><path d="m4.63708 0h5.74332v4.62682h7.6196v5.74328h-7.6196v4.6299h-5.74332v-4.6299h-7.63708v-5.74328h7.63708z" fill="#fff"/><path d="m5.8421 0h3.31579v5.76923h8.84211v3.46154h-8.84211v5.76923h-3.31579v-5.76923h-8.8421v-3.46154h8.8421z" fill="#f93939"/></g></g></svg>