<svg width="24" height="25" viewBox="0 0 24 25" fill="none" xmlns="http://www.w3.org/2000/svg">
<path d="M8 3.66675H5C4.46957 3.66675 3.96086 3.87746 3.58579 4.25253C3.21071 4.62761 3 5.13632 3 5.66675V8.66675M21 8.66675V5.66675C21 5.13632 20.7893 4.62761 20.4142 4.25253C20.0391 3.87746 19.5304 3.66675 19 3.66675H16M16 21.6667H19C19.5304 21.6667 20.0391 21.456 20.4142 21.081C20.7893 20.7059 21 20.1972 21 19.6667V16.6667M3 16.6667V19.6667C3 20.1972 3.21071 20.7059 3.58579 21.081C3.96086 21.456 4.46957 21.6667 5 21.6667H8" stroke="#333333" stroke-linecap="round" stroke-linejoin="round"/>
</svg>
