<svg width="24" height="25" viewBox="0 0 24 25" fill="none" xmlns="http://www.w3.org/2000/svg">
<path d="M12 20.6667C12.5523 20.6667 13 20.219 13 19.6667C13 19.1145 12.5523 18.6667 12 18.6667C11.4477 18.6667 11 19.1145 11 19.6667C11 20.219 11.4477 20.6667 12 20.6667Z" stroke="#333333" stroke-linecap="round" stroke-linejoin="round"/>
<path d="M12 13.6667C12.5523 13.6667 13 13.219 13 12.6667C13 12.1145 12.5523 11.6667 12 11.6667C11.4477 11.6667 11 12.1145 11 12.6667C11 13.219 11.4477 13.6667 12 13.6667Z" stroke="#333333" stroke-linecap="round" stroke-linejoin="round"/>
<path d="M12 6.66675C12.5523 6.66675 13 6.21903 13 5.66675C13 5.11446 12.5523 4.66675 12 4.66675C11.4477 4.66675 11 5.11446 11 5.66675C11 6.21903 11.4477 6.66675 12 6.66675Z" stroke="#333333" stroke-linecap="round" stroke-linejoin="round"/>
</svg>
