<svg width="24" height="25" viewBox="0 0 24 25" fill="none" xmlns="http://www.w3.org/2000/svg">
<g clip-path="url(#clip0_5_144)">
<path d="M12 23.6667C12 23.6667 21 17.6667 21 10.6667C21 8.2798 20.0518 5.99061 18.364 4.30279C16.6761 2.61496 14.3869 1.66675 12 1.66675C9.61305 1.66675 7.32387 2.61496 5.63604 4.30279C3.94821 5.99061 3 8.2798 3 10.6667C3 14.958 6.38233 18.8734 9 21.2611M12 13.6667C13.6569 13.6667 15 12.3236 15 10.6667C15 9.00989 13.6569 7.66675 12 7.66675C10.3431 7.66675 9 9.00989 9 10.6667C9 11.2801 9.18408 11.8505 9.5 12.3256" stroke="#333333" stroke-linecap="round" stroke-linejoin="round"/>
</g>
<defs>
<clipPath id="clip0_5_144">
<rect width="24" height="24" fill="white" transform="translate(0 0.666748)"/>
</clipPath>
</defs>
</svg>
