<svg width="24" height="25" viewBox="0 0 24 25" fill="none" xmlns="http://www.w3.org/2000/svg">
<path d="M19 13.6667C19.5523 13.6667 20 13.219 20 12.6667C20 12.1145 19.5523 11.6667 19 11.6667C18.4477 11.6667 18 12.1145 18 12.6667C18 13.219 18.4477 13.6667 19 13.6667Z" stroke="#333333" stroke-linecap="round" stroke-linejoin="round"/>
<path d="M12 13.6667C12.5523 13.6667 13 13.219 13 12.6667C13 12.1145 12.5523 11.6667 12 11.6667C11.4477 11.6667 11 12.1145 11 12.6667C11 13.219 11.4477 13.6667 12 13.6667Z" stroke="#333333" stroke-linecap="round" stroke-linejoin="round"/>
<path d="M5 13.6667C5.55228 13.6667 6 13.219 6 12.6667C6 12.1145 5.55228 11.6667 5 11.6667C4.44772 11.6667 4 12.1145 4 12.6667C4 13.219 4.44772 13.6667 5 13.6667Z" stroke="#333333" stroke-linecap="round" stroke-linejoin="round"/>
</svg>
