<svg width="24" height="25" viewBox="0 0 24 25" fill="none" xmlns="http://www.w3.org/2000/svg">
<path d="M16.5 10.0667L7.5 4.87671" stroke="#333333" stroke-linecap="round" stroke-linejoin="round"/>
<path d="M21 16.6667V8.66665C20.9996 8.31592 20.9071 7.97146 20.7315 7.66781C20.556 7.36417 20.3037 7.11201 20 6.93665L13 2.93665C12.696 2.76111 12.3511 2.6687 12 2.6687C11.6489 2.6687 11.304 2.76111 11 2.93665L4 6.93665C3.69626 7.11201 3.44398 7.36417 3.26846 7.66781C3.09294 7.97146 3.00036 8.31592 3 8.66665V16.6667C3.00036 17.0174 3.09294 17.3618 3.26846 17.6655C3.44398 17.9691 3.69626 18.2213 4 18.3967L11 22.3967C11.304 22.5722 11.6489 22.6646 12 22.6646C12.3511 22.6646 12.696 22.5722 13 22.3967L20 18.3967C20.3037 18.2213 20.556 17.9691 20.7315 17.6655C20.9071 17.3618 20.9996 17.0174 21 16.6667Z" stroke="#333333" stroke-linecap="round" stroke-linejoin="round"/>
<path d="M3.27002 7.62671L12 12.6767L20.73 7.62671" stroke="#333333" stroke-linecap="round" stroke-linejoin="round"/>
<path d="M12 22.6667V15.6667" stroke="#333333" stroke-linecap="round" stroke-linejoin="round"/>
</svg>
