<svg width="24" height="25" viewBox="0 0 24 25" fill="none" xmlns="http://www.w3.org/2000/svg">
<path d="M8.09006 10.5768L9.36005 9.30685C9.62892 9.03496 9.81421 8.69169 9.89396 8.31773C9.97372 7.94376 9.9446 7.55477 9.81006 7.19685C9.47151 6.28957 9.23668 5.34691 9.11005 4.38684C9.04213 3.90629 8.80179 3.46683 8.43382 3.15038C8.06585 2.83392 7.59536 2.66207 7.11006 2.66684H4.11006C3.8324 2.66711 3.55783 2.72518 3.30385 2.83737C3.04986 2.94955 2.82202 3.1134 2.63482 3.31847C2.44763 3.52353 2.30518 3.76533 2.21656 4.02847C2.12793 4.29161 2.09507 4.57031 2.12006 4.84684C2.4483 7.93784 3.50003 10.908 5.19006 13.5168C6.72539 15.933 8.77388 17.9815 11.1901 19.5168C13.7871 21.201 16.7429 22.2525 19.8201 22.5868C20.0974 22.6119 20.377 22.5788 20.6408 22.4896C20.9046 22.4003 21.1469 22.257 21.3521 22.0687C21.5574 21.8804 21.721 21.6514 21.8326 21.3962C21.9441 21.141 22.0012 20.8653 22.0001 20.5868V17.5868C22.0122 17.0964 21.8437 16.6186 21.5266 16.2443C21.2095 15.8701 20.7658 15.6254 20.2801 15.5568C19.32 15.4302 18.3773 15.1954 17.4701 14.8568C17.1121 14.7223 16.7231 14.6932 16.3492 14.7729C15.9752 14.8527 15.6319 15.038 15.3601 15.3068L14.0901 16.5768" stroke="#333333" stroke-linecap="round" stroke-linejoin="round"/>
</svg>
