<svg width="24" height="25" viewBox="0 0 24 25" fill="none" xmlns="http://www.w3.org/2000/svg">
<path d="M16 21.6667H19C19.5304 21.6667 20.0391 21.456 20.4142 21.081C20.7893 20.7059 21 20.1972 21 19.6667V16.6667" stroke="#333333" stroke-linecap="round" stroke-linejoin="round"/>
<path d="M3 5.66675C3 4.56218 3.89543 3.66675 5 3.66675H7.96507C9.06964 3.66675 9.96507 4.56218 9.96507 5.66675V8.63182C9.96507 9.73639 9.06964 10.6318 7.96507 10.6318H5C3.89543 10.6318 3 9.73639 3 8.63182V5.66675Z" stroke="#333333"/>
<path d="M3 16.6667C3 15.5622 3.89543 14.6667 5 14.6667H7.96507C9.06964 14.6667 9.96507 15.5622 9.96507 16.6667V19.6318C9.96507 20.7364 9.06964 21.6318 7.96507 21.6318H5C3.89543 21.6318 3 20.7364 3 19.6318V16.6667Z" stroke="#333333"/>
<path d="M14 5.66675C14 4.56218 14.8954 3.66675 16 3.66675H18.9651C20.0696 3.66675 20.9651 4.56218 20.9651 5.66675V8.63182C20.9651 9.73639 20.0696 10.6318 18.9651 10.6318H16C14.8954 10.6318 14 9.73639 14 8.63182V5.66675Z" stroke="#333333"/>
</svg>
