<svg width="24" height="25" viewBox="0 0 24 25" fill="none" xmlns="http://www.w3.org/2000/svg">
<path d="M3 12.6668V16.6668C3.00036 17.0175 3.09294 17.362 3.26846 17.6656C3.44398 17.9693 3.69626 18.2214 4 18.3968L11 22.3968C11.304 22.5723 11.6489 22.6647 12 22.6647C12.3511 22.6647 12.696 22.5723 13 22.3968L20 18.3968C20.3037 18.2214 20.556 17.9693 20.7315 17.6656C20.9071 17.362 20.9996 17.0175 21 16.6668V8.66677C20.9996 8.31605 20.9071 7.97158 20.7315 7.66793C20.556 7.36429 20.3037 7.11213 20 6.93677L13 2.93677C12.696 2.76124 12.3511 2.66882 12 2.66882C11.6489 2.66882 11.304 2.76124 11 2.93677L4 6.93677C3.69626 7.11213 3.44398 7.36429 3.26846 7.66793C3.09294 7.97158 3.00036 8.31605 3 8.66677V9.66678M15 12.6668C15 14.3236 13.6569 15.6668 12 15.6668C10.3431 15.6668 9 14.3236 9 12.6668C9 11.0099 10.3431 9.66677 12 9.66677C13.6569 9.66677 15 11.0099 15 12.6668Z" stroke="#333333" stroke-linecap="round" stroke-linejoin="round"/>
</svg>
