<svg width="24" height="25" viewBox="0 0 24 25" fill="none" xmlns="http://www.w3.org/2000/svg">
<path d="M6 18.6667H6.01M8 10.6667H20C21.1046 10.6667 22 9.77132 22 8.66675V4.66675C22 3.56218 21.1046 2.66675 20 2.66675H4C2.89543 2.66675 2 3.56218 2 4.66675V8.66675C2 9.77132 2.89543 10.6667 4 10.6667H5M6 6.66675H6.01M8 22.6667H20C21.1046 22.6667 22 21.7713 22 20.6667V16.6667C22 15.5622 21.1046 14.6667 20 14.6667H4C2.89543 14.6667 2 15.5622 2 16.6667V20.6667C2 21.7713 2.89543 22.6667 4 22.6667H5" stroke="#333333" stroke-linecap="round" stroke-linejoin="round"/>
</svg>
