<svg width="24" height="25" viewBox="0 0 24 25" fill="none" xmlns="http://www.w3.org/2000/svg">
<path d="M20 22.6667C20.5523 22.6667 21 22.219 21 21.6667C21 21.1145 20.5523 20.6667 20 20.6667C19.4477 20.6667 19 21.1145 19 21.6667C19 22.219 19.4477 22.6667 20 22.6667Z" stroke="#333333" stroke-linecap="round" stroke-linejoin="round"/>
<path d="M9 22.6667C9.55228 22.6667 10 22.219 10 21.6667C10 21.1145 9.55228 20.6667 9 20.6667C8.44772 20.6667 8 21.1145 8 21.6667C8 22.219 8.44772 22.6667 9 22.6667Z" stroke="#333333" stroke-linecap="round" stroke-linejoin="round"/>
<path d="M1 1.66675H5L7.68 15.0567C7.77144 15.5171 8.02191 15.9307 8.38755 16.225C8.75318 16.5194 9.2107 16.6757 9.68 16.6667H19.4C19.8693 16.6757 20.3268 16.5194 20.6925 16.225C21.0581 15.9307 21.3086 15.5171 21.4 15.0567L23 6.66675H9" stroke="#333333" stroke-linecap="round" stroke-linejoin="round"/>
</svg>
