<svg width="24" height="25" viewBox="0 0 24 25" fill="none" xmlns="http://www.w3.org/2000/svg">
<path d="M17 11.6667L19 13.6667L23 9.66675" stroke="#333333" stroke-linecap="round" stroke-linejoin="round"/>
<path d="M8.5 11.6667C10.7091 11.6667 12.5 9.87589 12.5 7.66675C12.5 5.45761 10.7091 3.66675 8.5 3.66675C6.29086 3.66675 4.5 5.45761 4.5 7.66675C4.5 9.87589 6.29086 11.6667 8.5 11.6667Z" stroke="#333333" stroke-linecap="round" stroke-linejoin="round"/>
<path d="M12.9999 21.8088C14.388 21.5589 15.4884 21.1782 16 20.6666C16.0718 20.0197 16 19 16 19C16 18.1159 15.5785 17.2681 14.8284 16.643C12.4594 14.6688 4.54049 14.6688 2.17154 16.643C1.42139 17.2681 0.999963 18.1159 0.999963 19C0.999963 19 0.928086 20.0197 0.999963 20.6666C1.51153 21.1782 2.61194 21.5589 3.99996 21.8088" stroke="#333333" stroke-linecap="round" stroke-linejoin="round"/>
</svg>
