<svg width="24" height="25" viewBox="0 0 24 25" fill="none" xmlns="http://www.w3.org/2000/svg">
<path d="M12 11.6667C14.2091 11.6667 16 9.87589 16 7.66675C16 5.45761 14.2091 3.66675 12 3.66675C9.79086 3.66675 8 5.45761 8 7.66675C8 9.87589 9.79086 11.6667 12 11.6667Z" stroke="#333333" stroke-linecap="round" stroke-linejoin="round"/>
<path d="M16.4999 21.8089C17.888 21.5591 18.9884 21.1783 19.5 20.6668C19.5718 20.0199 19.5 19.0001 19.5 19.0001C19.5 18.116 19.0785 17.2682 18.3284 16.6431C15.9594 14.6689 8.0405 14.6689 5.67154 16.6431C4.9214 17.2682 4.49997 18.116 4.49997 19.0001C4.49997 19.0001 4.42809 20.0199 4.49997 20.6668C5.01154 21.1783 6.11195 21.5591 7.49997 21.8089" stroke="#333333" stroke-linecap="round" stroke-linejoin="round"/>
</svg>
