<svg width="24" height="25" viewBox="0 0 24 25" fill="none" xmlns="http://www.w3.org/2000/svg">
<path d="M16 3.79663C16.8604 4.01693 17.623 4.51733 18.1676 5.21894C18.7122 5.92055 19.0078 6.78346 19.0078 7.67163C19.0078 8.5598 18.7122 9.42271 18.1676 10.1243C17.623 10.8259 16.8604 11.3263 16 11.5466" stroke="#333333" stroke-linecap="round" stroke-linejoin="round"/>
<path d="M9 11.6667C11.2091 11.6667 13 9.87589 13 7.66675C13 5.45761 11.2091 3.66675 9 3.66675C6.79086 3.66675 5 5.45761 5 7.66675C5 9.87589 6.79086 11.6667 9 11.6667Z" stroke="#333333" stroke-linecap="round" stroke-linejoin="round"/>
<path d="M12.9999 21.8088C14.388 21.5589 15.4884 21.1782 16 20.6666C16.0718 20.0197 16 19 16 19C16 18.1159 15.5785 17.2681 14.8284 16.643C12.4594 14.6688 4.54049 14.6688 2.17154 16.643C1.42139 17.2681 0.999963 18.1159 0.999963 19C0.999963 19 0.928086 20.0197 0.999963 20.6666C1.51153 21.1782 2.61194 21.5589 3.99996 21.8088" stroke="#333333" stroke-linecap="round" stroke-linejoin="round"/>
<path d="M20 21.809C21.388 21.5591 22.4884 21.1784 23 20.6668C23.0719 20.0199 23 19.0002 23 19.0002C23 18.1161 22.5786 17.2682 21.8285 16.6431C21.3874 16.2756 20.7541 15.9765 20 15.7458" stroke="#333333" stroke-linecap="round" stroke-linejoin="round"/>
</svg>
