<svg width="15" height="15" viewBox="0 0 15 15" fill="none" xmlns="http://www.w3.org/2000/svg">
<g clip-path="url(#clip0_1414_4961)">
<rect width="15" height="15" rx="7.5" fill="white"/>
<path fill-rule="evenodd" clip-rule="evenodd" d="M7.5 10C8.88 10 10 8.88 10 7.5C10 6.12 8.88 5 7.5 5C6.12 5 5 6.12 5 7.5C5 8.88 6.12 10 7.5 10ZM7.5 9C8.328 9 9 8.328 9 7.5C9 6.672 8.328 6 7.5 6C6.672 6 6 6.672 6 7.5C6 8.328 6.672 9 7.5 9Z" fill="#1A47B8"/>
<path d="M7.5 8C7.77614 8 8 7.77614 8 7.5C8 7.22386 7.77614 7 7.5 7C7.22386 7 7 7.22386 7 7.5C7 7.77614 7.22386 8 7.5 8Z" fill="#1A47B8"/>
<path fill-rule="evenodd" clip-rule="evenodd" d="M-3 10H18V15H-3V10Z" fill="#249F58"/>
<path fill-rule="evenodd" clip-rule="evenodd" d="M-3 0H18V5H-3V0Z" fill="#FF6C2D"/>
</g>
<defs>
<clipPath id="clip0_1414_4961">
<rect width="15" height="15" rx="7.5" fill="white"/>
</clipPath>
</defs>
</svg>
