<svg width="24" height="25" viewBox="0 0 24 25" fill="none" xmlns="http://www.w3.org/2000/svg">
<path d="M3 2.66675H6.5M23 19.6667C23 20.1972 22.7893 20.7059 22.4142 21.081C22.0391 21.456 21.5304 21.6667 21 21.6667H3C2.46957 21.6667 1.96086 21.456 1.58579 21.081C1.21071 20.7059 1 20.1972 1 19.6667V7.66675C1 6.56218 1.89543 5.66675 3 5.66675H21C21.5304 5.66675 22.0391 5.87746 22.4142 6.25254C22.7893 6.62761 23 7.13632 23 7.66675V19.6667Z" stroke="#333333" stroke-linecap="round" stroke-linejoin="round"/>
<path d="M8.55017 15.6912C8.9915 16.4433 9.66653 17.0306 10.4725 17.3637C11.2784 17.6967 12.1711 17.7573 13.0146 17.5361C13.8582 17.3149 14.6063 16.8241 15.1451 16.1384C15.684 15.4528 15.984 14.6098 15.9995 13.7379C16.015 12.866 15.7451 12.0129 15.231 11.3086C14.7168 10.6042 13.9866 10.0872 13.1515 9.83615C12.3163 9.58515 11.422 9.61393 10.6048 9.91813C9.7875 10.2223 9.09203 10.7853 8.62426 11.5212" stroke="#333333" stroke-linecap="round" stroke-linejoin="round"/>
</svg>
