<svg width="24" height="25" viewBox="0 0 24 25" fill="none" xmlns="http://www.w3.org/2000/svg">
<path d="M19.5 21.6667V19.6667C18.846 19.6667 18.2099 19.453 17.6885 19.0581C17.1672 18.6632 16.7892 18.1087 16.6121 17.4791C16.435 16.8495 16.4685 16.1793 16.7075 15.5705C16.9465 14.9617 17.3779 14.4476 17.936 14.1067C18.4086 13.818 18.9501 13.6667 19.5 13.6667C19.5996 13.6667 19.6994 13.6717 19.7992 13.6817C20.4499 13.7469 21.0616 14.023 21.5409 14.468C22.0203 14.9129 22.3411 15.5023 22.4545 16.1465C22.568 16.7906 22.4678 17.4541 22.1693 18.036M4.5 21.6667V19.6667C3.84597 19.6667 3.20985 19.453 2.68851 19.0581C2.16717 18.6632 1.78918 18.1087 1.61208 17.4791C1.43498 16.8495 1.46848 16.1793 1.70748 15.5705C1.94648 14.9617 2.37789 14.4476 2.93602 14.1067C3.40858 13.818 3.95007 13.6667 4.5 13.6667C4.59957 13.6667 4.69941 13.6717 4.79917 13.6817C5.44994 13.7469 6.06158 14.023 6.54093 14.468C7.02029 14.9129 7.34111 15.5023 7.45454 16.1465C7.56797 16.7906 7.4678 17.4541 7.16927 18.036M11.8879 3.66675V5.66675C11.2339 5.66675 10.5978 5.88048 10.0764 6.27541C9.5551 6.67033 9.1771 7.22481 9 7.85441C8.82291 8.48401 8.85641 9.15423 9.09541 9.76303C9.33441 10.3718 9.76582 10.8858 10.3239 11.2268C10.7965 11.5155 11.338 11.6668 11.8879 11.6668C11.9875 11.6668 12.0873 11.6618 12.1871 11.6518C12.8379 11.5866 13.4495 11.3105 13.9289 10.8655C14.4082 10.4206 14.729 9.83117 14.8425 9.18705C14.9559 8.54292 14.8557 7.87938 14.5572 7.29745M19.5 10.6667V3.66675M4.5 10.6667V3.66675M11.8879 14.6667L11.8879 21.6667" stroke="#333333" stroke-linecap="round" stroke-linejoin="round"/>
</svg>
