<svg width="15" height="15" viewBox="0 0 15 15" fill="none" xmlns="http://www.w3.org/2000/svg">
<g clip-path="url(#clip0_1414_4886)">
<rect width="15" height="15" rx="7.5" fill="white"/>
<path fill-rule="evenodd" clip-rule="evenodd" d="M-3 10H18V15H-3V10Z" fill="#1A47B8"/>
<path fill-rule="evenodd" clip-rule="evenodd" d="M8.97 7.19995C8.99 7.29695 9 7.39695 9 7.49995C9 8.32795 8.328 8.99995 7.5 8.99995C6.672 8.99995 6 8.32795 6 7.49995C6 7.39695 6.01 7.29695 6.03 7.19995C6.17 7.65595 6.774 7.99995 7.5 7.99995C8.226 7.99995 8.83 7.65595 8.97 7.19995Z" fill="#249F58"/>
<path d="M7.5 7C7.77614 7 8 6.77614 8 6.5C8 6.22386 7.77614 6 7.5 6C7.22386 6 7 6.22386 7 6.5C7 6.77614 7.22386 7 7.5 7Z" fill="#FFDA2C"/>
<path fill-rule="evenodd" clip-rule="evenodd" d="M-3 0H18V5H-3V0Z" fill="#F93939"/>
</g>
<defs>
<clipPath id="clip0_1414_4886">
<rect width="15" height="15" rx="7.5" fill="white"/>
</clipPath>
</defs>
</svg>
