<svg width="24" height="25" viewBox="0 0 24 25" fill="none" xmlns="http://www.w3.org/2000/svg">
<path d="M12 13.6667L9 17.6667H15L12 21.6667M3.99121 14.6667C3.57147 14.2331 3.20766 13.7472 2.90977 13.2199C2.3546 12.237 2.04429 11.1382 2.0044 10.0139C1.96452 8.88964 2.1962 7.77211 2.68036 6.75344C3.16453 5.73477 3.8873 4.84414 4.78911 4.15494C5.69093 3.46575 6.74595 2.99773 7.86724 2.78946C8.98852 2.5812 10.1439 2.63865 11.2383 2.95708C12.3326 3.27551 13.3345 3.84581 14.1615 4.62096C14.9884 5.39611 15.6166 6.35392 15.9944 7.41545L17.1243 7.32083C18.1536 7.23584 19.1813 7.50255 20.0347 8.07619C20.8882 8.64984 21.5155 9.49549 21.8114 10.4712C22.1073 11.4469 22.0537 12.4933 21.6597 13.4347C21.4701 13.8878 21.2071 14.3034 20.8841 14.6667" stroke="#333333" stroke-linecap="round" stroke-linejoin="round"/>
</svg>
