<svg width="15" height="15" viewBox="0 0 15 15" fill="none" xmlns="http://www.w3.org/2000/svg">
<g clip-path="url(#clip0_1414_5034)">
<rect width="15" height="15" rx="7.5" fill="#1A47B8"/>
<path d="M19 0H2C0.89543 0 0 0.89543 0 2V13C0 14.1046 0.89543 15 2 15H19C20.1046 15 21 14.1046 21 13V2C21 0.89543 20.1046 0 19 0Z" fill="#1A47B8"/>
<path opacity="0.5" fill-rule="evenodd" clip-rule="evenodd" d="M2 11.5L3 11L3.5 10L4 11L5 11.5L4 12L3.5 13L3 12L2 11.5ZM12 3V4H13V3H12ZM15 4V5H16V4H15ZM11 6V7H12V6H11ZM14 7V8H15V7H14ZM13 10V11H14V10H13Z" fill="white"/>
<path d="M9.5 2.54736H2.5C1.94772 2.54736 1.5 2.99508 1.5 3.54736V8.54736C1.5 9.09965 1.94772 9.54736 2.5 9.54736H9.5C10.0523 9.54736 10.5 9.09965 10.5 8.54736V3.54736C10.5 2.99508 10.0523 2.54736 9.5 2.54736Z" fill="white"/>
<path fill-rule="evenodd" clip-rule="evenodd" d="M5.5 6.54736H2.5V5.54736H5.5V3.54736H6.5V5.54736H9.5V6.54736H6.5V8.54736H5.5V6.54736ZM8 7.54736V8.54736H9.5V7.54736H8ZM8 3.54736V4.54736H9.5V3.54736H8ZM2.5 7.54736V8.54736H4V7.54736H2.5ZM2.5 3.54736V4.54736H4V3.54736H2.5Z" fill="#F93939"/>
</g>
<defs>
<clipPath id="clip0_1414_5034">
<rect width="15" height="15" rx="7.5" fill="white"/>
</clipPath>
</defs>
</svg>
