<svg enable-background="new 0 0 141.7 141.7" viewBox="0 0 141.7 141.7" xmlns="http://www.w3.org/2000/svg"><path d="m107.6 82-10.9-15.7c-1-1.5-2.7-2.3-4.5-2.3h-3-14-8.2-14.3-2.6c-1.8 0-3.5.9-4.5 2.3l-11 15.7c-1.1 1.6-1.2 3.6-.3 5.3.9 1.8 2.8 2.9 4.9 2.9h3.7v12.7c0 3 2.5 5.5 5.5 5.5h45.6c3 0 5.5-2.5 5.5-5.5v-12.7h3.7c2.1 0 3.9-1.1 4.9-2.9.8-1.7.6-3.7-.5-5.3zm-68.5 3.7c-.6 0-.8-.4-.9-.5-.2-.3 0-.6 0-.7l10.9-15.7c.2-.2.5-.4.8-.4h2.6 14.5c.6 0 .8.4.9.5.2.3 0 .6-.1.7l-11 15.7c-.2.2-.5.4-.8.4zm29.8 18.2h-20.6c-.5 0-1-.5-1-1v-12.7h8.7c1.8 0 3.5-.9 4.5-2.3l8.4-12zm26-1c0 .5-.5 1-1 1h-20.5v-28l8.4 12c1 1.4 2.7 2.3 4.5 2.3h8.6zm9.1-17.7c-.1.1-.3.5-.9.5h-16.8c-.3 0-.6-.2-.8-.4l-11-15.7c-.1-.1-.2-.3-.1-.7.1-.1.3-.5.9-.5h14 3c.3 0 .6.2.8.4l10.9 15.7c0 .1.1.4 0 .7z"/><path d="m55.3 48h24.4l-4 3.9c-.9.9-.9 2.3 0 3.2.4.4 1 .7 1.6.7s1.1-.2 1.6-.7l7.8-7.7c.4-.4.7-1 .7-1.6s-.2-1.2-.7-1.6l-8.3-8.2c-.9-.9-2.3-.9-3.2 0s-.9 2.3 0 3.2l4.3 4.3h-24.2c-1.2 0-2.3 1-2.3 2.3s1.1 2.2 2.3 2.2z"/></svg>