<svg enable-background="new 0 0 141.7 141.7" viewBox="0 0 141.7 141.7" xmlns="http://www.w3.org/2000/svg"><g fill="none"><path d="m80.6 67.2v-17.5c0-5.4-4.4-9.8-9.8-9.8h-23.6c-5.4 0-9.8 4.4-9.8 9.8v33.7c0 4.9 3.6 9 8.3 9.6 1.5-3.4 4.8-5.8 8.8-5.8s7.4 2.4 8.8 5.9h3.5 13c.2-.5.4-.9.7-1.4v-24.5z"/><path d="m88.7 87.2c4 0 7.4 2.4 8.8 5.9h6.5v-13.7l-8.5-10h-10.4v18.5c1.1-.4 2.3-.7 3.6-.7z"/><path d="m51.1 93.1h6.9c-.9-.9-2.1-1.4-3.5-1.4s-2.5.6-3.4 1.4z"/><path d="m54.6 101.8c2.5 0 4.5-1.8 5-4.2h-9.9c.3 2.4 2.4 4.2 4.9 4.2z"/></g><path d="m85.2 93.1h-.1v.1c.1 0 .1 0 .1-.1z"/><path d="m108 77.2-9.7-11.4c-.4-.5-1.1-.8-1.7-.8h-11.5v-15.3c0-7.9-6.4-14.3-14.3-14.3h-23.6c-7.9 0-14.3 6.4-14.3 14.3v33.7c0 7.1 5.3 13 12.1 14.1.3 4.9 4.5 8.9 9.5 8.9s9.1-3.8 9.5-8.7h2.8 12.3c.4 4.9 4.5 8.7 9.5 8.7s9.1-3.8 9.5-8.7h8.1c1.2 0 2.3-1 2.3-2.3v-16.8c0-.5-.1-1-.5-1.4zm-48.5 20.4c-.4 2.4-2.5 4.2-5 4.2s-4.5-1.8-5-4.2c0-.3-.1-.6-.1-.9 0-1.4.6-2.7 1.6-3.6.9-.9 2.1-1.4 3.5-1.4s2.6.5 3.5 1.4c1 .9 1.6 2.2 1.6 3.6 0 .4 0 .6-.1.9zm21.1-30.4v24.5c-.3.4-.5.9-.7 1.4h-13-3.5c-1.4-3.5-4.8-5.9-8.8-5.9-3.9 0-7.3 2.4-8.8 5.8-4.7-.7-8.3-6.7-8.3-11.6v-1h14.9c1.2 0 2.3-1 2.3-2.3s-1-2.3-2.3-2.3h-15v-17.2h14.9c1.2 0 2.3-1 2.3-2.3s-1-2.3-2.3-2.3h-14.9v-4.4c0-5.4 4.4-9.8 9.8-9.8h23.7c5.4 0 9.8 4.4 9.8 9.8v17.6zm13.1 30.4c-.4 2.4-2.5 4.2-5 4.2s-4.5-1.8-5-4.2c0-.1 0-.1 0-.2 0-.2-.1-.4-.1-.7 0-1.4.6-2.6 1.5-3.5v-.1h.1c.9-.9 2.1-1.4 3.5-1.4s2.6.5 3.5 1.4c1 .9 1.6 2.2 1.6 3.6-.1.4-.1.6-.1.9zm10.3-4.5h-6.5c-1.4-3.5-4.8-5.9-8.8-5.9-1.3 0-2.5.3-3.6.7v-18.5h10.5l8.5 10v13.7z"/><path d="m75.8 65.6-8.3-8.2c-.9-.9-2.3-.9-3.2 0s-.9 2.3 0 3.2l4.3 4.3h-24.1c-1.2 0-2.3 1-2.3 2.3s1 2.3 2.3 2.3h24.4l-4 3.9c-.9.9-.9 2.3 0 3.2.4.4 1 .7 1.6.7s1.1-.2 1.6-.7l7.8-7.7c.4-.4.7-1 .7-1.6-.1-.7-.3-1.3-.8-1.7z"/></svg>