<svg enable-background="new 0 0 141.7 141.7" viewBox="0 0 141.7 141.7" xmlns="http://www.w3.org/2000/svg"><path d="m94.5 33.7h-46.8c-7.7 0-14 6.3-14 14v46.9c0 7.7 6.3 14 14 14h46.9c7.7 0 14-6.3 14-14v-46.9c-.1-7.7-6.3-14-14.1-14zm10 60.8c0 5.5-4.5 10-10 10h-46.8c-5.5 0-10-4.5-10-10v-46.8c0-5.5 4.5-10 10-10h46.9c5.5 0 10 4.5 10 10v46.8z"/><path d="m82.7 77.7h-2v-8.4c0-4.7-3.3-8.6-7.8-9.5v-3.1c0-1.1-.9-2-2-2s-2 .9-2 2v3.1c-4.4.9-7.8 4.9-7.8 9.5v8.4h-2.1c-1.1 0-2 .9-2 2s.9 2 2 2h8.5v.1c0 1.9 1.5 3.4 3.4 3.4s3.4-1.5 3.4-3.4v-.1h8.3c1.1 0 2-.9 2-2s-.8-2-1.9-2zm-17.5-8.3c0-3.2 2.6-5.8 5.8-5.8s5.8 2.6 5.8 5.8v8.4h-11.6z"/><path d="m70.6 45.7c-14 0-25.4 11.4-25.4 25.4s11.4 25.4 25.4 25.4 25.4-11.4 25.4-25.4-11.4-25.4-25.4-25.4zm0 46.8c-11.8 0-21.4-9.6-21.4-21.4s9.6-21.4 21.4-21.4 21.4 9.6 21.4 21.4-9.6 21.4-21.4 21.4z"/></svg>