<svg enable-background="new 0 0 141.7 141.7" viewBox="0 0 141.7 141.7" xmlns="http://www.w3.org/2000/svg"><path d="m71.5 56.9c-.6 0-1.2-.2-1.6-.7l-7.8-7.8c-.9-.9-.9-2.3 0-3.2s2.3-.9 3.2 0l6.2 6.2 15.3-15.4c.9-.9 2.3-.9 3.2 0s.9 2.3 0 3.2l-16.9 17c-.4.5-1 .7-1.6.7z"/><path d="m107.6 82-10.9-15.7c-1-1.5-2.7-2.3-4.5-2.3h-3-14-8.2-14.3-2.6c-1.8 0-3.5.9-4.5 2.3l-11 15.7c-1.1 1.6-1.2 3.6-.3 5.3.9 1.8 2.8 2.9 4.9 2.9h3.7v12.7c0 3 2.5 5.5 5.5 5.5h45.6c3 0 5.5-2.5 5.5-5.5v-12.7h3.7c2.1 0 3.9-1.1 4.9-2.9.8-1.7.6-3.7-.5-5.3zm-69.3 3.2c-.2-.3 0-.6 0-.7l10.9-15.7c.2-.2.5-.4.8-.4h2.6 14.4c.6 0 .8.4.9.5.2.3 0 .6-.1.7l-11 15.7c-.2.2-.5.4-.8.4h-16.9c-.5 0-.8-.4-.8-.5zm9 17.7v-12.7h8.7c1.8 0 3.5-.9 4.5-2.3l8.4-12v28h-20.6c-.6 0-1-.4-1-1zm47.6 0c0 .5-.5 1-1 1h-20.5v-28l8.4 12c1 1.4 2.7 2.3 4.5 2.3h8.6zm9.1-17.7c-.1.1-.3.5-.9.5h-16.8c-.3 0-.6-.2-.8-.4l-11-15.7c-.1-.1-.2-.3-.1-.7.1-.1.3-.5.9-.5h14 3c.3 0 .6.2.8.4l10.9 15.7c0 .1.1.4 0 .7z"/></svg>