<svg enable-background="new 0 0 141.7 141.7" viewBox="0 0 141.7 141.7" xmlns="http://www.w3.org/2000/svg"><path d="m94.5 33.4h-46.8c-7.9 0-14.3 6.4-14.3 14.3v46.9c0 7.9 6.4 14.3 14.3 14.3h46.9c7.9 0 14.3-6.4 14.3-14.3v-46.9c-.1-7.9-6.5-14.3-14.4-14.3zm9.8 61.1c0 5.4-4.4 9.8-9.8 9.8h-46.8c-5.4 0-9.8-4.4-9.8-9.8v-46.8c0-5.4 4.4-9.8 9.8-9.8h46.9c5.4 0 9.8 4.4 9.8 9.8v46.8z"/><path d="m70.6 45.4c-14.2 0-25.7 11.5-25.7 25.7s11.5 25.7 25.7 25.7 25.7-11.5 25.7-25.7c0-14.1-11.5-25.7-25.7-25.7zm0 46.9c-11.7 0-21.2-9.5-21.2-21.2s9.5-21.2 21.2-21.2 21.2 9.5 21.2 21.2-9.5 21.2-21.2 21.2z"/><path d="m71.1 55.1c-4.9 0-8.9 4-8.9 8.9 0 1.2 1 2.3 2.3 2.3s2.3-1 2.3-2.3c0-2.4 2-4.4 4.4-4.4s4.4 2 4.4 4.4c0 1.7-1.1 2.6-2.9 3.9-.8.6-1.6 1.2-2.3 1.9-2.2 2.4-2 6.9-1.9 7.8.1 1.2 1.1 2.1 2.2 2.1h.2c1.2-.1 2.2-1.2 2.1-2.4-.1-1.4.1-3.7.7-4.3.4-.4 1-.8 1.7-1.3 1.9-1.4 4.8-3.4 4.8-7.6-.2-5-4.2-9-9.1-9z"/><path d="m70.9 82.4c-1.2 0-2.2 1-2.2 2.2s1 2.2 2.2 2.2 2.2-1 2.2-2.2c-.1-1.3-1-2.2-2.2-2.2z"/></svg>