<svg enable-background="new 0 0 141.7 141.7" viewBox="0 0 141.7 141.7" xmlns="http://www.w3.org/2000/svg"><path d="m94.5 33.4h-46.8c-7.9 0-14.3 6.4-14.3 14.3v46.9c0 7.9 6.4 14.3 14.3 14.3h46.9c7.9 0 14.3-6.4 14.3-14.3v-46.9c-.1-7.9-6.5-14.3-14.4-14.3zm9.8 61.1c0 5.4-4.4 9.8-9.8 9.8h-46.8c-5.4 0-9.8-4.4-9.8-9.8v-46.8c0-5.4 4.4-9.8 9.8-9.8h46.9c5.4 0 9.8 4.4 9.8 9.8v46.8z"/><path d="m70.6 45.4c-14.2 0-25.7 11.5-25.7 25.7s11.5 25.7 25.7 25.7 25.7-11.5 25.7-25.7c0-14.1-11.5-25.7-25.7-25.7zm0 46.9c-11.7 0-21.2-9.5-21.2-21.2s9.5-21.2 21.2-21.2 21.2 9.5 21.2 21.2-9.5 21.2-21.2 21.2z"/><path d="m83.1 80.5-9.5-9.5 9.3-9.3c.8-.8.8-2 0-2.8s-2-.8-2.8 0l-9.3 9.3-9.4-9.4c-.8-.8-2-.8-2.8 0s-.8 2 0 2.8l9.4 9.4-9.6 9.6c-.8.8-.8 2 0 2.8.4.4.9.6 1.4.6s1-.2 1.4-.6l9.6-9.6 9.4 9.4c.4.4.9.6 1.4.6s1-.2 1.4-.6c.9-.7.9-1.9.1-2.7z"/></svg>