<svg enable-background="new 0 0 141.7 141.7" viewBox="0 0 141.7 141.7" xmlns="http://www.w3.org/2000/svg"><path d="m76.2 69.7c0-4.9-4-8.9-8.9-8.9l-17.7-.1 3.8-3.8c.9-.9.9-2.3 0-3.2s-2.3-.9-3.2 0l-7.8 7.7c-.4.4-.7 1-.7 1.6s.2 1.2.7 1.6l8.3 8.2c.4.4 1 .7 1.6.7s1.2-.2 1.6-.7c.9-.9.9-2.3 0-3.2l-4.4-4.4 17.7.1c2.4 0 4.4 2 4.4 4.4v1.5c0 1.2-.5 2.3-1.3 3.1s-2 1.3-3.1 1.3h-7.2c-1.2 0-2.3 1-2.3 2.3s1 2.3 2.3 2.3h7.3c2.4 0 4.6-.9 6.3-2.6s2.6-3.9 2.6-6.3z"/><path d="m108 77.2-9.7-11.4c-.4-.5-1.1-.8-1.7-.8h-11.5v-13.8c0-7.9-6.4-15.8-14.3-15.8h-23.6c-7.9 0-14.3 7.9-14.3 15.8v32.1c0 7.1 5.3 13 12.1 14.1.3 4.9 4.5 8.9 9.5 8.9s9.1-3.8 9.5-8.7h2.8 12.3c.4 4.9 4.5 8.7 9.5 8.7s9.1-3.8 9.5-8.7h8.1c1.2 0 2.3-1 2.3-2.3v-16.7c0-.5-.1-1-.5-1.4zm-48.5 20.4c-.4 2.4-2.5 4.2-5 4.2s-4.5-1.8-5-4.2c0-.3-.1-.6-.1-.9 0-1.4.6-2.7 1.6-3.6.9-.9 2.1-1.4 3.5-1.4s2.6.5 3.5 1.4c1 .9 1.6 2.2 1.6 3.6 0 .4 0 .6-.1.9zm21.1-5.9c-.3.4-.5.9-.7 1.4h-13-3.5c-1.4-3.5-4.8-5.9-8.8-5.9-3.9 0-7.3 2.4-8.8 5.8-4.7-.7-8.3-4.7-8.3-9.6v-32.2c0-5.4 4.4-11.3 9.8-11.3h23.7c5.4 0 9.8 5.9 9.8 11.3v16 24.5zm13.1 5.9c-.4 2.4-2.5 4.2-5 4.2s-4.5-1.8-5-4.2c0-.1 0-.1 0-.2 0-.2-.1-.4-.1-.7 0-1.4.6-2.6 1.5-3.5v-.1h.1c.9-.9 2.1-1.4 3.5-1.4s2.6.5 3.5 1.4c1 .9 1.6 2.2 1.6 3.6-.1.4-.1.6-.1.9zm10.3-4.5h-6.5c-1.4-3.5-4.8-5.9-8.8-5.9-1.3 0-2.5.3-3.6.7v-18.5h10.5l8.5 10v13.7z"/></svg>