<svg width="24" height="25" viewBox="0 0 24 25" fill="none" xmlns="http://www.w3.org/2000/svg">
<path d="M18.08 20.6067C16.2881 21.979 14.0847 22.7047 11.8281 22.6659C9.57144 22.6271 7.39429 21.826 5.65064 20.393C3.90699 18.96 2.69938 16.9792 2.22418 14.7729C1.74898 12.5665 2.03413 10.2642 3.03327 8.24046C4.03241 6.21669 5.68677 4.59043 7.72736 3.6261C9.76794 2.66178 12.0747 2.41611 14.2726 2.92904C16.4706 3.44196 18.4303 4.68332 19.8333 6.45127C21.5151 8.57062 22 11.0379 22 13.6667C22 14.4624 21.6839 15.2254 21.1213 15.7881C20.5587 16.3507 19.7957 16.6667 19 16.6667C18.2044 16.6667 17.4413 16.3507 16.8787 15.7881C16.3161 15.2254 16 14.4624 16 13.6667V12.6667C16 10.4576 14.2092 8.66674 12 8.66674C9.79087 8.66674 8.00001 10.4576 8.00001 12.6667C8.00001 14.8759 9.79087 16.6667 12 16.6667C12.5305 16.6667 13.0368 16.5635 13.5 16.376" stroke="#333333" stroke-linecap="round" stroke-linejoin="round"/>
</svg>
