<svg width="24" height="25" viewBox="0 0 24 25" fill="none" xmlns="http://www.w3.org/2000/svg">
<path d="M23 12.6667C23 12.6667 19 4.66675 12 4.66675C5 4.66675 1 12.6667 1 12.6667C1 12.6667 1.69058 14.0479 3 15.6625C4.84198 17.9337 7.90854 20.6667 12 20.6667C16.0915 20.6667 19.158 17.9337 21 15.6625" stroke="#333333" stroke-linecap="round" stroke-linejoin="round"/>
<path d="M15 11.1485C14.669 10.5844 14.1628 10.1439 13.5583 9.89415C12.9539 9.64437 12.2843 9.59896 11.6517 9.76485C11.019 9.93074 10.4579 10.2988 10.0538 10.8131C9.64969 11.3273 9.42469 11.9595 9.41307 12.6135C9.40145 13.2674 9.60385 13.9072 9.98945 14.4355C10.3751 14.9637 10.9227 15.3515 11.5491 15.5398C12.1754 15.728 12.8462 15.7065 13.4591 15.4783C14.0721 15.2502 14.5937 14.8279 14.9445 14.276" stroke="#333333" stroke-linecap="round" stroke-linejoin="round"/>
</svg>
