<svg width="24" height="25" viewBox="0 0 24 25" fill="none" xmlns="http://www.w3.org/2000/svg">
<path d="M14 6.66675H11L9.59373 4.55735C9.2228 4.00095 8.59834 3.66675 7.92963 3.66675H4C3.46957 3.66675 2.96086 3.87746 2.58579 4.25253C2.21071 4.62761 2 5.13632 2 5.66675V19.6667C2 20.1972 2.21071 20.7059 2.58579 21.081C2.96086 21.456 3.46957 21.6667 4 21.6667H20C20.5304 21.6667 21.0391 21.456 21.4142 21.081C21.7893 20.7059 22 20.1972 22 19.6667V8.66675C22 8.13631 21.7893 7.62761 21.4142 7.25253C21.0391 6.87746 20.5304 6.66675 20 6.66675H17" stroke="#333333" stroke-linecap="round" stroke-linejoin="round"/>
</svg>
