<svg width="24" height="25" viewBox="0 0 24 25" fill="none" xmlns="http://www.w3.org/2000/svg">
<path d="M12 22.6667V7.66675M12 22.6667H20V12.6667H22V7.66675H2V12.6667H4V22.6667H12ZM12 7.66675H16.5C17.163 7.66675 17.7989 7.40336 18.2678 6.93451C18.7366 6.46567 19 5.82979 19 5.16675C19 4.50371 18.7366 3.86782 18.2678 3.39898C17.7989 2.93014 17.163 2.66675 16.5 2.66675C13 2.66675 12 7.66675 12 7.66675ZM12 7.66675H7.5C6.83696 7.66675 6.20107 7.40336 5.73223 6.93451C5.26339 6.46567 5 5.82979 5 5.16675C5 4.50371 5.26339 3.86782 5.73223 3.39898C6.20107 2.93014 6.83696 2.66675 7.5 2.66675C11 2.66675 12 7.66675 12 7.66675ZM17 12.6667H7" stroke="#333333" stroke-linecap="round" stroke-linejoin="round"/>
</svg>
