<svg viewBox="0 0 141.73 141.73" xmlns="http://www.w3.org/2000/svg"><g fill="#231f20"><path d="m94.3 33.18h-27a14.28 14.28 0 0 0 -13.48 9.67h-6.39a14.27 14.27 0 0 0 -14.25 14.25v37.2a14.27 14.27 0 0 0 14.25 14.25h27.05a14.32 14.32 0 0 0 13.52-9.66h6.3a14.27 14.27 0 0 0 14.25-14.25v-37.21a14.27 14.27 0 0 0 -14.25-14.25zm-19.82 70.87h-27.05a9.76 9.76 0 0 1 -9.75-9.75v-37.2a9.76 9.76 0 0 1 9.75-9.75h5.57s0 0 0 .08v37.21a14.27 14.27 0 0 0 14.25 14.25h15.82a9.79 9.79 0 0 1 -8.59 5.16zm29.57-19.41a9.76 9.76 0 0 1 -9.75 9.75h-27a9.77 9.77 0 0 1 -9.75-9.75v-37.21a9.77 9.77 0 0 1 9.75-9.75h27a9.76 9.76 0 0 1 9.75 9.75z"/><path d="m62.67 52.88h36.25v4.5h-36.25z"/><path d="m62.67 63.79h36.25v4.5h-36.25z"/><path d="m62.67 74.68h36.25v4.5h-36.25z"/></g></svg>