<svg fill="none" height="15" viewBox="0 0 15 15" width="15" xmlns="http://www.w3.org/2000/svg" xmlns:xlink="http://www.w3.org/1999/xlink"><clipPath id="a"><rect height="15" rx="7.5" width="15"/></clipPath><g clip-path="url(#a)"><rect fill="#1a47b8" height="15" rx="7.5" width="15"/><g clip-rule="evenodd" fill-rule="evenodd"><path d="m-1 10h21v5h-21z" fill="#f93939"/><path d="m-1 0h21v5h-21zm9.93 10h.07v-5h-7v5h.07c-.046.162-.07.33-.07.5 0 1.38 3.5 2.5 3.5 2.5s3.5-1.12 3.5-2.5c0-.17-.024-.338-.07-.5z" fill="#fff"/><path d="m8 10v-6h-5v6c0 1.105 2.5 2 2.5 2s2.5-.895 2.5-2z" fill="#f93939"/><path d="m5 8v-1h-1v-1h1v-1h1v1h1v1h-1v1h1.5v1h-1.5v1h-1v-1h-1.5v-1z" fill="#fff"/><path d="m5.5 11.9999s2.5-.895 2.5-1.99995c0-1.105-1-1-2.5 0-1.5-1-2.5-1.105-2.5 0 0 1.10495 2.5 1.99995 2.5 1.99995z" fill="#1a47b8"/></g></g></svg>