<svg fill="none" height="15" viewBox="0 0 15 15" width="15" xmlns="http://www.w3.org/2000/svg" xmlns:xlink="http://www.w3.org/1999/xlink"><clipPath id="a"><rect height="15" rx="7.5" width="15"/></clipPath><g clip-path="url(#a)"><rect fill="#f93939" height="15" rx="7.5" width="15"/><path d="m19 0h-17c-1.10457 0-2 .89543-2 2v11c0 1.1046.89543 2 2 2h17c1.1046 0 2-.8954 2-2v-11c0-1.10457-.8954-2-2-2z" fill="#f93939"/><g clip-rule="evenodd" fill-rule="evenodd"><path d="m0 4h21v7h-21z" fill="#ffda2c"/><path d="m9 6.22204v2.52c0 .7-.672 1.25996-1.5 1.25996h-2c-.826-.002-1.5-.56496-1.5-1.26196v-2.52c0-.572.448-1.05 1.064-1.205.186-.52.758-.054 1.436-.054.682 0 1.25-.463 1.436.055.614.159 1.064.638 1.064 1.206z" fill="#d4af2c"/><path d="m9 7h1v3h-1zm-6 0h1v3h-1z" fill="#cbcbcb"/><path d="m9 9h1v1h-1zm-6 0h1v1h-1z" fill="#1a47b8"/><path d="m9 6h1v1h-1zm-6 0h1v1h-1z" fill="#d4af2c"/><path d="m5 6h1v1.5h-1zm2 2h1v1.5h-1z" fill="#af010d"/><path d="m7 6h1v1.5h-1z" fill="#ae6a3e"/><path d="m5 8h1v1.5h-1z" fill="#ffda2c"/><path d="m6 6-1-1h3l-1 1z" fill="#af010d"/><path d="m6 4h1v1h-1z" fill="#d4af2c"/></g></g></svg>