<svg width="24" height="25" viewBox="0 0 24 25" fill="none" xmlns="http://www.w3.org/2000/svg">
<path d="M21 13.4567C20.8427 15.159 20.2039 16.7812 19.1583 18.1335C18.1127 19.4859 16.7035 20.5125 15.0957 21.0933C13.4879 21.674 11.748 21.7849 10.0795 21.4128C8.41104 21.0408 6.88302 20.2013 5.67425 18.9925C4.46548 17.7838 3.62596 16.2557 3.25393 14.5872C2.8819 12.9188 2.99274 11.1788 3.57348 9.57104C4.15423 7.96326 5.18085 6.55411 6.53324 5.5085C7.88562 4.46289 9.50782 3.82405 11.21 3.66675C10.5506 4.55891 10.1175 5.58809 9.93609 6.66675C9.84335 7.21819 9.81638 7.78256 9.85856 8.34816C9.98324 10.0201 10.7039 11.5918 11.8894 12.7773C13.075 13.9629 14.6466 14.6835 16.3186 14.8082C16.8842 14.8504 17.4486 14.8234 18 14.7307" stroke="#333333" stroke-linecap="round" stroke-linejoin="round"/>
</svg>
