<svg viewBox="0 0 141.73 141.73" xmlns="http://www.w3.org/2000/svg"><g fill="#231f20"><path d="m94.55 33.43h-46.87a14.26 14.26 0 0 0 -14.25 14.25v29.32a14.26 14.26 0 0 0 14.25 14.2h8.2v15.1a2.23 2.23 0 0 0 1.14 2 2.2 2.2 0 0 0 1.11.3 2.24 2.24 0 0 0 1.15-.32l11.58-6.88 11.45 6.88a2.25 2.25 0 0 0 3.41-1.93v-15.15h8.83a14.26 14.26 0 0 0 14.25-14.2v-29.32a14.26 14.26 0 0 0 -14.25-14.25zm-13.33 68.89-9.22-5.51a2.25 2.25 0 0 0 -2.31 0l-9.34 5.55v-11.16h20.87zm23.08-25.32a9.77 9.77 0 0 1 -9.75 9.75h-46.87a9.77 9.77 0 0 1 -9.75-9.75v-29.32a9.77 9.77 0 0 1 9.75-9.75h46.87a9.77 9.77 0 0 1 9.75 9.75z"/><path d="m51.42 49.17h38.82v4.5h-38.82z"/><path d="m51.42 60.07h38.82v4.5h-38.82z"/><path d="m51.42 70.97h38.82v4.5h-38.82z"/></g></svg>