<svg width="52" height="58" viewBox="0 0 52 58" fill="none" xmlns="http://www.w3.org/2000/svg">
<g filter="url(#filter0_d_410_946)">
<path fill-rule="evenodd" clip-rule="evenodd" d="M39.4685 33.9418C42.2879 30.7643 44 26.5821 44 22C44 12.0589 35.9411 4 26 4C16.0589 4 8 12.0589 8 22C8 26.5825 9.71242 30.7651 12.5323 33.9427C12.6661 34.1353 12.8219 34.3217 13.0002 34.5L23.1512 44.82C24.7246 46.3933 27.2756 46.3933 28.849 44.82L39 34.5C39.1786 34.3214 39.3346 34.1347 39.4685 33.9418Z" fill="#0084F4"/>
<path d="M33 23C33.5523 23 34 22.5523 34 22C34 21.4477 33.5523 21 33 21C32.4477 21 32 21.4477 32 22C32 22.5523 32.4477 23 33 23Z" stroke="white" stroke-linecap="round" stroke-linejoin="round"/>
<path d="M26 23C26.5523 23 27 22.5523 27 22C27 21.4477 26.5523 21 26 21C25.4477 21 25 21.4477 25 22C25 22.5523 25.4477 23 26 23Z" stroke="white" stroke-linecap="round" stroke-linejoin="round"/>
<path d="M19 23C19.5523 23 20 22.5523 20 22C20 21.4477 19.5523 21 19 21C18.4477 21 18 21.4477 18 22C18 22.5523 18.4477 23 19 23Z" stroke="white" stroke-linecap="round" stroke-linejoin="round"/>
</g>
<defs>
<filter id="filter0_d_410_946" x="0" y="0" width="52" height="58" filterUnits="userSpaceOnUse" color-interpolation-filters="sRGB">
<feFlood flood-opacity="0" result="BackgroundImageFix"/>
<feColorMatrix in="SourceAlpha" type="matrix" values="0 0 0 0 0 0 0 0 0 0 0 0 0 0 0 0 0 0 127 0" result="hardAlpha"/>
<feOffset dy="4"/>
<feGaussianBlur stdDeviation="4"/>
<feComposite in2="hardAlpha" operator="out"/>
<feColorMatrix type="matrix" values="0 0 0 0 0 0 0 0 0 0.517647 0 0 0 0 0.956863 0 0 0 0.08 0"/>
<feBlend mode="normal" in2="BackgroundImageFix" result="effect1_dropShadow_410_946"/>
<feBlend mode="normal" in="SourceGraphic" in2="effect1_dropShadow_410_946" result="shape"/>
</filter>
</defs>
</svg>
