<svg viewBox="0 0 141.73 141.73" xmlns="http://www.w3.org/2000/svg"><g fill="#231f20"><path d="m94.55 108.8h-46.87a14.26 14.26 0 0 1 -14.25-14.25v-46.87a14.26 14.26 0 0 1 14.25-14.25h46.87a14.26 14.26 0 0 1 14.25 14.25v46.87a14.26 14.26 0 0 1 -14.25 14.25zm-46.87-70.87a9.77 9.77 0 0 0 -9.75 9.75v46.87a9.77 9.77 0 0 0 9.75 9.75h46.87a9.77 9.77 0 0 0 9.75-9.75v-46.87a9.77 9.77 0 0 0 -9.75-9.75z"/><path d="m51.42 63.13h38.82v4.5h-38.82z"/><path d="m70.82 52.8h19.41v4.5h-19.41z"/><path d="m51.42 74.03h38.82v4.5h-38.82z"/><path d="m51.42 84.93h38.82v4.5h-38.82z"/><path d="m51.42 63.13h38.82v4.5h-38.82z"/><path d="m70.82 52.8h19.41v4.5h-19.41z"/><path d="m51.42 74.03h38.82v4.5h-38.82z"/><path d="m51.42 84.93h38.82v4.5h-38.82z"/></g></svg>