<svg xmlns="http://www.w3.org/2000/svg" viewBox="0 0 141.73 141.73">
  <title>ikona</title>
  <g id="Layer_3" data-name="Layer 3">
    <g>
      <path d="M65.57,93.45A7.55,7.55,0,1,0,73.12,101,7.56,7.56,0,0,0,65.57,93.45Zm0,10.6a3,3,0,1,1,3.05-3A3.06,3.06,0,0,1,65.57,104.05Z" fill="#231f20"/>
      <path d="M88.71,93.45A7.55,7.55,0,1,0,96.25,101,7.56,7.56,0,0,0,88.71,93.45Zm0,10.6a3.05,3.05,0,1,1,3-3A3.06,3.06,0,0,1,88.71,104.05Z" fill="#231f20"/>
      <path d="M108.11,53a2.27,2.27,0,0,0-1.81-.91H45L37.5,34.55a2.25,2.25,0,0,0-4.13,1.77l8.12,18.92h0l10.7,24.94h0l4.13,9.64h0a2.55,2.55,0,0,0,.3.5l.1.11a1.86,1.86,0,0,0,.42.37l.07,0a2.4,2.4,0,0,0,.46.21l.14,0a2,2,0,0,0,.55.08H95.86a2.25,2.25,0,0,0,0-4.5h-36l-2.21-5.16h41.1a2.25,2.25,0,0,0,2.15-1.6L108.45,55A2.24,2.24,0,0,0,108.11,53Zm-11,24H55.74L47,56.61h56.3Z" fill="#231f20"/>
      <rect x="63.53" y="61.31" width="4.5" height="11.5" fill="#231f20"/>
      <rect x="74.43" y="61.31" width="4.5" height="11.5" fill="#231f20"/>
      <rect x="85.33" y="61.31" width="4.5" height="11.5" fill="#231f20"/>
    </g>
  </g>
</svg>
