<svg width="24" height="25" viewBox="0 0 24 25" fill="none" xmlns="http://www.w3.org/2000/svg">
<path d="M1 20.6667V18.6667M1 14.6667H7" stroke="#333333" stroke-linecap="round" stroke-linejoin="round"/>
<path d="M23 4.66675V10.6667M17 10.6667H19" stroke="#333333" stroke-linecap="round" stroke-linejoin="round"/>
<path d="M3.51 9.6667C4.01717 8.23349 4.87913 6.9521 6.01547 5.94212C7.1518 4.93214 8.52547 4.22647 10.0083 3.89096C11.4911 3.55545 13.0348 3.60104 14.4952 4.02348C15.9556 4.44591 17.2853 5.23142 18.36 6.3067L23 10.6667M1 14.6667L5.64 19.0267C6.71475 20.102 8.04437 20.8875 9.50481 21.3099C10.9652 21.7324 12.5089 21.778 13.9917 21.4424C15.4745 21.1069 16.8482 20.4013 17.9845 19.3913C19.1209 18.3813 19.9828 17.0999 20.49 15.6667" stroke="#333333" stroke-linecap="round" stroke-linejoin="round"/>
</svg>
