<svg viewBox="0 0 141.73 141.73" xmlns="http://www.w3.org/2000/svg"><path d="m70.87 104.85a2.24 2.24 0 0 1 -1.2-.35c-23.77-15-36.82-31.61-36.73-46.79v-.22a20.68 20.68 0 0 1 37.93-11.41 20.68 20.68 0 0 1 37.93 11.41v.22c.08 15.18-13 31.8-36.73 46.79a2.29 2.29 0 0 1 -1.2.35zm-17.25-63.55a16.2 16.2 0 0 0 -16.18 16.19v.25c-.08 13.32 11.78 28.26 33.43 42.19 21.64-13.93 33.5-28.87 33.43-42.19v-.25a16.19 16.19 0 0 0 -31.3-5.72 2.25 2.25 0 0 1 -2.1 1.45 2.26 2.26 0 0 1 -2.11-1.45 16.27 16.27 0 0 0 -15.17-10.47z" fill="#231f20"/></svg>