<svg width="24" height="25" viewBox="0 0 24 25" fill="none" xmlns="http://www.w3.org/2000/svg">
<path d="M8.49202 16.6669L11.1587 22.6669C11.9543 22.6669 12.7174 22.3508 13.28 21.7882C13.8426 21.2256 14.1587 20.4625 14.1587 19.6669V15.6669H19.8187C20.1086 15.6702 20.3958 15.6104 20.6603 15.4917C20.9248 15.3729 21.1603 15.1981 21.3505 14.9794C21.5408 14.7606 21.6812 14.503 21.762 14.2246C21.8429 13.9462 21.8622 13.6535 21.8187 13.3669L20.4387 4.36687C20.3664 3.88996 20.1241 3.45526 19.7566 3.14286C19.3891 2.83047 18.921 2.66142 18.4387 2.66687H7.15869H4.15869C3.62826 2.66687 3.11955 2.87758 2.74448 3.25266C2.36941 3.62773 2.15869 4.13644 2.15869 4.66687V11.6669C2.15869 12.1973 2.36941 12.706 2.74448 13.0811C3.11955 13.4562 3.62826 13.6669 4.15869 13.6669H7.15869V5.66687" stroke="#333333" stroke-linecap="round" stroke-linejoin="round"/>
</svg>
