<svg width="24" height="25" viewBox="0 0 24 25" fill="none" xmlns="http://www.w3.org/2000/svg">
<path d="M4 9.16675V14.9362L11.617 22.5463C11.7817 22.7113 11.9773 22.8421 12.1926 22.9314C12.4079 23.0207 12.6387 23.0666 12.8717 23.0666C13.1048 23.0666 13.3356 23.0207 13.5509 22.9314C13.7661 22.8421 13.9617 22.7113 14.1264 22.5463L20.4843 16.1868C20.8146 15.8545 21 15.4049 21 14.9362C21 14.4676 20.8146 14.018 20.4843 13.6856L12.8673 6.0666H9M8.01 10.0666C8.01 10.0666 8.00276 10.0694 8 10.0666C5.00001 7.06661 5.00001 1.06659 10 3.0666" stroke="#333333" stroke-linecap="round" stroke-linejoin="round"/>
</svg>
