<svg width="24" height="25" viewBox="0 0 24 25" fill="none" xmlns="http://www.w3.org/2000/svg">
<path d="M8.49202 8.66675L11.1587 2.66675C11.9543 2.66675 12.7174 2.98282 13.28 3.54543C13.8426 4.10804 14.1587 4.8711 14.1587 5.66675V9.66675H19.8187C20.1086 9.66346 20.3958 9.72325 20.6603 9.84197C20.9248 9.96068 21.1603 10.1355 21.3505 10.3543C21.5408 10.573 21.6812 10.8306 21.762 11.109C21.8429 11.3874 21.8622 11.6801 21.8187 11.9667L20.4387 20.9667C20.3664 21.4437 20.1241 21.8784 19.7566 22.1908C19.3891 22.5032 18.921 22.6722 18.4387 22.6667H7.15869H4.15869C3.62826 22.6667 3.11955 22.456 2.74448 22.081C2.36941 21.7059 2.15869 21.1972 2.15869 20.6667V13.6667C2.15869 13.1363 2.36941 12.6276 2.74448 12.2525C3.11955 11.8775 3.62826 11.6667 4.15869 11.6667H7.15869V19.6667" stroke="#333333" stroke-linecap="round" stroke-linejoin="round"/>
</svg>
