<svg width="24" height="25" viewBox="0 0 24 25" fill="none" xmlns="http://www.w3.org/2000/svg">
<path d="M2 2.66675L22 22.6667" stroke="#333333" stroke-linecap="round" stroke-linejoin="round"/>
<path d="M8.53003 16.7767C9.54523 16.0555 10.7597 15.668 12.005 15.668C13.2504 15.668 14.4648 16.0555 15.48 16.7767" stroke="#333333" stroke-linecap="round" stroke-linejoin="round"/>
<path d="M16.72 11.7268C17.5391 12.1266 18.305 12.6271 19 13.2168" stroke="#333333" stroke-linecap="round" stroke-linejoin="round"/>
<path d="M5 13.2167C6.48208 11.9775 8.26587 11.1529 10.17 10.8267" stroke="#333333" stroke-linecap="round" stroke-linejoin="round"/>
<path d="M1.41998 9.66687C2.80715 8.44072 4.39768 7.46609 6.11998 6.78687" stroke="#333333" stroke-linecap="round" stroke-linejoin="round"/>
<path d="M10.71 5.71673C12.8524 5.5441 15.0077 5.8049 17.0471 6.48355C19.0865 7.16221 20.9682 8.24481 22.58 9.66673" stroke="#333333" stroke-linecap="round" stroke-linejoin="round"/>
<path d="M8.53003 16.7767C9.54523 16.0555 10.7597 15.668 12.005 15.668C13.2504 15.668 14.4648 16.0555 15.48 16.7767" stroke="#333333" stroke-linecap="round" stroke-linejoin="round"/>
</svg>
