<svg fill="none" height="48" viewBox="0 0 48 48" width="48" xmlns="http://www.w3.org/2000/svg" xmlns:xlink="http://www.w3.org/1999/xlink"><linearGradient id="a" gradientUnits="userSpaceOnUse" x1="31.4667" x2="12.683" y1="10.0909" y2="45.4729"><stop offset="0" stop-color="#519fee"/><stop offset="1" stop-color="#0963bf"/></linearGradient><path d="m21.5546 1.88913c1.4404-1.112738 3.4504-1.112739 4.8908 0l4.2265 3.26512c.5627.43467 1.2311.71151 1.9363.80201l5.2974.67984c1.8053.23168 3.2266 1.65297 3.4583 3.4583l.6798 5.2974c.0905.7052.3674 1.3736.8021 1.9363l3.2651 4.2265c1.1127 1.4404 1.1127 3.4504 0 4.8908l-3.2651 4.2265c-.4347.5627-.7116 1.2311-.8021 1.9363l-.6798 5.2974c-.2317 1.8053-1.653 3.2266-3.4583 3.4583l-5.2974.6798c-.7052.0905-1.3736.3674-1.9363.8021l-4.2265 3.2651c-1.4404 1.1127-3.4504 1.1127-4.8908 0l-4.2265-3.2651c-.5627-.4347-1.2311-.7116-1.9363-.8021l-5.2974-.6798c-1.80532-.2317-3.22662-1.653-3.4583-3.4583l-.67984-5.2974c-.0905-.7052-.36734-1.3736-.80201-1.9363l-3.26512-4.2265c-1.112738-1.4404-1.112739-3.4504 0-4.8908l3.26512-4.2265c.43467-.5627.71151-1.2311.80201-1.9363l.67984-5.2974c.23168-1.80532 1.65297-3.22662 3.4583-3.4583l5.2974-.67984c.7052-.0905 1.3736-.36734 1.9363-.80201z" fill="url(#a)"/><g stroke="#fff" stroke-linecap="round" stroke-linejoin="round" stroke-width="1.5"><path d="m32 33v-2c0-1.0609-.4214-2.0783-1.1716-2.8284-.7501-.7502-1.7675-1.1716-2.8284-1.1716h-8c-1.0609 0-2.0783.4214-2.8284 1.1716-.7502.7501-1.1716 1.7675-1.1716 2.8284v2"/><path d="m24 23c2.2091 0 4-1.7909 4-4s-1.7909-4-4-4-4 1.7909-4 4 1.7909 4 4 4z"/></g></svg>