<svg clip-rule="evenodd" fill-rule="evenodd" height="512" stroke-linejoin="round" stroke-miterlimit="2" viewBox="0 0 64 64" width="512" xmlns="http://www.w3.org/2000/svg" xmlns:xlink="http://www.w3.org/1999/xlink"><linearGradient id="_Linear1" gradientTransform="matrix(38 45 -45 38 10 11)" gradientUnits="userSpaceOnUse" x1="0" x2="1" y1="0" y2="0"><stop offset="0" stop-color="#ffcc6c"/><stop offset="1" stop-color="#e68e26"/></linearGradient><linearGradient id="_Linear2" gradientTransform="matrix(29 41 -41 29 16 12)" gradientUnits="userSpaceOnUse" x1="0" x2="1" y1="0" y2="0"><stop offset="0" stop-color="#fdf2b3"/><stop offset="1" stop-color="#ffbf7d"/></linearGradient><linearGradient id="lg1"><stop offset="0" stop-color="#ffc75e"/><stop offset="1" stop-color="#eba654"/></linearGradient><linearGradient id="_Linear3" gradientTransform="matrix(3.04 0 0 2 23.038 46.084)" gradientUnits="userSpaceOnUse" x1="0" x2="1" xlink:href="#lg1" y1="0" y2="0"/><linearGradient id="_Linear4" gradientTransform="matrix(3.04 0 0 2 32.038 39.084)" gradientUnits="userSpaceOnUse" x1="0" x2="1" xlink:href="#lg1" y1="0" y2="0"/><linearGradient id="_Linear5" gradientTransform="matrix(3.04 0 0 2 36.038 45.084)" gradientUnits="userSpaceOnUse" x1="0" x2="1" xlink:href="#lg1" y1="0" y2="0"/><linearGradient id="_Linear6" gradientTransform="matrix(3.04 0 0 2 25.038 37.084)" gradientUnits="userSpaceOnUse" x1="0" x2="1" xlink:href="#lg1" y1="0" y2="0"/><linearGradient id="_Linear7" gradientTransform="matrix(3.04 0 0 2 38.038 34.084)" gradientUnits="userSpaceOnUse" x1="0" x2="1" xlink:href="#lg1" y1="0" y2="0"/><linearGradient id="_Linear8" gradientTransform="matrix(3.04 0 0 2 30.038 30.084)" gradientUnits="userSpaceOnUse" x1="0" x2="1" xlink:href="#lg1" y1="0" y2="0"/><linearGradient id="_Linear9" gradientTransform="matrix(3.04 0 0 2 21.038 21.084)" gradientUnits="userSpaceOnUse" x1="0" x2="1" xlink:href="#lg1" y1="0" y2="0"/><linearGradient id="_Linear10" gradientTransform="matrix(3.04 0 0 2 22.038 28.084)" gradientUnits="userSpaceOnUse" x1="0" x2="1" xlink:href="#lg1" y1="0" y2="0"/><linearGradient id="_Linear11" gradientTransform="matrix(3.04 0 0 2 35.038 22.084)" gradientUnits="userSpaceOnUse" x1="0" x2="1" xlink:href="#lg1" y1="0" y2="0"/><linearGradient id="_Linear12" gradientTransform="matrix(3.04 0 0 2 29.038 18.084)" gradientUnits="userSpaceOnUse" x1="0" x2="1" xlink:href="#lg1" y1="0" y2="0"/><g id="Expanded-Smooth"><path d="m48 30c.236-4.716 3-9 2-14-.826-4.132-9.899-8-19-8s-17.774 3.276-19 8 1.764 9.284 2 14c.237 4.749.137 15.924.059 21.961-.01 1.068.406 2.095 1.158 2.853.751.759 1.774 1.185 2.841 1.185 6.541.001 19.343.001 25.884.001 1.067 0 2.091-.427 2.842-1.185.751-.759 1.168-1.786 1.157-2.854-.078-6.037-.178-17.212.059-21.961z" fill="url(#_Linear1)"/><path d="m44.273 30.333c.183-3.929 2.337-7.5 1.558-11.666-.644-3.443-7.712-6.667-14.801-6.667s-13.846 2.73-14.801 6.667 1.374 7.737 1.558 11.666c.189 4.047.103 13.696.042 18.638-.008.8.304 1.571.868 2.14.563.569 1.331.889 2.131.889h20.403c.801 0 1.569-.32 2.132-.889.564-.569.876-1.34.868-2.14-.061-4.942-.147-14.591.042-18.638z" fill="url(#_Linear2)"/><path d="m24.038 47.084h1.04c.552 0 1-.448 1-1s-.448-1-1-1h-1.04c-.552 0-1 .448-1 1s.448 1 1 1z" fill="url(#_Linear3)"/><path d="m33.038 40.084h1.04c.552 0 1-.448 1-1s-.448-1-1-1h-1.04c-.552 0-1 .448-1 1s.448 1 1 1z" fill="url(#_Linear4)"/><path d="m37.038 46.084h1.04c.552 0 1-.448 1-1s-.448-1-1-1h-1.04c-.552 0-1 .448-1 1s.448 1 1 1z" fill="url(#_Linear5)"/><path d="m26.038 38.084h1.04c.552 0 1-.448 1-1s-.448-1-1-1h-1.04c-.552 0-1 .448-1 1s.448 1 1 1z" fill="url(#_Linear6)"/><path d="m39.038 35.084h1.04c.552 0 1-.448 1-1s-.448-1-1-1h-1.04c-.552 0-1 .448-1 1s.448 1 1 1z" fill="url(#_Linear7)"/><path d="m31.038 31.084h1.04c.552 0 1-.448 1-1s-.448-1-1-1h-1.04c-.552 0-1 .448-1 1s.448 1 1 1z" fill="url(#_Linear8)"/><path d="m22.038 22.084h1.04c.552 0 1-.448 1-1s-.448-1-1-1h-1.04c-.552 0-1 .448-1 1s.448 1 1 1z" fill="url(#_Linear9)"/><path d="m23.038 29.084h1.04c.552 0 1-.448 1-1s-.448-1-1-1h-1.04c-.552 0-1 .448-1 1s.448 1 1 1z" fill="url(#_Linear10)"/><path d="m36.038 23.084h1.04c.552 0 1-.448 1-1s-.448-1-1-1h-1.04c-.552 0-1 .448-1 1s.448 1 1 1z" fill="url(#_Linear11)"/><path d="m30.038 19.084h1.04c.552 0 1-.448 1-1s-.448-1-1-1h-1.04c-.552 0-1 .448-1 1s.448 1 1 1z" fill="url(#_Linear12)"/></g></svg>