<svg clip-rule="evenodd" fill-rule="evenodd" height="512" stroke-linejoin="round" stroke-miterlimit="2" viewBox="0 0 356 356" width="512" xmlns="http://www.w3.org/2000/svg" xmlns:xlink="http://www.w3.org/1999/xlink"><linearGradient id="_Linear1" gradientTransform="matrix(215.972 212.5 -212.5 215.972 73.619 57.105)" gradientUnits="userSpaceOnUse" x1="0" x2="1" y1="0" y2="0"><stop offset="0" stop-color="#fed29d"/><stop offset="1" stop-color="#f4bd7a"/></linearGradient><linearGradient id="_Linear2" gradientTransform="matrix(232.631 209.028 -209.028 232.631 89.591 84.188)" gradientUnits="userSpaceOnUse" x1="0" x2="1" y1="0" y2="0"><stop offset="0" stop-color="#fbf7ec"/><stop offset="1" stop-color="#e6d9b3"/></linearGradient><linearGradient id="lg1"><stop offset="0" stop-color="#ffd541"/><stop offset="1" stop-color="#ffa501"/></linearGradient><linearGradient id="_Linear3" gradientTransform="matrix(54.31 31.536 -31.536 54.31 105.866 119.098)" gradientUnits="userSpaceOnUse" x1="0" x2="1" xlink:href="#lg1" y1="0" y2="0"/><linearGradient id="lg2"><stop offset="0" stop-color="#ffaa10"/><stop offset="1" stop-color="#ec6800"/></linearGradient><linearGradient id="_Linear7" gradientTransform="matrix(24.252 0 0 117.61 129.232 215.384)" gradientUnits="userSpaceOnUse" x1="0" x2="1" xlink:href="#lg2" y1="0" y2="0"/><linearGradient id="_Linear8" gradientTransform="matrix(36.516 0 0 95.43 190.663 135.539)" gradientUnits="userSpaceOnUse" x1="0" x2="1" xlink:href="#lg1" y1="0" y2="0"/><linearGradient id="_Linear9" gradientTransform="matrix(24.715 0 0 90.553 202.464 228.53)" gradientUnits="userSpaceOnUse" x1="0" x2="1" xlink:href="#lg2" y1="0" y2="0"/><g id="Exp-3.-S"><g><circle cx="177.778" cy="177.778" fill="url(#_Linear1)" r="144.444"/><circle cx="177.778" cy="177.778" fill="url(#_Linear2)" r="126.134"/><g fill="url(#_Linear3)"><path d="m170.727 128.001c0-17.016 0-35.08 0-35.08 0-2.3-1.867-4.167-4.167-4.167-2.299 0-4.166 1.867-4.166 4.167v35.08c0 2.299 1.867 4.166 4.166 4.166 2.3 0 4.167-1.867 4.167-4.166z"/><path d="m154.376 130.876c0-18.41 0-37.955 0-37.955 0-2.3-1.867-4.167-4.167-4.167s-4.167 1.867-4.167 4.167v37.955c0 2.299 1.867 4.166 4.167 4.166s4.167-1.867 4.167-4.166z"/><path d="m138.024 131.992c0-18.951 0-39.071 0-39.071 0-2.3-1.867-4.167-4.166-4.167-2.3 0-4.167 1.867-4.167 4.167v39.071c0 2.299 1.867 4.166 4.167 4.166 2.299 0 4.166-1.867 4.166-4.166z"/><path d="m121.673 130.876c0-18.41 0-37.955 0-37.955 0-2.3-1.867-4.167-4.167-4.167-2.299 0-4.166 1.867-4.166 4.167v37.955c0 2.299 1.867 4.166 4.166 4.166 2.3 0 4.167-1.867 4.167-4.166z"/></g><path d="m134.933 156.579c2.349.584 4.779.886 7.24.886h.009c1.928 0 3.837-.186 5.702-.547 3.366 11.314 5.599 31.115 5.599 53.632 0 35.123-2.593 63.639-12.126 63.639-9.532 0-12.125-28.516-12.125-63.639 0-22.745 2.278-42.72 5.701-53.971z" fill="url(#_Linear7)"/><path d="m227.179 87.824c-26.807 11.334-35.116 27.091-36.516 62.019v33.41h36.516z" fill="url(#_Linear8)"/><path d="m227.179 183.253h-18.258s-6.457 43.888-6.457 71.35c0 23.239 24.715 18.878 24.715 18.878z" fill="url(#_Linear9)"/><path d="m170.727 128.001c0-1.364-.667-2.641-1.786-3.42-1.118-.779-2.548-.961-3.826-.488-15.384 5.691-30.769 5.74-46.153.004-1.279-.477-2.711-.297-3.832.481-1.121.779-1.79 2.057-1.79 3.423 0 8.819 2.956 17.263 8.147 23.499 5.438 6.535 12.852 10.131 20.543 10.131h.007c7.691 0 15.105-3.596 20.543-10.131 5.191-6.236 8.147-14.68 8.147-23.499z" fill="url(#_Linear3)"/></g></g></svg>