<svg clip-rule="evenodd" fill-rule="evenodd" height="512" stroke-linejoin="round" stroke-miterlimit="2" viewBox="0 0 267 267" width="512" xmlns="http://www.w3.org/2000/svg" xmlns:xlink="http://www.w3.org/1999/xlink"><linearGradient id="_Linear1" gradientTransform="matrix(90.939 159.012 -159.012 90.939 73.625 17.978)" gradientUnits="userSpaceOnUse" x1="0" x2="1" y1="0" y2="0"><stop offset="0" stop-color="#fe97ac"/><stop offset="1" stop-color="#ff6f6f"/></linearGradient><linearGradient id="_Linear2" gradientTransform="matrix(241.667 0 0 113.675 12.5 187.186)" gradientUnits="userSpaceOnUse" x1="0" x2="1" y1="0" y2="0"><stop offset="0" stop-color="#fed29d"/><stop offset="1" stop-color="#f4bd7a"/></linearGradient><g id="Exp-4.-S"><g><path d="m74.525 160.349c23.455 16.411 13.788 2.67 35.4 9.95s20.035 16.262.079 29.585-48.835-18.957-61.746-31.821c-12.911-12.863 2.813-24.125 26.267-7.714z" fill="#f2b474"/><path d="m132.086 37.159c19.578-19.323 58.735-19.323 78.313-.189 19.579 19.135 19.579 57.404 0 95.673-13.705 28.702-48.946 57.403-78.313 76.538-29.368-19.135-64.609-47.836-78.313-76.538-19.579-38.269-19.579-76.538 0-95.673 19.578-19.134 58.735-19.134 78.313.189z" fill="url(#_Linear1)"/><path d="m254.167 244.024c-38.106-.2-122.169-6.514-172.276-24.708-50.106-18.194-75.017-54.055-68.319-63.024 6.699-8.97 32.096 9.952 54.639 21.742 22.544 11.789 27.98 12.591 47.8 11.917 11.61-.395 22.637-6.651 26.135-8.825l.088-.077s-11.918-16.087-16.955-20.934c-9.187-8.839-19.609-16.341-13.741-26.129 5.869-9.789 30.477 2.147 43.489 12.608 10.846 8.72 40.522 18.161 58.565 35.16 11.9 11.211 40.575 9.197 40.575 9.197z" fill="url(#_Linear2)"/></g></g></svg>