<svg clip-rule="evenodd" fill-rule="evenodd" height="512" stroke-linejoin="round" stroke-miterlimit="2" viewBox="0 0 356 356" width="512" xmlns="http://www.w3.org/2000/svg" xmlns:xlink="http://www.w3.org/1999/xlink"><linearGradient id="lg1"><stop offset="0" stop-color="#f6c124"/><stop offset="1" stop-color="#f44e24"/></linearGradient><linearGradient id="_Linear1" gradientTransform="matrix(155.556 0 0 -50 94.504 297.282)" gradientUnits="userSpaceOnUse" x1="0" x2="1" xlink:href="#lg1" y1="0" y2="0"/><linearGradient id="_Linear3" gradientTransform="matrix(294.444 194.444 -194.444 294.444 27.778 55.556)" gradientUnits="userSpaceOnUse" x1="0" x2="1" y1="0" y2="0"><stop offset="0" stop-color="#e5f6ed"/><stop offset="1" stop-color="#badedf"/></linearGradient><linearGradient id="lg2"><stop offset="0" stop-color="#4b98aa"/><stop offset="1" stop-color="#2a6183"/></linearGradient><linearGradient id="_Linear4" gradientTransform="matrix(288.889 0 0 33.333 27.778 244.444)" gradientUnits="userSpaceOnUse" x1="0" x2="1" xlink:href="#lg2" y1="0" y2="0"/><linearGradient id="_Linear5" gradientTransform="matrix(94.444 161.111 -161.111 94.444 233.333 133.333)" gradientUnits="userSpaceOnUse" x1="0" x2="1" xlink:href="#lg1" y1="0" y2="0"/><linearGradient id="_Linear6" gradientTransform="matrix(27.778 0 0 11.111 269.444 272.222)" gradientUnits="userSpaceOnUse" x1="0" x2="1" xlink:href="#lg2" y1="0" y2="0"/><g id="Exp-5.-G"><g><path d="m211.171 258.393h-77.778l-16.667 44.445h111.112z" fill="url(#_Linear1)"/><path d="m100.06 308.393h144.444c3.066 0 5.556-2.489 5.556-5.555 0-3.067-2.49-5.556-5.556-5.556h-144.444c-3.066 0-5.556 2.489-5.556 5.556 0 3.066 2.49 5.555 5.556 5.555z" fill="url(#_Linear1)"/><path d="m316.667 77.778c0-5.894-2.342-11.546-6.509-15.714-4.168-4.167-9.82-6.508-15.714-6.508-53.811 0-190.633 0-244.444 0-5.894 0-11.546 2.341-15.713 6.508-4.168 4.168-6.509 9.82-6.509 15.714v161.111c0 5.894 2.341 11.546 6.509 15.713 4.167 4.168 9.819 6.509 15.713 6.509h244.444c5.894 0 11.546-2.341 15.714-6.509 4.167-4.167 6.509-9.819 6.509-15.713 0-39.523 0-121.588 0-161.111z" fill="url(#_Linear3)"/><path d="m316.667 227.778h-288.889v11.111c0 5.894 2.341 11.546 6.508 15.713 4.168 4.168 9.82 6.509 15.714 6.509h244.444c5.894 0 11.546-2.341 15.714-6.509 4.167-4.167 6.509-9.819 6.509-15.713 0-6.12 0-11.111 0-11.111z" fill="url(#_Linear4)"/><path d="m327.778 155.555c0-9.204-7.462-16.666-16.667-16.666-15.884 0-39.671 0-55.556 0-9.204 0-16.666 7.462-16.666 16.666v122.223c0 9.205 7.462 16.666 16.666 16.666h55.556c9.205 0 16.667-7.461 16.667-16.666 0-29.901 0-92.321 0-122.223z" fill="url(#_Linear5)"/><path d="m275 277.778h16.667c3.066 0 5.555-2.49 5.555-5.556s-2.489-5.555-5.555-5.555h-16.667c-3.066 0-5.556 2.489-5.556 5.555s2.49 5.556 5.556 5.556z" fill="url(#_Linear6)"/></g></g></svg>