<svg clip-rule="evenodd" fill-rule="evenodd" height="512" stroke-linejoin="round" stroke-miterlimit="2" viewBox="0 0 356 356" width="512" xmlns="http://www.w3.org/2000/svg" xmlns:xlink="http://www.w3.org/1999/xlink"><linearGradient id="lg1"><stop offset="0" stop-color="#fe767b"/><stop offset="1" stop-color="#d2373c"/></linearGradient><linearGradient id="_Linear1" gradientTransform="matrix(311.231 267.259 -267.259 311.231 54.609 66.074)" gradientUnits="userSpaceOnUse" x1="0" x2="1" xlink:href="#lg1" y1="0" y2="0"/><linearGradient id="_Linear2" gradientTransform="matrix(336.173 16.301 -13.577 279.993 -25.035 194.061)" gradientUnits="userSpaceOnUse" x1="0" x2="1" xlink:href="#lg1" y1="0" y2="0"/><linearGradient id="_Linear3" gradientTransform="matrix(160.311 249.607 -249.607 160.311 44.93 36.061)" gradientUnits="userSpaceOnUse" x1="0" x2="1" y1="0" y2="0"><stop offset="0" stop-color="#fed29d"/><stop offset="1" stop-color="#f4bd7a"/></linearGradient><linearGradient id="_Linear4" gradientTransform="matrix(108.051 167.818 -167.818 108.051 21.777 26.243)" gradientUnits="userSpaceOnUse" x1="0" x2="1" y1="0" y2="0"><stop offset="0" stop-color="#fef1cc"/><stop offset="1" stop-color="#f6dd95"/></linearGradient><g id="Exp.-4.-S"><g><path d="m177.777 92.872c33.561-43.302 100.682-43.302 134.243-15.265 33.561 28.038 33.561 84.112 0 140.187-23.493 42.056-83.902 84.111-134.243 112.149-50.341-28.038-110.749-70.093-134.242-112.149-33.561-56.075-33.561-112.149 0-140.187 33.561-28.037 100.682-28.037 134.242 15.265z" fill="url(#_Linear1)"/><path d="m316.816 82.036c28.681 29.239 27.081 82.498-4.796 135.758-23.493 42.056-83.902 84.111-134.243 112.149-50.341-28.038-110.749-70.093-134.242-112.149-1.389-2.322-2.721-4.643-3.993-6.96 28.065 36.458 79.59 71.545 123.467 95.982 50.341-28.037 110.75-70.093 134.243-112.149 24.701-41.271 31.223-82.542 19.564-112.631z" fill="url(#_Linear2)"/><path d="m195.344 319.954s-7.994 3.858-17.566 9.989c-21.898-13.83-136.665-69.6-156.001-163.956 20.475-6.941 80.695 14.164 91.901 28.074 0 0 7.31-30.134 21.405-35.684-54.134-44.917-77.279-129.673-65.615-137.812 15.878-11.078 84.777 31.046 108.31 123.526 57.362 2.001 89.345 71.084 82.857 89.144-6.487 18.059-37.017 17.404-55.889 14.379 7.216 31.253.079 54.103-9.402 72.34z" fill="url(#_Linear3)"/><path d="m172.925 327.031c22.101-19.415 29.156-68.267 24.66-80.235 0 0 2.886.691 7.322 1.526 6.946 30.892-.154 53.534-9.563 71.632 0 0-7.994 3.858-17.566 9.989-1.303-.823-2.934-1.795-4.853-2.912z" fill="#efa65a"/><path d="m25.296 179.612c-1.39-4.452-2.569-8.992-3.519-13.625 20.475-6.941 80.695 14.164 91.901 28.074 0 0 7.31-30.134 21.405-35.684-54.134-44.917-77.279-129.673-65.615-137.812 15.878-11.078 84.777 31.046 108.31 123.526 25.748 1.616 42.239 14.206 46.848 18.988-26.835-14.171-44.185-15.523-54.788-14.836-40.906-104.606-88.176-122.81-88.259-112.591-.134 16.38 8.598 67.75 62.72 123.673-19.523 8.437-27.699 48.335-27.699 48.335-11.318-15.143-59.03-27.342-91.304-28.048z" fill="url(#_Linear4)"/><circle cx="204.881" cy="191.034" fill="#60828f" r="11.159"/></g></g></svg>