<svg clip-rule="evenodd" fill-rule="evenodd" height="512" stroke-linejoin="round" stroke-miterlimit="2" viewBox="0 0 64 64" width="512" xmlns="http://www.w3.org/2000/svg" xmlns:xlink="http://www.w3.org/1999/xlink"><linearGradient id="lg1"><stop offset="0" stop-color="#f4f7f8"/><stop offset="1" stop-color="#d1d2e2"/></linearGradient><linearGradient id="_Linear1" gradientTransform="matrix(11.964 18.529 -10 22.167 39 38.765)" gradientUnits="userSpaceOnUse" x1="0" x2="1" xlink:href="#lg1" y1="0" y2="-.492"/><linearGradient id="_Linear2" gradientTransform="matrix(35 26 -76.632 103.158 5 13)" gradientUnits="userSpaceOnUse" x1="0" x2="1" y1="0" y2="0"><stop offset="0" stop-color="#b0f596"/><stop offset="1" stop-color="#1eac61"/></linearGradient><linearGradient id="lg2"><stop offset="0" stop-color="#ff6f96"/><stop offset="1" stop-color="#e44444"/></linearGradient><linearGradient id="_Linear3" gradientTransform="matrix(19 0 0 22 12 42)" gradientUnits="userSpaceOnUse" x1="0" x2="1" xlink:href="#lg2" y1="0" y2="0"/><linearGradient id="_Linear4" gradientTransform="matrix(6.778 0 0 5 18.111 6.5)" gradientUnits="userSpaceOnUse" x1="0" x2="1" y1="0" y2="0"><stop offset="0" stop-color="#75858c"/><stop offset="1" stop-color="#405a65"/></linearGradient><linearGradient id="_Linear5" gradientTransform="matrix(17.945 15 -15 17.945 36 23)" gradientUnits="userSpaceOnUse" x1="0" x2="1" xlink:href="#lg1" y1="0" y2="0"/><linearGradient id="_Linear6" gradientTransform="matrix(17.89 0 0 8 36.055 37)" gradientUnits="userSpaceOnUse" x1="0" x2="1" xlink:href="#lg2" y1="0" y2="0"/><g id="Exp-4.-S"><g><path d="m44 41v14c0 .916-.675 1.671-1.408 2.294-1.317 1.12-2.963 1.778-2.963 1.778-.445.178-.702.646-.611 1.117s.503.811.982.811h10c.479 0 .891-.34.982-.811s-.166-.939-.611-1.117c0 0-1.646-.658-2.963-1.778-.733-.623-1.408-1.378-1.408-2.294v-14c0-.552-.448-1-1-1s-1 .448-1 1z" fill="url(#_Linear1)"/><path d="m24.889 15.33c0 2.036.776 3.996 2.171 5.48.575.61 1.194 1.27 1.769 1.88 1.394 1.484 2.171 3.444 2.171 5.48v27.83c0 1.061-.421 2.078-1.172 2.828-.75.751-1.767 1.172-2.828 1.172-3.234 0-7.766 0-11 0-1.061 0-2.078-.421-2.828-1.172-.751-.75-1.172-1.767-1.172-2.828 0-7.025 0-21.44 0-27.83 0-2.036.777-3.996 2.171-5.48.575-.61 1.194-1.27 1.769-1.88 1.395-1.484 2.171-3.444 2.171-5.48 0-3.404 0-8.33 0-8.33h6.778z" fill="url(#_Linear2)"/><path d="m12 31h19v22h-19z" fill="url(#_Linear3)"/><path d="m24.889 9h-6.778v-3c0-1.105.896-2 2-2h2.778c1.104 0 2 .895 2 2z" fill="url(#_Linear4)"/><path d="m54 32c0 4.967-4.033 9-9 9s-9-4.033-9-9v-8h18z" fill="url(#_Linear5)"/><path d="m53.945 33c-.498 4.497-4.316 8-8.945 8s-8.447-3.503-8.945-8z" fill="url(#_Linear6)"/></g></g></svg>