<svg clip-rule="evenodd" fill-rule="evenodd" height="512" stroke-linejoin="round" stroke-miterlimit="2" viewBox="0 0 356 356" width="512" xmlns="http://www.w3.org/2000/svg" xmlns:xlink="http://www.w3.org/1999/xlink"><linearGradient id="_Linear1" gradientTransform="matrix(264.664 146.511 -146.511 264.664 42.599 161.419)" gradientUnits="userSpaceOnUse" x1="0" x2="1" y1="0" y2="0"><stop offset="0" stop-color="#e9f8f0"/><stop offset="1" stop-color="#cce7e7"/></linearGradient><linearGradient id="_Linear2" gradientTransform="matrix(198.56 103.245 -103.245 198.56 77.031 215.841)" gradientUnits="userSpaceOnUse" x1="0" x2="1" y1="0" y2="0"><stop offset="0" stop-color="#3dd2c0"/><stop offset="1" stop-color="#0cafa0"/></linearGradient><linearGradient id="_Linear3" gradientTransform="matrix(300.324 .043 -.008 55.616 27.778 83.333)" gradientUnits="userSpaceOnUse" x1="0" x2="1" y1="0" y2="0"><stop offset="0" stop-color="#fd8a5f"/><stop offset="1" stop-color="#e54647"/></linearGradient><linearGradient id="_Linear4" gradientTransform="matrix(300.113 .224 -.051 67.803 27.665 144.776)" gradientUnits="userSpaceOnUse" x1="0" x2="1" y1="0" y2="0"><stop offset="0" stop-color="#f86271"/><stop offset="1" stop-color="#e44444"/></linearGradient><g id="Exp-5.-S"><g><path d="m44.444 150v161.111c0 2.947 1.171 5.773 3.255 7.857s4.91 3.254 7.857 3.254h244.444c2.947 0 5.773-1.17 7.857-3.254 2.083-2.084 3.254-4.91 3.254-7.857 0-35.589 0-161.111 0-161.111h-266.667z" fill="url(#_Linear1)"/><path d="m277.778 222.222c0-6.136-4.975-11.111-11.111-11.111-35.009 0-142.77 0-177.778 0-6.137 0-11.111 4.975-11.111 11.111v100h200z" fill="url(#_Linear2)"/><path d="m306.674 62.26c-1.758-4.069-5.767-6.704-10.2-6.704-36.702 0-200.69 0-237.393 0-4.433 0-8.442 2.635-10.2 6.704-6.384 14.778-21.103 48.851-21.103 48.851h300s-14.72-34.073-21.104-48.851z" fill="url(#_Linear3)"/><path d="m327.778 150.389v-.072c0 16.558-13.443 28.572-30 28.572-16.558 0-30-11.943-30-28.5v-.072c0 16.558-13.443 28.572-30 28.572-16.558 0-30-11.943-30-28.5v-.072c0 16.558-13.443 28.572-30 28.572-16.558 0-30-11.943-30-28.5v-.072c0 16.558-13.443 28.572-30 28.572-16.558 0-30-11.943-30-28.5v-.072c0 16.558-13.443 28.572-30 28.572-16.558 0-30-11.943-30-28.5v-39.278h300z" fill="url(#_Linear4)"/></g></g></svg>