<svg clip-rule="evenodd" fill-rule="evenodd" height="512" stroke-linejoin="round" stroke-miterlimit="2" viewBox="0 0 267 267" width="512" xmlns="http://www.w3.org/2000/svg" xmlns:xlink="http://www.w3.org/1999/xlink"><linearGradient id="lg1"><stop offset="0" stop-color="#828fa3"/><stop offset="1" stop-color="#5a6b84"/></linearGradient><linearGradient id="_Linear1" gradientTransform="matrix(64.4 28.388 -28.388 64.4 102.063 15.556)" gradientUnits="userSpaceOnUse" x1="0" x2="1" xlink:href="#lg1" y1="0" y2="0"/><linearGradient id="_Linear2" gradientTransform="matrix(-194.804 -226.283 226.283 -194.804 240.192 267.971)" gradientUnits="userSpaceOnUse" x1="0" x2="1" y1="0" y2="0"><stop offset="0" stop-color="#abc4e8"/><stop offset="1" stop-color="#e1ecf8"/></linearGradient><linearGradient id="_Linear3" gradientTransform="matrix(31.121 19.052 -13.718 43.222 37.026 210.126)" gradientUnits="userSpaceOnUse" x1="0" x2="1" xlink:href="#lg1" y1="0" y2="-.193"/><linearGradient id="_Linear4" gradientTransform="matrix(31.121 19.052 -13.718 43.222 199.418 210.126)" gradientUnits="userSpaceOnUse" x1="0" x2="1" xlink:href="#lg1" y1="0" y2="-.193"/><g id="Exp-4.-S"><g><path d="m97.69 30.203 5.204-17.703c20.327 5.114 40.62 5.035 60.878 0l5.205 17.703s-10.593 25.567-35.644 25.111c-30.464-.556-35.643-25.111-35.643-25.111z" fill="url(#_Linear1)"/><path d="m197.305 218.551c5.325 4.629 10.565 18.237 10.565 18.237 5.479.301 13.681-2.123 18.578-4.3 0 0 .596-12.626 5.306-23.321 2.945-10.827-5.826-128.687-14.396-147.435-8.57-18.747-35.911-26.334-48.381-31.529-15.399 11.882-55.889 11.882-71.287 0-12.471 5.195-39.811 12.782-48.381 31.529-8.57 18.748-17.341 136.608-14.396 147.435 4.71 10.695 5.306 23.321 5.306 23.321 4.897 2.177 13.099 4.601 18.577 4.3 0 0 5.241-13.608 10.566-18.237 4.711-4.095 123.232-4.095 127.943 0z" fill="url(#_Linear2)"/><path d="m77.516 83.982c-23.203 45.459-22.064 121.916-20.489 135.254s12.065-3.251 12.065-3.251 15.547-103.87 8.424-132.003z" fill="#b3cde9"/><path d="m191.822 83.982c23.203 45.459 22.064 121.916 20.489 135.254s-12.065-3.251-12.065-3.251-15.548-103.87-8.424-132.003z" fill="#9dbee3"/><path d="m35.185 209.097-.272.07c4.71 10.695 5.306 23.321 5.306 23.321 4.897 2.177 13.099 4.601 18.577 4.3 0 0 5.241-13.608 10.566-18.237-8.907-9.02-22.663-12.362-34.177-9.454z" fill="url(#_Linear3)"/><path d="m197.305 218.551c8.907-9.02 22.662-12.362 34.177-9.454l.272.07c-4.71 10.695-5.306 23.321-5.306 23.321-4.897 2.177-13.099 4.601-18.578 4.3 0 0-5.24-13.608-10.565-18.237z" fill="url(#_Linear4)"/><path d="m77.516 83.982c-12.328 44.953-7.801 143.809-6.724 157.861 11.319 12.365 62.672 12.324 62.672 12.324s51.354.041 62.672-12.324c1.077-14.052 5.604-112.908-6.724-157.861-5.453-19.886-106.443-19.886-111.896 0z" fill="url(#_Linear2)"/><path d="m193.595 154.895c1.8 21.025-6.797 68.611-11.747 75.802-4.949 7.19-59.106 20.221-111.056 11.146 7.999 10.835 56.347 12.897 63.923 12.315s54.325-1.538 61.421-12.315c0 0 1.403-29.76 1.7-35.947.298-6.187 0-52.665 0-52.665s-6.041-19.361-4.241 1.664z" fill="#9dbee3"/><path d="m133.464 100.894s43.92-.494 58.367-6.359c4.246 19.252 5.572 60.03 5.572 60.03s-31.996 9.345-63.939 9.345-63.939-9.345-63.939-9.345 1.326-40.778 5.572-60.03c14.447 5.865 58.367 6.359 58.367 6.359z" fill="#e7f2f7"/><g fill="#f05e63"><path d="m133.464 163.91-20.592-30.889 20.592-32.127 20.592 32.127z"/><path d="m175.349 158.896-21.293-25.875 20.179-34.698 21.706 29.683z"/><path d="m91.579 158.896 21.293-25.875-20.179-34.698-21.706 29.683z"/></g><path d="m74.502 83.156c-8.998 32.81-8.683 95.096-7.634 131.754.049 1.724 1.489 3.083 3.213 3.034s3.084-1.489 3.035-3.213c-1.035-36.146-1.459-97.569 7.413-129.922.457-1.664-.524-3.384-2.187-3.841-1.663-.456-3.384.524-3.84 2.188z" fill="#b3cde9"/><path d="m200.496 214.425c.989-36.85.767-99.043-8.07-131.269-.456-1.664-2.177-2.644-3.84-2.188-1.663.457-2.643 2.177-2.187 3.841 8.714 31.778 8.824 93.111 7.849 129.449-.046 1.724 1.316 3.161 3.04 3.207 1.725.047 3.162-1.316 3.208-3.04z" fill="#9dbee3"/></g></g></svg>