<svg clip-rule="evenodd" fill-rule="evenodd" height="512" stroke-linejoin="round" stroke-miterlimit="2" viewBox="0 0 356 356" width="512" xmlns="http://www.w3.org/2000/svg" xmlns:xlink="http://www.w3.org/1999/xlink"><linearGradient id="_Linear1" gradientTransform="matrix(273.946 0 0 149.936 38.889 230.524)" gradientUnits="userSpaceOnUse" x1="0" x2="1" y1="0" y2="0"><stop offset="0" stop-color="#ff6f96"/><stop offset="1" stop-color="#e44444"/></linearGradient><linearGradient id="_Linear2" gradientTransform="matrix(273.946 0 0 149.936 40.148 174.968)" gradientUnits="userSpaceOnUse" x1="0" x2="1" y1="0" y2="0"><stop offset="0" stop-color="#f8e759"/><stop offset="1" stop-color="#fbac05"/></linearGradient><linearGradient id="_Linear3" gradientTransform="matrix(0 151.111 -151.111 0 179.592 37.219)" gradientUnits="userSpaceOnUse" x1="0" x2="1" y1="0" y2="0"><stop offset="0" stop-color="#ebf9f8"/><stop offset="1" stop-color="#c0c4f6"/></linearGradient><g id="Exp-7.-S"><g><path d="m165.633 158.05c6.414-3.326 14.044-3.326 20.458 0 24.841 12.88 88.658 45.97 120.748 62.61 3.684 1.91 5.996 5.714 5.996 9.864 0 4.149-2.312 7.953-5.996 9.864-32.09 16.639-95.907 49.729-120.748 62.609-6.414 3.326-14.044 3.326-20.458 0-24.841-12.88-88.658-45.97-120.748-62.609-3.684-1.911-5.996-5.715-5.996-9.864 0-4.15 2.312-7.954 5.996-9.864 32.09-16.64 95.907-49.73 120.748-62.61z" fill="url(#_Linear1)"/><path d="m166.892 102.494c6.414-3.325 14.044-3.325 20.458 0 24.841 12.881 88.657 45.971 120.748 62.61 3.683 1.91 5.996 5.714 5.996 9.864s-2.313 7.954-5.996 9.864c-32.091 16.639-95.907 49.729-120.748 62.61-6.414 3.326-14.044 3.326-20.458 0-24.841-12.881-88.658-45.971-120.748-62.61-3.684-1.91-5.996-5.714-5.996-9.864s2.312-7.954 5.996-9.864c32.09-16.639 95.907-49.729 120.748-62.61z" fill="url(#_Linear2)"/><path d="m166.892 46.939c6.414-3.326 14.044-3.326 20.458 0 24.841 12.88 88.657 45.97 120.748 62.61 3.683 1.91 5.996 5.714 5.996 9.864 0 4.149-2.313 7.953-5.996 9.863-32.091 16.64-95.907 49.73-120.748 62.61-6.414 3.326-14.044 3.326-20.458 0-24.841-12.88-88.658-45.97-120.748-62.61-3.684-1.91-5.996-5.714-5.996-9.864 0-4.149 2.312-7.953 5.996-9.863 32.09-16.64 95.907-49.73 120.748-62.61z" fill="url(#_Linear3)"/></g></g></svg>