<svg clip-rule="evenodd" fill-rule="evenodd" height="512" stroke-linejoin="round" stroke-miterlimit="2" viewBox="0 0 356 356" width="512" xmlns="http://www.w3.org/2000/svg" xmlns:xlink="http://www.w3.org/1999/xlink"><linearGradient id="_Linear1" gradientTransform="matrix(150.161 250.832 -250.832 150.161 100.182 50.31)" gradientUnits="userSpaceOnUse" x1="0" x2="1" y1="0" y2="0"><stop offset="0" stop-color="#acd7fe"/><stop offset="1" stop-color="#68adec"/></linearGradient><linearGradient id="_Linear2" gradientTransform="matrix(191.629 222.987 -222.987 191.629 90.073 59.525)" gradientUnits="userSpaceOnUse" x1="0" x2="1" y1="0" y2="0"><stop offset="0" stop-color="#dde825"/><stop offset="1" stop-color="#c4cf00"/></linearGradient><linearGradient id="_Linear5" gradientTransform="matrix(178.189 0 0 81.138 84.517 212.79)" gradientUnits="userSpaceOnUse" x1="0" x2="1" y1="0" y2="0"><stop offset="0" stop-color="#60828f"/><stop offset="1" stop-color="#35525e"/></linearGradient><linearGradient id="lg1"><stop offset="0" stop-color="#fe767b"/><stop offset="1" stop-color="#d2373c"/></linearGradient><linearGradient id="_Linear6" gradientTransform="matrix(70.926 98.42 -98.42 70.926 53.988 62.962)" gradientUnits="userSpaceOnUse" x1="0" x2="1" xlink:href="#lg1" y1="0" y2="0"/><linearGradient id="_Linear7" gradientTransform="matrix(45.294 94.769 -94.769 45.294 229.068 124.033)" gradientUnits="userSpaceOnUse" x1="0" x2="1" xlink:href="#lg1" y1="0" y2="0"/><linearGradient id="lg2"><stop offset="0" stop-color="#fbf7ec"/><stop offset="1" stop-color="#e6d9b3"/></linearGradient><linearGradient id="_Linear8" gradientUnits="userSpaceOnUse" x1="81.74" x2="98.407" xlink:href="#lg2" y1="87.933" y2="87.933"/><linearGradient id="_Linear9" gradientUnits="userSpaceOnUse" x1="238.824" x2="255.491" xlink:href="#lg2" y1="153.049" y2="153.049"/><g id="Exp-3.-S"><g><circle cx="177.778" cy="177.778" fill="url(#_Linear1)" r="144.444"/><g fill="url(#_Linear2)"><path d="m153.546 35.361c15.072 29.524 17.816 63.646 6.685 79.705-10.212 14.733-27.204 21.188-30.636 35.292-2.86 11.749 1.62 26.545-7.326 35.166-10.607 10.223-29.88 7.141-42.411 14.828-15.372 9.429-17.121 30.587-30.932 42.729-9.972-19.618-15.593-41.809-15.593-65.303 0-71.462 52.008-130.873 120.213-142.417z"/><path d="m298.393 98.32c15.059 22.799 23.829 50.112 23.829 79.458 0 61.074-37.987 113.346-91.601 134.457-3.315-22.093-26.943-37.911-26.414-60.787.54-23.348 28.281-34.109 40.472-50.976 9.552-13.215 11.572-30.2 16.375-45.315 6.379-20.073 19.228-43.42 37.339-56.837z"/><path d="m75.014 279.245c12.171-8.099 26.184-14.441 35.018-14.769 18.024-.667 22.569 15.45 34.046 25.139 5.444 4.597 12.02-.296 18.287 1.237 11.692 2.861 13.609 21.691 11.914 31.328-38.798-.926-73.827-17.178-99.265-42.935z"/></g><path d="m196.487 252.109c5.641.668 11.357 1.087 17.115 1.248 3.065.085 5.623-2.334 5.709-5.399s-2.333-5.623-5.398-5.708c-5.423-.152-10.806-.546-16.119-1.175-3.045-.361-5.81 1.819-6.17 4.864-.361 3.045 1.818 5.809 4.863 6.17zm45.665-.083c5.401-.658 10.792-1.552 16.149-2.687 3-.636 4.919-3.587 4.284-6.587-.636-2.999-3.587-4.918-6.587-4.283-5.039 1.068-10.111 1.908-15.191 2.528-3.044.371-5.213 3.144-4.842 6.187.371 3.044 3.144 5.214 6.187 4.842zm-90.066-10.982c5.273 2.091 10.727 3.931 16.325 5.51 2.951.832 6.023-.888 6.855-3.839s-.888-6.023-3.839-6.855c-5.228-1.474-10.321-3.192-15.245-5.144-2.85-1.131-6.082.266-7.212 3.116-1.131 2.85.266 6.082 3.116 7.212zm-39.62-23.555c4.329 3.746 8.997 7.229 13.958 10.435 2.575 1.665 6.017.925 7.681-1.65s.925-6.017-1.65-7.681c-4.52-2.921-8.774-6.093-12.719-9.507-2.319-2.006-5.83-1.752-7.836.567-2.007 2.318-1.753 5.83.566 7.836zm-27.544-37.631c2.219 5.496 4.975 10.735 8.211 15.699 1.675 2.568 5.12 3.294 7.688 1.619 2.569-1.674 3.295-5.119 1.62-7.688-2.843-4.361-5.266-8.962-7.216-13.79-1.148-2.844-4.389-4.22-7.232-3.072s-4.219 4.389-3.071 7.232z" fill="url(#_Linear5)"/><path d="m90.073 54.876c17.325 0 31.39 14.066 31.39 31.39 0 23.797-14.047 54.336-23.348 71.947-1.536 2.99-4.624 4.862-7.985 4.84-3.362-.021-6.426-1.931-7.925-4.94-9.301-17.993-23.522-49.214-23.522-71.847 0-17.324 14.066-31.39 31.39-31.39z" fill="url(#_Linear6)"/><path d="m247.158 119.992c17.324 0 31.39 14.066 31.39 31.39 0 23.797-14.048 54.336-23.349 71.947-1.536 2.99-4.624 4.861-7.985 4.84-3.362-.021-6.426-1.931-7.924-4.94-9.302-17.993-23.523-49.214-23.523-71.847 0-17.324 14.066-31.39 31.391-31.39z" fill="url(#_Linear7)"/><circle cx="90.073" cy="87.933" fill="url(#_Linear8)" r="8.333"/><circle cx="247.158" cy="153.049" fill="url(#_Linear9)" r="8.333"/></g></g></svg>