<svg clip-rule="evenodd" fill-rule="evenodd" height="512" stroke-linejoin="round" stroke-miterlimit="2" viewBox="0 0 356 356" width="512" xmlns="http://www.w3.org/2000/svg" xmlns:xlink="http://www.w3.org/1999/xlink"><linearGradient id="lg1"><stop offset="0" stop-color="#f5edd5"/><stop offset="1" stop-color="#decc99"/></linearGradient><linearGradient id="_Linear1" gradientTransform="matrix(190.419 0 0 175.977 35.844 120.842)" gradientUnits="userSpaceOnUse" x1="0" x2="1" xlink:href="#lg1" y1="0" y2="0"/><linearGradient id="_Linear2" gradientTransform="matrix(2.54 168.382 -284.784 4.296 284.323 104.192)" gradientUnits="userSpaceOnUse" x1="0" x2="1" xlink:href="#lg1" y1="0" y2="0"/><linearGradient id="_Linear3" gradientTransform="matrix(167.891 4.654 -2.969 107.087 39.239 246.054)" gradientUnits="userSpaceOnUse" x1="0" x2="1" xlink:href="#lg1" y1="0" y2="0"/><linearGradient id="lg2"><stop offset="0" stop-color="#f2e8c9"/><stop offset="1" stop-color="#d8bf76"/></linearGradient><linearGradient id="_Linear4" gradientTransform="matrix(40.297 183.427 -183.427 40.297 212.614 16.264)" gradientUnits="userSpaceOnUse" x1="0" x2="1" xlink:href="#lg2" y1="0" y2="0"/><linearGradient id="_Linear5" gradientTransform="matrix(155.469 -5.842 5.802 154.396 77.023 266.58)" gradientUnits="userSpaceOnUse" x1="0" x2="1" y1="0" y2="0"><stop offset="0" stop-color="#eedfb4"/><stop offset="1" stop-color="#d8bf76"/></linearGradient><linearGradient id="_Linear6" gradientTransform="matrix(176.77 0 0 115.839 35.844 150.91)" gradientUnits="userSpaceOnUse" x1="0" x2="1" xlink:href="#lg2" y1="0" y2="0"/><g id="Exp-4.-S"><g><path d="m39.238 208.83c-2.222-10.069-3.394-20.531-3.394-31.266 0-79.868 64.843-144.711 144.712-144.711 15.183 0 29.822 2.343 43.579 6.689l.128.984c13.256 100.059-43.707 137.038-43.707 137.038s-60.508-30.842-140.533 30.668z" fill="url(#_Linear1)"/><path d="m224.142 39.544c58.592 18.505 101.125 73.335 101.125 138.02 0 42.235-18.132 80.267-47.028 106.729l-.858-.358c-93.282-38.549-96.825-106.371-96.825-106.371s56.963-36.979 43.707-137.038c-.043-.326-.083-.65-.121-.982z" fill="url(#_Linear2)"/><path d="m39.239 208.837.784-.605c80.025-61.51 140.533-30.668 140.533-30.668s3.543 67.822 96.825 106.371l.86.357c-25.754 23.586-60.052 37.983-97.685 37.983-69.134 0-127.01-48.584-141.317-113.438z" fill="url(#_Linear3)"/><path d="m200.286 226.135c-18.566-26.287-19.73-48.571-19.73-48.571s56.963-36.979 43.707-137.038c-.043-.326-.083-.65-.121-.982 34.686 10.955 63.745 34.641 81.681 65.564-7.053 92.304-104.933 121.015-104.933 121.015s-.211.013-.604.012z" fill="url(#_Linear4)"/><path d="m128.558 170.372c32.083-2.959 51.998 7.192 51.998 7.192s3.543 67.822 96.825 106.371l.86.357c-25.728 23.563-59.983 37.955-97.573 37.983-76.408-52.258-52.332-151.38-52.332-151.38s.072-.184.222-.523z" fill="url(#_Linear5)"/><path d="m55.173 105.308c83.464-40.044 157.268 30.367 157.268 30.367s.065.283.173.818c-13.466 29.002-32.058 41.071-32.058 41.071s-60.508-30.842-140.533 30.668l-.785.598c-2.222-10.069-3.394-20.531-3.394-31.266 0-26.308 7.036-50.987 19.329-72.256z" fill="url(#_Linear6)"/><g fill="#d8bf76"><path d="m201.924 229.872s96.454-28.425 107.333-118.774c-2.244-4.813-6.247-10.139-6.247-10.139-.806.699-1.345 1.705-1.426 2.852-6.384 90.156-102.006 118.064-102.006 118.064-2.207.648-3.473 2.965-2.825 5.171.647 2.207 2.964 3.473 5.171 2.826z"/><path d="m123.535 168.405s-24.06 99.605 51.29 153.881c2.93.071 7.333.274 9.77-.113.395-1.641-.238-3.429-1.718-4.43-74.885-50.606-51.244-147.371-51.244-147.371.543-2.235-.831-4.49-3.065-5.033-2.235-.543-4.49.831-5.033 3.066z"/><path d="m216.065 133.007s-73.398-69.847-157.481-33.156c-2.004 3.197-5.613 9.628-5.613 9.628 1.195.789 2.737.931 4.092.25 80.738-40.622 153.249 29.307 153.249 29.307 1.664 1.588 4.304 1.526 5.891-.138 1.588-1.664 1.526-4.304-.138-5.891z"/></g><path d="m176.382 177.389s3.231 69.9 98.635 109.689c0 0 5.079-4.145 6.118-5.316-.427-.904-1.179-1.659-2.175-2.07-90.418-37.366-94.256-102.738-94.256-102.738-.12-2.296-2.082-4.064-4.378-3.944-2.297.12-4.064 2.082-3.944 4.379z" fill="#cfb771"/><path d="m182.435 173.459s-62.092-32.121-144.194 30.487c-.256.196.712 4.747 1.876 8.058.853-.021 1.706-.302 2.433-.861 77.569-59.622 136.101-30.259 136.101-30.259 2.049 1.044 4.56.229 5.604-1.82 1.045-2.049.229-4.56-1.82-5.605z" fill="#cfb771"/><path d="m182.812 180.666s58.64-37.569 45.769-139.535c-.065-.513-8.064-2.914-8.19-2.547-.233.678-.357 1.449-.271 2.096 12.849 96.987-41.846 132.997-41.846 132.997-1.928 1.252-2.478 3.834-1.226 5.763 1.253 1.929 3.835 2.478 5.764 1.226z" fill="#cfb771"/></g></g></svg>