<svg clip-rule="evenodd" fill-rule="evenodd" height="512" stroke-linejoin="round" stroke-miterlimit="2" viewBox="0 0 356 356" width="512" xmlns="http://www.w3.org/2000/svg" xmlns:xlink="http://www.w3.org/1999/xlink"><linearGradient id="_Linear1" gradientTransform="matrix(0 288.889 -288.889 0 188.889 27.778)" gradientUnits="userSpaceOnUse" x1="0" x2="1" y1="0" y2="0"><stop offset="0" stop-color="#f9bf93"/><stop offset="1" stop-color="#f78068"/></linearGradient><linearGradient id="_Linear2" gradientTransform="matrix(11.111 116.667 -116.667 11.111 194.444 77.778)" gradientUnits="userSpaceOnUse" x1="0" x2="1" y1="0" y2="0"><stop offset="0" stop-color="#ebf9f8"/><stop offset="1" stop-color="#c0c4f6"/></linearGradient><g id="Exp-7.-S"><g><path d="m141.96 266.667h-33.333c-5.894 0-11.546-2.342-15.714-6.509-4.167-4.168-6.508-9.82-6.508-15.714 0-17.475 0-38.888 0-38.888h-25.294c-1.822 0-3.528-.894-4.566-2.392-1.038-1.497-1.275-3.409-.636-5.115 7.464-19.759 27.239-72.266 29.79-80.594 13.927-45.465 56.259-78.566 106.261-78.566 61.324 0 111.111 49.787 111.111 111.111 0 28.154-10.494 55.047-27.778 75.899v90.768h-133.333z" fill="url(#_Linear1)"/><path d="m178.035 158.872-44.717-.01c-12.355-.588-22.207-10.806-22.207-23.306 0-12.878 10.455-23.334 23.333-23.334 1.462 0 2.893.135 4.28.393-.617-2.249-.946-4.616-.946-7.059 0-14.718 11.949-26.667 26.666-26.667 6.086 0 11.699 2.043 16.189 5.48 3.963-7.235 11.652-12.147 20.478-12.147 9.972 0 18.491 6.269 21.828 15.077 2.495-1.12 5.261-1.743 8.172-1.743 11.038 0 20 8.961 20 20 14.718 0 26.667 11.948 26.667 26.666 0 10.667-6.277 19.88-15.336 24.143 1.29 3.129 2.002 6.557 2.002 10.15 0 14.717-11.948 26.666-26.666 26.666-11.995 0-22.151-7.937-25.498-18.841-3.568 4.361-8.99 7.146-15.058 7.146-10.731 0-19.444-8.712-19.444-19.444 0-1.079.088-2.138.257-3.17z" fill="url(#_Linear2)"/></g></g></svg>