<svg clip-rule="evenodd" fill-rule="evenodd" height="512" stroke-linejoin="round" stroke-miterlimit="2" viewBox="0 0 356 356" width="512" xmlns="http://www.w3.org/2000/svg" xmlns:xlink="http://www.w3.org/1999/xlink"><linearGradient id="_Linear1" gradientTransform="matrix(0 188.163 -188.163 0 156.504 75.558)" gradientUnits="userSpaceOnUse" x1="0" x2="1" y1="0" y2="0"><stop offset="0" stop-color="#dde825"/><stop offset="1" stop-color="#c4cf00"/></linearGradient><linearGradient id="_Linear3" gradientTransform="matrix(0 49.198 -49.198 0 177.523 241.698)" gradientUnits="userSpaceOnUse" x1="0" x2="1" y1="0" y2="0"><stop offset="0" stop-color="#fed29d"/><stop offset="1" stop-color="#f4bd7a"/></linearGradient><g id="Exp-4.-S"><g><path d="m136.501 204.959c-9.927 10.909-39.923 15.168-56.272-5.297-16.047-20.087-13.373-46.576-41.34-64.864 0 0 62.455-27.489 97.397 9.005 18.014 18.815 15.557 44.297.215 61.156z" fill="url(#_Linear1)"/><path d="m56.933 152.79c9.724 9.937 17.081 21.281 29.232 28.821 22.258 13.81 49.096-.247 54.798-13.849 1.719-4.102 2.866-8.349 3.426-12.616 8.513 16.844 4.539 36.157-7.888 49.813-9.927 10.909-39.923 15.168-56.272-5.297-11.304-14.15-13.318-31.475-23.296-46.872z" fill="#c8cf1b"/><path d="m183.639 178.262c16.123 13.806 59.718 14.533 79.411-17.611 19.329-31.551 10.781-68.899 47.453-100.008 0 0-94.095-28.103-137.476 30.249-22.366 30.084-14.307 66.034 10.612 87.37z" fill="url(#_Linear1)"/><path d="m299.963 71.098c-20.607 21.124-24.5 48.133-43.81 68.251-24.999 26.044-65.635 16.446-77.895.233-7.847-10.377-12.476-22.507-13.284-34.834-11.518 26.678-2.519 55.376 18.665 73.514 16.123 13.806 59.718 14.533 79.411-17.611 17.206-28.086 12.322-60.767 36.913-89.553z" fill="#c8cf1b"/><path d="m155.593 249.615c-.852-53.855-40.32-87.62-67.893-101.226-2.75-1.357-6.083-.226-7.44 2.524-1.357 2.749-.226 6.083 2.523 7.44 24.954 12.314 60.929 42.698 61.701 91.438.048 3.066 2.577 5.515 5.643 5.467 3.065-.049 5.515-2.577 5.466-5.643z" fill="#c5cc1a"/><path d="m167.534 281.871-.235-.311c-1.902-2.577-11.456-16.187-11.706-31.945-.852-53.855-40.32-87.62-67.893-101.226-2.75-1.357-6.083-.226-7.44 2.524-1.357 2.749-.226 6.083 2.523 7.44 24.954 12.314 60.929 42.698 61.701 91.438.266 16.783 9.186 31.587 12.785 36.831 1.464 2.133 2.572 3.148 2.577 3.152 2.446 1.848 5.933 1.362 7.781-1.085 1.562-2.069 1.456-4.881-.093-6.818z" fill="#c8cf1b"/><path d="m167.43 288.934.027-.031c.062-.072.221-.26.399-.481 2.124-2.642 12.942-17.109 9.962-44.45-7.722-70.855 38.895-121.5 72.866-143.892 2.56-1.687 3.268-5.136 1.581-7.696s-5.136-3.268-7.696-1.581c-36.41 24-86.073 78.431-77.796 154.373 2.424 22.247-5.848 34.134-7.576 36.283-.168.209-.27.323-.288.345-3.4 4.127.729 7.814.937 7.97 2.362 1.784 5.695 1.392 7.584-.84z" fill="#c8cf1b"/><path d="m59.069 301.677s79.139-56.335 118.709-56.538c39.569-.202 118.198 56.538 118.198 56.538z" fill="url(#_Linear3)"/><path d="m229.46 261.385c33.825 16.702 66.516 40.292 66.516 40.292h-236.907s7.382-5.254 18.762-12.558h49.909c45.283 0 84.293-11.392 101.72-27.734z" fill="#f0ad67"/></g></g></svg>