<svg clip-rule="evenodd" fill-rule="evenodd" height="512" stroke-linejoin="round" stroke-miterlimit="2" viewBox="0 0 356 356" width="512" xmlns="http://www.w3.org/2000/svg" xmlns:xlink="http://www.w3.org/1999/xlink"><linearGradient id="lg1"><stop offset="0" stop-color="#ffd541"/><stop offset="1" stop-color="#ffa501"/></linearGradient><linearGradient id="_Linear1" gradientTransform="matrix(-4.605 32.958 -32.958 -4.605 280.345 259.141)" gradientUnits="userSpaceOnUse" x1="0" x2="1" xlink:href="#lg1" y1="0" y2="0"/><linearGradient id="_Linear2" gradientTransform="matrix(-56.679 235.989 -235.989 -56.679 234.457 39.878)" gradientUnits="userSpaceOnUse" x1="0" x2="1" y1="0" y2="0"><stop offset="0" stop-color="#cc85c3"/><stop offset="1" stop-color="#a55095"/></linearGradient><linearGradient id="_Linear3" gradientTransform="matrix(-139.58 144.455 -144.455 -139.58 202.72 25.436)" gradientUnits="userSpaceOnUse" x1="0" x2="1" xlink:href="#lg1" y1="0" y2="0"/><linearGradient id="_Linear4" gradientTransform="matrix(-126.615 277.708 -277.708 -126.615 199.617 44.248)" gradientUnits="userSpaceOnUse" x1="0" x2="1" y1="0" y2="0"><stop offset="0" stop-color="#60828f"/><stop offset="1" stop-color="#35525e"/></linearGradient><g id="Exp-3.-S"><g><path d="m305.503 286.238-24.021 6.638-2.066 22.802c-13.659-10.21-23.212-21.351-24.229-46.656 12.625-1.563 41.068-.392 50.316 17.216z" fill="url(#_Linear1)"/><path d="m94.766 48.466c1.475-3.373 4.711-5.641 8.386-5.876 25.589-1.569 124.878-6.926 132.567 3.91 22.993 32.407 26.241 170.545 26.687 215.354.063 3.243-1.482 6.307-4.128 8.184-2.645 1.877-6.048 2.324-9.088 1.193-42.147-15.22-171.46-63.912-194.454-96.319-8.648-12.189 29.868-103.031 40.03-126.446z" fill="url(#_Linear2)"/><path d="m53.52 170.426c-1.328-22.097 31.915-100.458 41.246-121.96 1.475-3.373 4.711-5.641 8.386-5.876 23.038-1.412 105.813-5.896 127.699 1.132l-.404.51c-41.895 53.34-138.474 118.993-174.029 125.66-.96.18-1.927.358-2.898.534z" fill="url(#_Linear3)"/><g fill="url(#_Linear4)"><path d="m53.818 169.925s-3.811 15.854 2.298 27.924c1.688 3.336 4.247 6.622 6.611 10.268 2.722 4.197 5.209 9.004 4.271 15.646-.429 3.037 1.688 5.85 4.724 6.279 3.036.428 5.849-1.688 6.278-4.724 1.172-8.294-1.006-14.732-4.145-20.283-2.552-4.513-5.852-8.304-7.826-12.204-4.42-8.734-1.429-20.224-1.429-20.224.74-2.975-1.074-5.992-4.05-6.732-2.975-.74-5.992 1.074-6.732 4.05z"/><path d="m227.804 55.741s5.501 1.654 10.84 4.167c2.958 1.392 5.965 2.938 7.41 4.77 3.04 3.856 3.602 8.476 4.382 13.021 1.094 6.37 2.414 12.658 6.762 18.032 1.928 2.384 5.429 2.754 7.813.826 2.384-1.929 2.754-5.43.825-7.814-3.086-3.814-3.672-8.403-4.449-12.925-1.09-6.348-2.361-12.631-6.608-18.019-1.775-2.252-4.815-4.493-8.307-6.385-6.873-3.722-15.47-6.314-15.47-6.314-2.937-.882-6.037.785-6.92 3.722-.882 2.936.785 6.037 3.722 6.919z"/><path d="m134.847 126.344c.369 49.375-23.716 114.839-80.763 172.382-2.158 2.178-2.143 5.698.034 7.857 2.178 2.159 5.698 2.143 7.857-.034 59.601-60.121 84.368-128.702 83.982-180.288-.023-3.066-2.531-5.537-5.597-5.514s-5.536 2.531-5.513 5.597z"/></g></g></g></svg>