<svg clip-rule="evenodd" fill-rule="evenodd" height="512" stroke-linejoin="round" stroke-miterlimit="2" viewBox="0 0 356 356" width="512" xmlns="http://www.w3.org/2000/svg" xmlns:xlink="http://www.w3.org/1999/xlink"><linearGradient id="_Linear1" gradientTransform="matrix(-82.416 171.557 -171.557 -82.416 220.923 92.707)" gradientUnits="userSpaceOnUse" x1="0" x2="1" y1="0" y2="0"><stop offset="0" stop-color="#47b4c2"/><stop offset="1" stop-color="#1c8290"/></linearGradient><linearGradient id="_Linear2" gradientTransform="matrix(-60.906 132.275 -132.275 -60.906 199.414 131.989)" gradientUnits="userSpaceOnUse" x1="0" x2="1" y1="0" y2="0"><stop offset="0" stop-color="#47b4c2"/><stop offset=".53" stop-color="#3da9b7"/><stop offset="1" stop-color="#1c8290"/></linearGradient><linearGradient id="_Linear3" gradientTransform="matrix(-69.414 143.596 -143.596 -69.414 207.921 120.668)" gradientUnits="userSpaceOnUse" x1="0" x2="1" y1="0" y2="0"><stop offset="0" stop-color="#47b4c2"/><stop offset=".54" stop-color="#3da9b7"/><stop offset="1" stop-color="#1c8290"/></linearGradient><linearGradient id="lg1"><stop offset="0" stop-color="#efe0e0"/><stop offset="1" stop-color="#d1c5c5"/></linearGradient><linearGradient id="_Linear4" gradientTransform="matrix(35.836 129.619 -129.619 35.836 253.158 22.149)" gradientUnits="userSpaceOnUse" x1="0" x2="1" xlink:href="#lg1" y1="0" y2="0"/><linearGradient id="lg2"><stop offset="0" stop-color="#efe0e0"/><stop offset=".54" stop-color="#e8dada"/><stop offset="1" stop-color="#d1c5c5"/></linearGradient><linearGradient id="_Linear5" gradientTransform="matrix(35.836 129.619 -129.619 35.836 253.158 22.149)" gradientUnits="userSpaceOnUse" x1="0" x2="1" xlink:href="#lg2" y1="0" y2="0"/><linearGradient id="_Linear6" gradientTransform="matrix(-5.899 119.861 -119.861 -5.899 91.877 212.995)" gradientUnits="userSpaceOnUse" x1="0" x2="1" xlink:href="#lg1" y1="0" y2="0"/><linearGradient id="_Linear7" gradientTransform="matrix(-5.899 119.861 -119.861 -5.899 91.877 212.995)" gradientUnits="userSpaceOnUse" x1="0" x2="1" y1="0" y2="0"><stop offset="0" stop-color="#efe0e0"/><stop offset=".31" stop-color="#ecdddd"/><stop offset=".63" stop-color="#e3d5d5"/><stop offset="1" stop-color="#d1c5c5"/></linearGradient><linearGradient id="_Linear8" gradientTransform="matrix(180.508 221.576 -221.576 180.508 18.227 -.411)" gradientUnits="userSpaceOnUse" x1="0" x2="1" y1="0" y2="0"><stop offset="0" stop-color="#efe0e0"/><stop offset=".52" stop-color="#d9cccc"/><stop offset="1" stop-color="#d1c5c5"/></linearGradient><linearGradient id="_Linear9" gradientTransform="matrix(163.734 227.566 -227.566 163.734 46.759 29.499)" gradientUnits="userSpaceOnUse" x1="0" x2="1" xlink:href="#lg2" y1="0" y2="0"/><linearGradient id="_Linear12" gradientTransform="matrix(67.779 151.028 -151.028 67.779 225.95 195.136)" gradientUnits="userSpaceOnUse" x1="0" x2="1" y1="0" y2="0"><stop offset="0" stop-color="#fed531"/><stop offset="1" stop-color="#f58c07"/></linearGradient><linearGradient id="_Linear13" gradientTransform="matrix(67.779 151.028 -151.028 67.779 225.95 195.136)" gradientUnits="userSpaceOnUse" x1="0" x2="1" y1="0" y2="0"><stop offset="0" stop-color="#fed531"/><stop offset=".52" stop-color="#fcc427"/><stop offset="1" stop-color="#f58c07"/></linearGradient><linearGradient id="_Linear14" gradientTransform="matrix(53.413 52.82 -52.82 53.413 243.206 242.688)" gradientUnits="userSpaceOnUse" x1="0" x2="1" y1="0" y2="0"><stop offset="0" stop-color="#fe9b31"/><stop offset="1" stop-color="#f9591b"/></linearGradient><g id="Exp-4.-S"><g><path d="m260.39 132.369-37.679-37.679-128.794 128.794 37.679 37.68z" fill="url(#_Linear1)"/><path d="m172.531 220.229-37.679-37.68-20.602 20.602c20.717 3.155 33.736 15.186 37.679 37.68z" fill="url(#_Linear2)"/><path d="m241.906 150.854c-21.49-5.7-33.674-18.549-37.68-37.679l-20.388 20.388 37.679 37.679z" fill="url(#_Linear3)"/><path d="m323.293 66.167s6.204 23.155 9.259 34.558c1.028 3.834-.069 7.926-2.875 10.733-7.977 7.976-24.422 24.421-32.398 32.397-2.807 2.807-6.898 3.903-10.733 2.876-11.134-2.983-34.717-9.302-49.279-13.204-7.669-2.055-13.658-8.045-15.713-15.714-3.902-14.561-10.221-38.145-13.205-49.279-1.027-3.834.069-7.925 2.876-10.732l32.398-32.398c2.807-2.807 6.898-3.903 10.732-2.876 11.404 3.056 34.558 9.26 34.558 9.26s-22.93 22.93-32.897 32.897c-2.807 2.807-3.904 6.899-2.876 10.733 1.181 4.41 2.763 10.311 3.944 14.721 1.028 3.835 4.023 6.83 7.857 7.857 4.41 1.182 10.311 2.763 14.722 3.945 3.834 1.027 7.925-.069 10.732-2.876 9.967-9.967 32.898-32.898 32.898-32.898z" fill="url(#_Linear4)"/><path d="m218.007 51.02 25.616-25.616c2.807-2.807 6.898-3.903 10.732-2.876 11.404 3.056 34.558 9.26 34.558 9.26s-22.93 22.93-32.897 32.897c-2.807 2.807-3.904 6.899-2.876 10.733 1.181 4.41 2.763 10.311 3.944 14.721 1.028 3.835 4.023 6.83 7.857 7.857 4.41 1.182 10.311 2.763 14.722 3.945 3.834 1.027 7.925-.069 10.732-2.876l31.155-31.155 4.387 16.375c1.028 3.834-.069 7.926-2.875 10.732-6.819 6.819-19.637 19.637-26.456 26.456-2.807 2.807-6.898 3.903-10.733 2.876-9.388-2.516-27.407-7.344-39.555-10.599-7.668-2.054-13.658-8.044-15.713-15.713z" fill="url(#_Linear5)"/><path d="m66.243 323.217s23.154 6.205 34.557 9.26c3.835 1.028 7.926-.069 10.733-2.876l32.397-32.397c2.807-2.807 3.904-6.898 2.876-10.733-2.983-11.134-9.302-34.717-13.204-49.279-2.055-7.669-8.045-13.659-15.714-15.713-14.561-3.902-38.145-10.221-49.279-13.205-3.834-1.027-7.925.069-10.732 2.876-7.976 7.976-24.422 24.422-32.398 32.398-2.807 2.807-3.903 6.898-2.876 10.732 3.056 11.403 9.26 34.558 9.26 34.558s22.93-22.93 32.897-32.898c2.807-2.807 6.899-3.903 10.733-2.875 4.41 1.181 10.311 2.762 14.722 3.944 3.834 1.028 6.829 4.023 7.856 7.857 1.182 4.41 2.763 10.311 3.945 14.721 1.027 3.835-.069 7.926-2.876 10.733-9.967 9.967-32.897 32.897-32.897 32.897z" fill="url(#_Linear6)"/><path d="m57.877 211.15-21.884 21.883 10.85 40.897 17.917-17.99c2.807-2.807 6.899-3.903 10.733-2.875 4.41 1.181 10.311 2.762 14.722 3.944 3.834 1.028 6.829 4.023 7.856 7.857 1.182 4.41 2.763 10.311 3.945 14.721 1.027 3.835-.069 7.926-2.876 10.733l-18.797 18.797 12.752 3.417c3.835 1.028 7.926-.069 10.733-2.875 7.976-7.977 24.421-24.422 32.398-32.398 2.806-2.807 3.903-6.898 2.875-10.733l-10.24-38.217c-2.852-3.26-6.645-5.673-10.973-6.832-14.561-3.902-38.145-10.221-49.279-13.205-3.834-1.027-7.925.069-10.732 2.876z" fill="url(#_Linear7)"/><path d="m88.149 65.602-22.189 22.189 132.774 132.774 22.189-22.189z" fill="url(#_Linear8)"/><path d="m88.149 65.602-10.294 10.326 143.068 122.448z" fill="url(#_Linear9)"/><path d="m65.96 87.791-20.605-3.4-15.361-41.169 13.586-13.586 41.17 15.36 3.399 20.606z" fill="url(#_Linear8)"/><path d="m77.855 75.896-47.861-32.674 13.586-13.586 41.17 15.36 3.399 20.606z" fill="url(#_Linear9)"/><path d="m252.596 200.228c-10.594 4.807-21.152 4.264-31.673-1.852l-22.189 22.189c5.967 8.566 6.658 19.096 1.853 31.672 0 0 42.035 42.036 69.667 69.668 13.037 13.037 34.174 13.037 47.21 0 1.596-1.596 3.204-3.203 4.8-4.799 13.036-13.037 13.036-34.173-.001-47.21-27.632-27.633-69.667-69.668-69.667-69.668z" fill="url(#_Linear12)"/><path d="m203.448 232.431 64.904 64.904c13.037 13.037 34.173 13.037 47.21 0 .348-.347.695-.695 1.043-1.043 5.982-5.982 9.219-13.67 9.711-21.496-1.171-1.728-2.522-3.37-4.053-4.9-27.632-27.633-69.667-69.668-69.667-69.668-10.594 4.807-21.152 4.264-31.673-1.852l-22.189 22.189c2.512 3.605 4.088 7.559 4.714 11.866z" fill="url(#_Linear13)"/><g fill="url(#_Linear14)"><path d="m233.422 256.844 50.475 50.475c1.626 1.626 4.267 1.626 5.893 0s1.626-4.267 0-5.893l-50.475-50.475c-1.626-1.626-4.266-1.626-5.893 0-1.626 1.627-1.626 4.267 0 5.893z"/><path d="m251.31 238.956 50.475 50.475c1.626 1.626 4.266 1.626 5.892 0s1.626-4.266 0-5.892l-50.474-50.475c-1.627-1.626-4.267-1.626-5.893 0s-1.626 4.266 0 5.892z"/></g></g></g></svg>