<svg clip-rule="evenodd" fill-rule="evenodd" height="512" stroke-linejoin="round" stroke-miterlimit="2" viewBox="0 0 356 356" width="512" xmlns="http://www.w3.org/2000/svg" xmlns:xlink="http://www.w3.org/1999/xlink"><linearGradient id="_Linear1" gradientTransform="matrix(0 153.306 -77.547 0 177.479 153.271)" gradientUnits="userSpaceOnUse" x1="0" x2="1" y1="0" y2="0"><stop offset="0" stop-color="#ffe949"/><stop offset="1" stop-color="#ffac16"/></linearGradient><linearGradient id="lg1"><stop offset="0" stop-color="#ffd541"/><stop offset="1" stop-color="#ffa501"/></linearGradient><linearGradient id="_Linear2" gradientTransform="matrix(71.714 185.736 -185.736 71.714 129.204 116.847)" gradientUnits="userSpaceOnUse" x1="0" x2="1" xlink:href="#lg1" y1="0" y2="0"/><linearGradient id="_Linear3" gradientTransform="matrix(0 106.74 -106.74 0 177.479 66.215)" gradientUnits="userSpaceOnUse" x1="0" x2="1" y1="0" y2="0"><stop offset="0" stop-color="#ffe949"/><stop offset="1" stop-color="#ffc416"/></linearGradient><linearGradient id="_Linear4" gradientTransform="matrix(70.303 74.143 -74.143 70.303 136.632 90.253)" gradientUnits="userSpaceOnUse" x1="0" x2="1" xlink:href="#lg1" y1="0" y2="0"/><linearGradient id="lg2"><stop offset="0" stop-color="#ffa01e"/><stop offset="1" stop-color="#ee6e0a"/></linearGradient><linearGradient id="_Linear5" gradientTransform="matrix(59.935 27.192 -15.702 103.789 150.008 124.958)" gradientUnits="userSpaceOnUse" x1="0" x2="1" xlink:href="#lg2" y1="0" y2="-.171"/><linearGradient id="_Linear6" gradientTransform="matrix(118.249 30.98 -30.98 118.249 123.28 302.944)" gradientUnits="userSpaceOnUse" x1="0" x2="1" xlink:href="#lg2" y1="0" y2="0"/><linearGradient id="_Linear7" gradientTransform="matrix(9.828 104.321 -104.321 9.828 167.651 207.205)" gradientUnits="userSpaceOnUse" x1="0" x2="1" xlink:href="#lg2" y1="0" y2="0"/><linearGradient id="_Linear8" gradientTransform="matrix(49.36 54.934 -54.934 49.36 152.483 22.222)" gradientUnits="userSpaceOnUse" x1="0" x2="1" xlink:href="#lg1" y1="0" y2="0"/><g id="Exp-4.-S"><g><path d="m213.943 306.577s3.33-53.077 5.68-88.962c2.412-36.824.368-51.396-8.572-59.529-10.68-9.714-56.465-9.714-67.144 0-8.94 8.133-10.984 22.705-8.572 59.529 2.35 35.885 5.68 88.962 5.68 88.962l36.464 16.667z" fill="url(#_Linear1)"/><path d="m202.412 306.577s2.277-53.077 3.884-88.962c1.649-36.824.252-51.396-5.862-59.529-7.302-9.714-38.608-9.714-45.911 0-6.113 8.133-7.51 22.705-5.861 59.529 1.607 35.885 3.884 88.962 3.884 88.962z" fill="url(#_Linear2)"/><path d="m156.624 169.699c13.564 4.341 28.145 4.341 41.71 0 5.233-1.674 10.566-3.381 14.833-4.746 5.509-1.763 9.888-5.983 11.854-11.422 2.913-8.06 7.301-20.204 10.644-29.453 2.802-7.755.179-16.429-6.451-21.331-18.078-13.367-51.735-38.252-51.735-38.252s-33.658 24.885-51.735 38.252c-6.63 4.902-9.254 13.576-6.451 21.331 3.342 9.249 7.731 21.393 10.644 29.453 1.966 5.439 6.345 9.659 11.854 11.422 4.267 1.365 9.6 3.072 14.833 4.746z" fill="url(#_Linear3)"/><path d="m139.585 164.089c.711.332 1.448.621 2.206.864 4.267 1.365 9.6 3.072 14.833 4.746 13.564 4.341 28.145 4.341 41.71 0 5.233-1.674 10.566-3.381 14.833-4.746.758-.243 1.495-.532 2.206-.864.309-.701.58-1.43.811-2.183 2.371-7.748 5.944-19.422 8.665-28.314 2.282-7.455.146-15.794-5.252-20.506-9.142-7.982-23.178-20.237-32.5-28.376-5.51-4.811-13.726-4.811-19.236 0-9.322 8.139-23.358 20.394-32.5 28.376-5.398 4.712-7.534 13.051-5.252 20.506 2.721 8.892 6.294 20.566 8.665 28.314.23.753.502 1.482.811 2.183z" fill="url(#_Linear4)"/><path d="m144.042 133.547c2.059 6.654 6.728 11.741 12.498 13.898.623.233 1.269.474 1.929.721 12.364 4.621 25.655 4.621 38.02 0 .66-.247 1.306-.488 1.929-.721 5.77-2.157 10.439-7.244 12.498-13.898.68-2.197-.552-4.533-2.749-5.213-2.197-.679-4.532.552-5.212 2.749-1.25 4.04-3.951 7.247-7.454 8.556l-1.929.721c-10.467 3.912-21.719 3.912-32.186 0l-1.929-.721c-3.503-1.309-6.204-4.516-7.454-8.556-.68-2.197-3.015-3.428-5.212-2.749-2.197.68-3.429 3.016-2.749 5.213z" fill="url(#_Linear5)"/><path d="m236.598 318.873c-3.762-7.535-11.46-12.296-19.882-12.296-20.319 0-58.156 0-78.474 0-8.422 0-16.12 4.761-19.882 12.296-3.51 7.029-7.22 14.46-7.22 14.46h132.678s-3.71-7.431-7.22-14.46z" fill="url(#_Linear6)"/><path d="m181.646 306.577v-91.752c0-2.299-1.867-4.166-4.167-4.166s-4.167 1.867-4.167 4.166v91.752c0 2.3 1.867 4.167 4.167 4.167s4.167-1.867 4.167-4.167z" fill="url(#_Linear7)"/><circle cx="177.479" cy="51.679" fill="url(#_Linear8)" r="29.457"/></g></g></svg>