<svg clip-rule="evenodd" fill-rule="evenodd" height="512" stroke-linejoin="round" stroke-miterlimit="2" viewBox="0 0 267 267" width="512" xmlns="http://www.w3.org/2000/svg" xmlns:xlink="http://www.w3.org/1999/xlink"><linearGradient id="_Linear1" gradientTransform="matrix(0 49.745 -49.745 0 137.5 216.922)" gradientUnits="userSpaceOnUse" x1="0" x2="1" y1="0" y2="0"><stop offset="0" stop-color="#60828f"/><stop offset="1" stop-color="#a1beca"/></linearGradient><linearGradient id="_Linear2" gradientTransform="matrix(0 191.667 -191.667 0 112.5 58.333)" gradientUnits="userSpaceOnUse" x1="0" x2="1" y1="0" y2="0"><stop offset="0" stop-color="#cfe1ee"/><stop offset="1" stop-color="#97b7ce"/></linearGradient><linearGradient id="_Linear3" gradientTransform="matrix(0 295.833 -295.833 0 119.3 104.167)" gradientUnits="userSpaceOnUse" x1="0" x2="1" y1="0" y2="0"><stop offset="0" stop-color="#dceaf3"/><stop offset="1" stop-color="#97b7ce"/></linearGradient><linearGradient id="lg1"><stop offset="0" stop-color="#ffd541"/><stop offset="1" stop-color="#ffa501"/></linearGradient><linearGradient id="_Linear4" gradientTransform="matrix(30.386 0 0 37.121 16.667 153.664)" gradientUnits="userSpaceOnUse" x1="0" x2="1" xlink:href="#lg1" y1="0" y2="0"/><linearGradient id="lg2"><stop offset="0" stop-color="#ffa501"/><stop offset="1" stop-color="#ffd541"/></linearGradient><linearGradient id="_Linear5" gradientTransform="matrix(30.386 0 0 37.121 219.614 137.755)" gradientUnits="userSpaceOnUse" x1="0" x2="1" xlink:href="#lg2" y1="0" y2="0"/><linearGradient id="_Linear6" gradientTransform="matrix(71.803 0 0 19.805 37.879 183.534)" gradientUnits="userSpaceOnUse" x1="0" x2="1" xlink:href="#lg1" y1="0" y2="0"/><linearGradient id="_Linear7" gradientTransform="matrix(41.881 0 0 11.552 186.907 183.534)" gradientUnits="userSpaceOnUse" x1="0" x2="1" xlink:href="#lg2" y1="0" y2="0"/><linearGradient id="_Linear8" gradientTransform="matrix(142.377 0 0 47.727 62.266 121.846)" gradientUnits="userSpaceOnUse" x1="0" x2="1" y1="0" y2="0"><stop offset="0" stop-color="#a1beca"/><stop offset="1" stop-color="#60828f"/></linearGradient><radialGradient id="_Radial9" cx="0" cy="0" gradientTransform="matrix(0 -62.5 62.5 0 133.333 66.667)" gradientUnits="userSpaceOnUse" r="1"><stop offset="0" stop-color="#445f83"/><stop offset="1" stop-color="#79889d"/></radialGradient><g id="Exp-4.-S"><g><g fill-rule="nonzero"><path d="m250 211.495v24.366c0 5.833-4.773 10.606-10.606 10.606h-21.212c-5.833 0-10.606-4.773-10.606-10.606v-14.773h-148.485v14.773c0 5.833-4.772 10.606-10.606 10.606h-21.212c-5.833 0-10.606-4.773-10.606-10.606v-24.366z" fill="url(#_Linear1)"/><path d="m250 182.831v42.424h-233.333v-42.424s0-21.902 19.887-25.879c.689-.159 1.325-.371 1.962-.636 3.128-1.326 5.409-4.243 6.045-7.69l2.492-13.522 5.77-31.32c2.318-12.579 13.284-21.71 26.075-21.71h108.871c12.791 0 23.758 9.131 26.075 21.71l5.77 31.32 2.492 13.575c.636 3.447 2.917 6.311 6.046 7.637.636.265 1.272.477 1.962.636 19.886 3.977 19.886 25.879 19.886 25.879z" fill="url(#_Linear2)"/><path d="m241.667 182.831v34.091h-225v-34.091s0-21.902 19.887-25.879c.689-.159 1.325-.371 1.962-.636 3.128-1.326 5.409-4.243 6.045-7.69l2.492-13.522 5.77-31.32c2.318-12.579 13.284-21.71 26.075-21.71h100.538c12.791 0 23.757 9.131 26.075 21.71l5.769 31.32 2.493 13.575c.636 3.447 2.916 6.311 6.045 7.637.637.265 1.273.477 1.962.636 19.887 3.977 19.887 25.879 19.887 25.879z" fill="url(#_Linear3)"/><path d="m47.053 135.104-2.492 13.522c-.637 3.447-2.917 6.364-6.046 7.69h-16.545c-2.917 0-5.303-2.387-5.303-5.303 0-4.402 1.803-8.379 4.666-11.243 2.864-2.863 6.841-4.666 11.243-4.666z" fill="url(#_Linear4)"/><path d="m250 151.013c0 2.916-2.386 5.303-5.303 5.303h-16.545c-3.129-1.326-5.41-4.19-6.046-7.637l-2.492-13.575h14.477c4.401 0 8.379 1.803 11.242 4.666 2.864 2.864 4.667 6.841 4.667 11.243z" fill="url(#_Linear5)"/><path d="m73.781 193.437h-26.728c-5.064 0-9.174-4.11-9.174-9.174v-.021c0-6.38 5.59-11.317 11.921-10.527l21.213 2.652c5.308.662 9.29 5.175 9.29 10.526v.021c0 3.601-2.922 6.523-6.522 6.523z" fill="url(#_Linear6)"/><path d="m192.886 193.437h26.728c5.064 0 9.174-4.11 9.174-9.174v-.021c0-6.38-5.589-11.317-11.921-10.527l-21.212 2.652c-5.309.662-9.291 5.175-9.291 10.526v.021c0 3.601 2.922 6.523 6.522 6.523z" fill="url(#_Linear7)"/><path d="m199.337 145.71h-131.765c-3.303 0-5.801-2.981-5.223-6.226l5.796-32.746c.896-5.064 5.303-8.755 10.447-8.755h109.534c5.123 0 9.514 3.659 10.436 8.697l5.993 32.772c.594 3.256-1.909 6.258-5.218 6.258z" fill="url(#_Linear8)"/></g><path d="m120.671 97.983h-13.861l-14.38 47.727h13.862z" fill="#a2bcc6"/><path d="m162.145 97.983h-28.465l-14.38 47.727h28.465z" fill="#a2bcc6"/><path d="m110.863 31.589c12.408-12.408 32.531-12.408 44.939 0 2.439 2.439 6.4 2.439 8.839 0 2.439-2.44 2.439-6.4 0-8.839-17.289-17.289-45.328-17.289-62.617 0-2.439 2.439-2.439 6.399 0 8.839 2.439 2.439 6.4 2.439 8.839 0z" fill="url(#_Radial9)"/><path d="m124.306 48.78c4.985-4.984 13.067-4.983 18.055.002 2.44 2.438 6.4 2.437 8.838-.003 2.439-2.44 2.437-6.401-.003-8.839-9.871-9.864-25.865-9.863-35.729.001-2.439 2.44-2.439 6.4 0 8.839s6.4 2.439 8.839 0z" fill="url(#_Radial9)"/><path d="m133.334 68.484c-3.46 0-6.25-2.804-6.25-6.25 0-3.459 2.79-6.25 6.25-6.25 3.459 0 6.25 2.791 6.25 6.25 0 3.446-2.791 6.25-6.25 6.25" fill="url(#_Radial9)" fill-rule="nonzero"/></g></g></svg>