<svg width="256" height="256" viewBox="0 0 256 256" fill="none" xmlns="http://www.w3.org/2000/svg">
<circle cx="128" cy="128" r="128" fill="#F7F8FD"/>
<circle cx="128" cy="127.772" r="80" fill="#00C48C"/>
<path d="M105.5 79.1481H104.69V57.3603C104.69 55.7043 104.358 54.0645 103.713 52.5346C103.067 51.0046 102.121 49.6145 100.929 48.4435C99.7365 47.2725 98.3208 46.3437 96.7628 45.71C95.2048 45.0762 93.535 44.7501 91.8486 44.7501H44.8415C41.4357 44.7501 38.1694 46.0786 35.7612 48.4435C33.353 50.8083 32 54.0158 32 57.3602V176.89C32 178.546 32.3322 180.186 32.9775 181.716C33.6228 183.246 34.5687 184.636 35.7612 185.807C36.9536 186.978 38.3693 187.906 39.9273 188.54C41.4853 189.174 43.1551 189.5 44.8415 189.5H91.8485C95.2543 189.5 98.5206 188.172 100.929 185.807C103.337 183.442 104.69 180.234 104.69 176.89V94.657H105.5V79.1481Z" fill="#333333"/>
<path d="M91.5781 48.5001H85.5496C85.8268 49.1712 85.9326 49.8992 85.8577 50.6202C85.7828 51.3411 85.5295 52.0328 85.12 52.6343C84.7106 53.2358 84.1576 53.7287 83.5098 54.0695C82.8619 54.4103 82.1392 54.5886 81.4051 54.5886H54.947C54.213 54.5886 53.4902 54.4103 52.8424 54.0695C52.1945 53.7287 51.6415 53.2358 51.2321 52.6343C50.8226 52.0328 50.5693 51.3411 50.4944 50.6202C50.4195 49.8992 50.5253 49.1712 50.8026 48.5001H45.1719C43.9346 48.5001 42.7094 48.7407 41.5663 49.2082C40.4232 49.6757 39.3845 50.3609 38.5096 51.2246C37.6347 52.0884 36.9407 53.1139 36.4672 54.2424C35.9937 55.371 35.75 56.5806 35.75 57.8022V175.698C35.75 176.92 35.9937 178.129 36.4672 179.258C36.9407 180.386 37.6347 181.412 38.5096 182.276C39.3845 183.139 40.4232 183.825 41.5663 184.292C42.7094 184.76 43.9346 185 45.1719 185H91.5781C92.8154 185 94.0406 184.76 95.1837 184.292C96.3268 183.825 97.3655 183.139 98.2404 182.276C99.1153 181.412 99.8093 180.386 100.283 179.258C100.756 178.129 101 176.92 101 175.698V57.8022C101 56.5806 100.756 55.371 100.283 54.2424C99.8093 53.1139 99.1153 52.0884 98.2404 51.2246C97.3655 50.3609 96.3268 49.6757 95.1837 49.2082C94.0406 48.7407 92.8154 48.5001 91.5781 48.5001Z" fill="white"/>
<path d="M40.3794 62.5404C40.3794 60.7002 41.9086 59.2084 43.7949 59.2084H92.4658C94.3521 59.2084 95.8813 60.7002 95.8813 62.5404V62.6263C95.8813 64.4666 94.3521 65.9584 92.4658 65.9584H43.7949C41.9086 65.9584 40.3794 64.4666 40.3794 62.6264V62.5404Z" fill="#0084F4"/>
<path d="M40.3774 74.3838C40.3774 72.515 41.9066 71.0001 43.7929 71.0001H92.4638C94.3502 71.0001 95.8793 72.515 95.8793 74.3838V85.6163C95.8793 87.4851 94.3502 89.0001 92.4638 89.0001H43.7929C41.9066 89.0001 40.3774 87.4851 40.3774 85.6164V74.3838Z" fill="#0084F4"/>
<path d="M53.7619 83.0001C55.4254 83.0001 56.7739 81.6569 56.7739 80.0001C56.7739 78.3432 55.4254 77.0001 53.7619 77.0001C52.0985 77.0001 50.75 78.3432 50.75 80.0001C50.75 81.6569 52.0985 83.0001 53.7619 83.0001Z" fill="#AFDAFF"/>
<path d="M63.5119 83.0001C65.1754 83.0001 66.5239 81.6569 66.5239 80.0001C66.5239 78.3432 65.1754 77.0001 63.5119 77.0001C61.8485 77.0001 60.5 78.3432 60.5 80.0001C60.5 81.6569 61.8485 83.0001 63.5119 83.0001Z" fill="#AFDAFF"/>
<path d="M73.2619 83.0001C74.9254 83.0001 76.2739 81.6569 76.2739 80.0001C76.2739 78.3432 74.9254 77.0001 73.2619 77.0001C71.5985 77.0001 70.25 78.3432 70.25 80.0001C70.25 81.6569 71.5985 83.0001 73.2619 83.0001Z" fill="#AFDAFF"/>
<path d="M83.0119 83.0001C84.6754 83.0001 86.0239 81.6569 86.0239 80.0001C86.0239 78.3432 84.6754 77.0001 83.0119 77.0001C81.3485 77.0001 80 78.3432 80 80.0001C80 81.6569 81.3485 83.0001 83.0119 83.0001Z" fill="#AFDAFF"/>
<path d="M66.4224 154.893H74.1073C75.0505 154.893 75.8151 155.654 75.8151 156.594C75.8151 167.922 60.4453 167.922 60.4453 156.594C60.4453 155.654 61.2099 154.893 62.1531 154.893H63.8608V152.341C63.8597 151.287 64.2521 150.269 64.9618 149.487C65.6714 148.704 66.6477 148.212 67.7011 148.106C68.7545 148 69.8099 148.288 70.6623 148.913C71.5148 149.539 72.1035 150.457 72.3142 151.491" stroke="#0084F4" stroke-linecap="round" stroke-linejoin="round"/>
<path d="M158.26 58.2094C160.913 58.2094 163.063 56.0676 163.063 53.4255C163.063 50.7834 160.913 48.6416 158.26 48.6416C155.607 48.6416 153.457 50.7834 153.457 53.4255C153.457 56.0676 155.607 58.2094 158.26 58.2094Z" fill="#E8E8EB"/>
<path d="M119.732 119.229C121.349 119.229 122.66 117.924 122.66 116.313C122.66 114.702 121.349 113.396 119.732 113.396C118.115 113.396 116.804 114.702 116.804 116.313C116.804 117.924 118.115 119.229 119.732 119.229Z" fill="#E8E8EB"/>
<path d="M134.588 180.58C136.206 180.58 137.517 179.274 137.517 177.663C137.517 176.053 136.206 174.747 134.588 174.747C132.971 174.747 131.66 176.053 131.66 177.663C131.66 179.274 132.971 180.58 134.588 180.58Z" fill="#E8E8EB"/>
<path d="M210.412 66.8944C210.412 66.8944 205.597 62.5772 199.121 70.7135C192.646 78.8497 182.517 82.8348 180.192 85.9897C180.192 85.9897 189.823 82.0046 193.144 80.3441C196.465 78.6837 196.299 79.0158 196.299 79.0158C196.299 79.0158 191.815 82.1706 190.985 85.3255C190.155 88.4804 190.819 91.1371 189.325 94.292C187.83 97.4469 217.885 96.4506 217.885 96.4506C217.885 96.4506 220.873 91.3032 220.043 85.9897C219.213 80.6762 219.711 67.5586 210.412 66.8944Z" fill="#333333"/>
<path d="M201.305 80.4759C201.305 80.4759 202.352 87.8055 197.864 89.451C193.377 91.0964 195.022 93.3401 195.022 93.3401L201.753 96.631L208.933 94.3872L211.327 90.7972C211.327 90.7972 207.438 89.8997 208.485 87.2072C209.532 84.5147 209.831 83.6172 209.831 83.6172L201.305 80.4759Z" fill="#FFD260"/>
<path d="M220.152 101.418C220.152 101.418 219.105 115.179 219.404 115.778C219.703 116.376 219.404 137.168 219.404 137.168C219.404 137.168 221.498 148.387 218.806 148.985C216.113 149.584 216.712 136.42 216.712 136.42L214.019 119.069L214.318 101.866L220.152 101.418Z" fill="#FFD260"/>
<path opacity="0.1" d="M220.152 101.418C220.152 101.418 219.105 115.179 219.404 115.778C219.703 116.376 219.404 137.168 219.404 137.168C219.404 137.168 221.498 148.387 218.806 148.985C216.113 149.584 216.712 136.42 216.712 136.42L214.019 119.069L214.318 101.866L220.152 101.418Z" fill="#333333"/>
<path d="M190.983 142.852C190.983 142.852 186.047 161.55 186.197 170.675C186.346 179.8 188.291 192.514 188.291 192.514C188.291 192.514 188.59 198.049 188.141 198.647C187.693 199.246 190.385 201.788 190.385 201.788L193.227 200.143L194.274 198.946V197.899C194.274 197.899 192.629 192.813 193.975 188.775C195.321 184.736 196.069 174.564 194.723 171.423L203.997 143.9L190.983 142.852Z" fill="#FFD260"/>
<path d="M190.684 199.395C190.684 199.395 188.889 197.151 187.693 197.899C186.496 198.647 184.551 203.733 184.551 203.733C184.551 203.733 177.82 210.165 182.607 210.464C187.393 210.764 189.488 209.118 190.086 207.921C190.684 206.725 196.219 203.583 196.219 203.583C196.219 203.583 195.621 197.899 194.723 197.75C193.826 197.6 192.479 199.993 192.479 199.993L190.684 199.395Z" fill="#333333"/>
<path d="M207.288 144.049V162.598C207.305 164.848 207.455 167.096 207.737 169.329C208.186 172.62 205.194 197.151 205.194 197.151L205.493 201.489L209.233 201.19L209.681 197.451L215.066 180.996C215.066 180.996 216.861 170.974 215.964 167.235C215.066 163.495 220.601 139.562 220.601 139.562L207.288 144.049Z" fill="#FFD260"/>
<path d="M204.296 200.442L205.404 200.201C205.404 200.201 206.241 198.348 207.288 198.797C208.025 199.137 208.723 199.555 209.37 200.044L209.831 200.891C209.831 200.891 210.878 203.135 212.224 204.631C213.571 206.126 215.066 209.417 212.823 209.716C210.579 210.016 207.587 210.165 206.69 209.417C205.792 208.669 206.391 207.473 205.493 207.173C204.596 206.874 203.848 205.977 203.997 205.678C204.147 205.378 204.296 200.442 204.296 200.442Z" fill="#333333"/>
<path d="M207.288 85.6281C210.96 85.6281 213.936 82.6517 213.936 78.9801C213.936 75.3084 210.96 72.332 207.288 72.332C203.616 72.332 200.64 75.3084 200.64 78.9801C200.64 82.6517 203.616 85.6281 207.288 85.6281Z" fill="#FFD260"/>
<path d="M194.723 90.6476L196.699 89.9578C196.699 89.9578 195.92 91.246 200.108 91.9939C204.297 92.7418 208.634 93.0066 210.579 90.5557C210.579 90.5557 211.327 90.1989 212.374 91.246C213.421 92.2931 214.019 91.9939 214.019 91.9939L213.272 95.8831L211.776 103.063L209.831 108.448L204.297 107.251L198.313 102.914L196.069 97.0797V91.6947L194.723 90.6476Z" fill="#0084F4"/>
<path d="M212.972 92.7418L214.468 91.6947C214.468 91.6947 219.554 92.5922 219.853 94.9856L215.964 102.465C216.757 104.546 216.704 106.855 215.814 108.897C214.319 112.337 214.468 113.085 214.468 113.085L213.421 117.573L194.424 119.069C194.424 119.069 193.676 117.274 193.377 116.974C193.078 116.675 193.078 115.628 193.377 115.628C193.676 115.628 193.377 115.179 193.078 114.731C192.779 114.282 192.629 114.132 193.078 113.534C193.526 112.936 192.33 107.551 192.33 107.551V101.717L187.244 94.9856C187.244 94.9856 189.039 92.2931 189.936 91.9939C190.834 91.6947 195.103 90.5149 195.103 90.5149L196.069 91.9373L197.416 102.764L199.36 109.346L207.548 107.954L210.729 102.614L212.823 96.3318L212.972 92.7418Z" fill="#0084F4"/>
<path d="M218.656 94.0881L219.853 94.9856C219.853 94.9856 220.9 103.362 220.601 103.961C220.302 104.559 215.066 105.157 214.917 104.858C214.767 104.559 218.656 94.0881 218.656 94.0881Z" fill="#0084F4"/>
<path d="M193.975 89.8997L195.471 99.7722C195.471 99.7722 194.125 114.431 194.424 117.423L194.723 118.321C194.723 118.321 194.125 118.021 193.975 118.62C193.825 119.218 193.975 121.163 193.975 121.163C193.975 121.163 193.078 122.06 192.778 126.996C192.479 131.933 188.889 143.75 190.235 144.199C191.582 144.647 199.659 146.891 203.997 146.442C208.335 145.994 223.892 140.758 223.742 139.412C223.593 138.066 216.113 119.069 216.113 119.069C216.113 119.069 214.767 116.825 214.767 116.526C214.767 116.226 216.562 115.03 216.114 113.833C215.665 112.636 213.271 100.071 213.271 100.071L214.917 91.0963L212.673 90.498L211.028 99.1739C211.028 99.1739 204.596 102.315 197.864 99.473L196.368 89.3013L193.975 89.8997Z" fill="#333333"/>
<path d="M201.172 74.209C201.172 74.209 212.241 81.8377 215.233 78.3973C218.225 74.9569 209.998 71.9652 209.998 71.9652L203.117 71.2173L201.172 74.209Z" fill="#333333"/>
<path d="M183.973 155.364C185.113 156.212 186.522 156.615 187.938 156.499C189.353 156.382 190.678 155.753 191.662 154.729C192.647 153.706 193.225 152.359 193.288 150.94C193.35 149.521 192.893 148.128 192.002 147.022C191.111 145.916 189.847 145.172 188.447 144.932C187.048 144.691 185.608 144.969 184.398 145.713C183.189 146.458 182.293 147.618 181.877 148.976C181.462 150.335 181.556 151.798 182.143 153.092L166.876 165.803L164.843 163.39L163.93 164.001L162.914 162.795L163.749 162.091L162.732 160.885L161.433 161.98L162.059 162.722L160.667 163.895L160.041 163.152L158 164.872L158.938 165.986L159.68 165.36L160.697 166.567L159.769 167.348L161.645 169.575L159.418 171.452L161.686 174.143L183.973 155.364ZM187.785 146.837C188.546 146.902 189.27 147.191 189.867 147.668C190.463 148.145 190.905 148.787 191.136 149.515C191.367 150.243 191.377 151.023 191.165 151.757C190.953 152.49 190.528 153.144 189.944 153.636C189.36 154.128 188.643 154.436 187.884 154.521C187.126 154.605 186.359 154.463 185.681 154.112C185.003 153.761 184.444 153.216 184.075 152.548C183.707 151.879 183.544 151.116 183.609 150.355C183.697 149.335 184.186 148.391 184.969 147.731C185.752 147.071 186.765 146.75 187.785 146.837Z" fill="#FF647C"/>
<path d="M186.197 103.213C186.197 103.213 187.244 116.974 186.945 117.573C186.645 118.171 186.945 138.963 186.945 138.963C186.945 138.963 184.85 150.182 187.543 150.78C190.235 151.379 189.637 138.215 189.637 138.215L192.33 120.864L192.03 103.661L186.197 103.213Z" fill="#FFD260"/>
<path d="M188.44 94.5368L187.244 94.9856C187.244 94.9856 185 104.409 185.598 104.409C186.197 104.409 193.377 105.307 193.377 105.008C193.377 104.709 192.03 97.3789 192.03 97.3789L188.44 94.5368Z" fill="#0084F4"/>
</svg>
