<svg width="256" height="256" viewBox="0 0 256 256" fill="none" xmlns="http://www.w3.org/2000/svg">
<g clip-path="url(#clip0_10_152)">
<path d="M48.1738 158.181V174.057" stroke="#0084F4" stroke-linecap="round" stroke-linejoin="round"/>
<path d="M40.2041 166.119H56.1431" stroke="#0084F4" stroke-linecap="round" stroke-linejoin="round"/>
<path d="M167.347 30.9458C170.883 30.9458 173.75 28.09 173.75 24.5673C173.75 21.0445 170.883 18.1887 167.347 18.1887C163.81 18.1887 160.943 21.0445 160.943 24.5673C160.943 28.09 163.81 30.9458 167.347 30.9458Z" fill="#E8E8EB"/>
<path d="M246.976 116.306C249.132 116.306 250.88 114.565 250.88 112.417C250.88 110.269 249.132 108.528 246.976 108.528C244.82 108.528 243.072 110.269 243.072 112.417C243.072 114.565 244.82 116.306 246.976 116.306Z" fill="#E8E8EB"/>
<path d="M75.7847 238.107C77.941 238.107 79.6891 236.365 79.6891 234.218C79.6891 232.07 77.941 230.329 75.7847 230.329C73.6284 230.329 71.8804 232.07 71.8804 234.218C71.8804 236.365 73.6284 238.107 75.7847 238.107Z" fill="#E8E8EB"/>
<path d="M255.949 50.9704C256.128 49.7002 255.835 48.4085 255.126 47.3401C254.417 46.2717 253.342 45.5008 252.103 45.1734C250.865 44.8461 249.549 44.9851 248.406 45.564C247.264 46.143 246.372 47.1217 245.902 48.3147L234.862 60.9899L238.101 70.0505L249.204 55.2401C249.928 55.4725 250.695 55.543 251.45 55.4466C252.204 55.3503 252.929 55.0894 253.572 54.6823C254.215 54.2752 254.761 53.7319 255.172 53.0906C255.582 52.4492 255.848 51.7255 255.949 50.9704Z" fill="#FFD260"/>
<path d="M210.186 100.289L246.833 61.1211L241.89 53.2509L195.926 92.1814L210.186 100.289Z" fill="#8C8E99"/>
<path d="M202.007 76.491C209.107 76.491 214.862 70.7272 214.862 63.6172C214.862 56.5072 209.107 50.7433 202.007 50.7433C194.908 50.7433 189.152 56.5072 189.152 63.6172C189.152 70.7272 194.908 76.491 202.007 76.491Z" fill="#333333"/>
<path d="M203.041 56.3446C205.807 53.5354 209.154 51.3676 212.847 49.9938C215.218 49.1143 217.798 48.5709 220.276 49.0704C222.755 49.5698 225.098 51.2869 225.79 53.7221C226.355 55.7133 225.771 57.8573 224.894 59.7318C224.017 61.6063 222.845 63.3445 222.136 65.289C221.412 67.273 221.194 69.4067 221.502 71.4963C221.81 73.586 222.635 75.5654 223.901 77.255C225.167 78.9446 226.834 80.2908 228.751 81.1714C230.669 82.052 232.775 82.4391 234.88 82.2976C232.444 82.6246 230.2 83.7706 227.82 84.3806C225.44 84.9906 222.63 84.9492 220.862 83.2415C218.99 81.4347 218.953 78.4971 219.043 75.8954C219.178 72.0279 219.312 68.1604 219.447 64.2929C219.515 62.3205 219.574 60.2849 218.863 58.444C218.153 56.6031 216.465 54.9911 214.495 55.0078C213.001 55.0205 211.679 55.9266 210.482 56.8202C209.284 57.7138 208.016 58.6671 206.528 58.8C205.041 58.933 203.342 57.8304 203.454 56.3388L203.041 56.3446Z" fill="#333333"/>
<path d="M153.183 150.059C151.949 150.402 150.632 150.28 149.482 149.716C148.331 149.152 147.428 148.185 146.942 146.998C146.456 145.811 146.422 144.487 146.845 143.277C147.269 142.066 148.122 141.053 149.241 140.43L160.347 127.813L169.74 129.845L156.529 142.804C156.853 143.493 157.023 144.245 157.027 145.007C157.03 145.769 156.866 146.522 156.547 147.214C156.228 147.905 155.762 148.519 155.181 149.01C154.599 149.502 153.918 149.86 153.183 150.059H153.183Z" fill="#FFD260"/>
<path d="M189.72 104.887L162.041 139.682L153.604 135.803L186.138 85.0779L189.72 104.887Z" fill="#8C8E99"/>
<path d="M167.635 209.954L161.038 209.85L161.832 232.367H167.634L167.635 209.954Z" fill="#FFD260"/>
<path d="M169.114 230.47L157.687 230.469H157.686C155.755 230.47 153.903 231.238 152.537 232.606C151.171 233.973 150.404 235.828 150.404 237.762V237.999L169.113 238L169.114 230.47Z" fill="#333333"/>
<path d="M211.312 203.982L204.106 208.615L218.52 225.982L223.403 222.843L211.312 203.982Z" fill="#FFD260"/>
<path d="M223.625 220.445L214.009 226.628L214.009 226.628C212.384 227.673 211.24 229.322 210.828 231.212C210.417 233.101 210.772 235.077 211.815 236.705L211.943 236.904L227.687 226.782L223.625 220.445Z" fill="#333333"/>
<path d="M213.879 135.224C213.879 135.224 197.868 81.9669 192.722 81.2472C187.577 80.5275 179.286 94.9125 179.286 94.9125C168.537 108.647 157.452 153.138 157.452 153.138C157.452 153.138 175.93 154.296 189.437 161.493C202.945 168.69 218.885 161.129 218.885 161.129L213.879 135.224Z" fill="#8C8E99"/>
<path opacity="0.1" d="M213.879 135.224C213.879 135.224 197.868 81.9669 192.722 81.2472C187.577 80.5275 181.392 95.0584 181.392 95.0584C176.035 117.23 157.452 153.138 157.452 153.138C157.452 153.138 175.93 154.296 189.437 161.493C202.945 168.69 218.885 161.129 218.885 161.129L213.879 135.224Z" fill="#8C8E99"/>
<path d="M200.743 119.29V146.052L203.888 184.818L219.599 214.141L212.101 219.505L190.676 191.612L182.202 163.916L168.894 225.227L158.895 224.512L165.839 139.505L179.016 115.577L200.743 119.29Z" fill="#333333"/>
<path d="M184.599 93.4057C179.6 98.4122 184.242 103.776 184.242 103.776L178.529 116.65L201.025 122.729L208.887 87.5487L203.531 81.827C192.818 81.4694 192.812 81.2471 192.812 81.2471C190.935 83.0865 184.599 93.4057 184.599 93.4057Z" fill="#FF647C"/>
<path d="M209.793 83.904C208.771 83.1487 207.61 82.6039 206.376 82.3013C205.143 81.9986 203.862 81.944 202.607 82.1406C201.352 82.3373 200.149 82.7813 199.067 83.447C197.985 84.1127 197.045 84.9867 196.303 86.0186C190.648 93.9046 185.418 106.639 192.623 122.52C204.193 148.021 214.26 161.075 218.353 161.074C218.532 161.075 218.709 161.047 218.879 160.991C221.398 160.135 225.041 155.866 225.7 152.104C225.936 150.757 225.88 148.881 224.272 147.593C219.653 143.894 211.361 132.373 208.774 117.21C207.345 108.831 210.117 101.199 212.694 96.272C213.783 94.2333 214.101 91.87 213.591 89.6153C213.081 87.3605 211.777 85.3654 209.917 83.9957L209.793 83.904Z" fill="#8C8E99"/>
<path d="M202.668 75.2263C207.254 72.7159 208.939 66.9579 206.433 62.3655C203.926 57.773 198.176 56.0853 193.591 58.5957C189.005 61.1062 187.32 66.8642 189.826 71.4566C192.333 76.049 198.083 77.7367 202.668 75.2263Z" fill="#FFD260"/>
<path d="M184.822 66.1945H198.486L198.626 64.2299L199.326 66.1945H201.43L201.708 62.3007L203.097 66.1945H207.168V66.0016C207.165 63.2907 206.088 60.6918 204.174 58.775C202.26 56.8581 199.665 55.7799 196.958 55.7768H195.032C192.325 55.7799 189.73 56.8581 187.816 58.775C185.901 60.6918 184.825 63.2907 184.822 66.0016V66.1945Z" fill="#333333"/>
<path d="M205.103 73.2562L210.934 71.3614V57.1803H199.92L200.193 57.4529C203.987 61.2475 208.206 74.71 205.103 73.2562Z" fill="#333333"/>
<path d="M98 62.8639H96.9201V33.8135C96.9201 31.6055 96.4772 29.4192 95.6168 27.3793C94.7563 25.3393 93.4951 23.4858 91.9052 21.9245C90.3153 20.3632 88.4278 19.1248 86.3504 18.2798C84.2731 17.4348 82.0466 16.9999 79.7981 16.9999H17.122C12.581 16.9999 8.22593 18.7713 5.01493 21.9245C1.80393 25.0776 9.61864e-06 29.3542 0 33.8135V193.186C-2.38133e-06 195.394 0.442871 197.581 1.30333 199.621C2.16379 201.661 3.42498 203.514 5.0149 205.075C6.60482 206.637 8.49234 207.875 10.5697 208.72C12.647 209.565 14.8735 210 17.122 210H79.7981C84.3391 210 88.6941 208.229 91.9051 205.075C95.1161 201.922 96.9201 197.646 96.9201 193.186V83.5425H98V62.8639Z" fill="#333333"/>
<path d="M79.4374 22H71.3994C71.7691 22.8947 71.9102 23.8655 71.8103 24.8267C71.7104 25.788 71.3727 26.7102 70.8267 27.5122C70.2808 28.3143 69.5435 28.9714 68.6797 29.4258C67.8159 29.8802 66.8522 30.1179 65.8735 30.118H30.596C29.6173 30.1179 28.6536 29.8802 27.7898 29.4258C26.926 28.9714 26.1887 28.3143 25.6428 27.5123C25.0968 26.7102 24.7591 25.788 24.6592 24.8267C24.5593 23.8655 24.7004 22.8947 25.0701 22H17.5626C15.9128 22 14.2792 22.3208 12.7551 22.9441C11.2309 23.5674 9.84603 24.481 8.67949 25.6327C7.51295 26.7844 6.5876 28.1517 5.95627 29.6564C5.32494 31.1612 5 32.774 5 34.4028V191.597C5 193.226 5.32494 194.839 5.95627 196.344C6.5876 197.848 7.51294 199.216 8.67948 200.367C9.84602 201.519 11.2309 202.433 12.7551 203.056C14.2792 203.679 15.9128 204 17.5625 204H79.4374C81.0872 204 82.7208 203.679 84.2449 203.056C85.7691 202.433 87.154 201.519 88.3205 200.367C89.487 199.216 90.4124 197.848 91.0437 196.344C91.6751 194.839 92 193.226 92 191.597V34.4028C92 32.774 91.6751 31.1612 91.0437 29.6564C90.4124 28.1517 89.487 26.7844 88.3205 25.6327C87.154 24.481 85.7691 23.5674 84.2449 22.9441C82.7208 22.3208 81.0872 22 79.4374 22Z" fill="white"/>
<path d="M11.1724 40.8317C11.1724 38.3166 13.2113 36.2777 15.7264 36.2777H80.6209C83.136 36.2777 85.1749 38.3166 85.1749 40.8317V75.9492C85.1749 78.4643 83.136 80.5032 80.6209 80.5032H15.7264C13.2113 80.5032 11.1724 78.4643 11.1724 75.9492V40.8317Z" fill="#0084F4"/>
<path d="M11.1724 91.8611C11.1724 89.346 13.2113 87.3071 15.7264 87.3071H80.6209C83.136 87.3071 85.1749 89.346 85.1749 91.8611V126.979C85.1749 129.494 83.136 131.533 80.6209 131.533H15.7264C13.2113 131.533 11.1724 129.494 11.1724 126.979V91.8611Z" fill="#0084F4"/>
</g>
<defs>
<clipPath id="clip0_10_152">
<rect width="256" height="256" fill="white"/>
</clipPath>
</defs>
</svg>
