<svg width="256" height="256" viewBox="0 0 256 256" fill="none" xmlns="http://www.w3.org/2000/svg">
<path d="M54.5 62C56.9853 62 59 59.9853 59 57.5C59 55.0147 56.9853 53 54.5 53C52.0147 53 50 55.0147 50 57.5C50 59.9853 52.0147 62 54.5 62Z" fill="#E8E8EB"/>
<path d="M208.976 113.306C211.132 113.306 212.88 111.565 212.88 109.417C212.88 107.269 211.132 105.528 208.976 105.528C206.82 105.528 205.072 107.269 205.072 109.417C205.072 111.565 206.82 113.306 208.976 113.306Z" fill="#E8E8EB"/>
<path d="M185.785 200.107C187.941 200.107 189.689 198.366 189.689 196.218C189.689 194.07 187.941 192.329 185.785 192.329C183.628 192.329 181.88 194.07 181.88 196.218C181.88 198.366 183.628 200.107 185.785 200.107Z" fill="#E8E8EB"/>
<path d="M177 62.864H175.92V33.8136C175.92 31.6056 175.477 29.4192 174.617 27.3793C173.756 25.3394 172.495 23.4859 170.905 21.9246C169.315 20.3633 167.428 19.1248 165.35 18.2799C163.273 17.4349 161.047 17 158.798 17H96.122C91.581 17 87.2259 18.7714 84.0149 21.9246C80.8039 25.0777 79 29.3543 79 33.8135V193.186C79 195.394 79.4429 197.581 80.3033 199.621C81.1638 201.661 82.425 203.514 84.0149 205.075C85.6048 206.637 87.4923 207.875 89.5697 208.72C91.647 209.565 93.8735 210 96.122 210H158.798C163.339 210 167.694 208.229 170.905 205.075C174.116 201.922 175.92 197.646 175.92 193.186V83.5426H177V62.864Z" fill="#333333"/>
<path d="M158.437 22.0001H150.399C150.769 22.8948 150.91 23.8655 150.81 24.8268C150.71 25.788 150.373 26.7103 149.827 27.5123C149.281 28.3143 148.543 28.9715 147.68 29.4259C146.816 29.8803 145.852 30.118 144.873 30.1181H109.596C108.617 30.118 107.654 29.8803 106.79 29.4259C105.926 28.9715 105.189 28.3143 104.643 27.5123C104.097 26.7103 103.759 25.7881 103.659 24.8268C103.559 23.8655 103.7 22.8948 104.07 22.0001H96.5626C94.9128 22.0001 93.2792 22.3209 91.7551 22.9442C90.2309 23.5675 88.846 24.481 87.6795 25.6327C86.5129 26.7844 85.5876 28.1517 84.9563 29.6565C84.3249 31.1613 84 32.7741 84 34.4028V191.597C84 193.226 84.3249 194.839 84.9563 196.344C85.5876 197.848 86.5129 199.216 87.6795 200.367C88.846 201.519 90.2309 202.433 91.7551 203.056C93.2792 203.679 94.9128 204 96.5625 204H158.437C160.087 204 161.721 203.679 163.245 203.056C164.769 202.433 166.154 201.519 167.321 200.367C168.487 199.216 169.412 197.848 170.044 196.344C170.675 194.839 171 193.226 171 191.597V34.4028C171 32.7741 170.675 31.1613 170.044 29.6565C169.412 28.1517 168.487 26.7844 167.321 25.6327C166.154 24.481 164.769 23.5675 163.245 22.9442C161.721 22.3209 160.087 22.0001 158.437 22.0001Z" fill="white"/>
<path d="M141.252 84.025H144.188C144.188 84.025 146.88 104.822 144.922 106.779C142.965 108.737 137.582 109.96 136.848 106.779C136.114 103.599 136.848 91.8545 136.848 91.8545L141.252 84.025Z" fill="#333333"/>
<path d="M122.046 86.8388C131.91 86.8388 139.907 77.4728 139.907 65.9193C139.907 54.3659 131.91 44.9999 122.046 44.9999C112.181 44.9999 104.185 54.3659 104.185 65.9193C104.185 77.4728 112.181 86.8388 122.046 86.8388Z" fill="#333333"/>
<path d="M118.008 69.8341C118.008 69.8341 118.987 77.9083 116.051 79.621C113.115 81.3337 119.476 91.1205 119.476 91.1205L127.061 93.0779L132.199 85.9824L131.221 78.6423C131.221 78.6423 125.349 72.7702 128.04 67.3874L118.008 69.8341Z" fill="#FFD260"/>
<path d="M106.998 157.48C106.998 157.48 104.062 184.15 106.998 190.511C109.934 196.873 117.764 214.734 117.764 214.734L115.317 219.872L121.923 218.404L124.615 213.266C124.615 213.266 121.434 200.787 120.945 196.383C120.455 191.979 116.785 183.905 116.785 183.905L123.636 154.789L106.998 157.48Z" fill="#FFD260"/>
<path d="M130.242 153.022C130.242 153.022 130.487 179.936 132.199 184.111L131.221 220.567L136.603 221.286C136.603 221.286 144.433 190.702 143.21 183.362C141.986 176.021 143.454 149.597 143.454 149.597L130.242 153.022Z" fill="#FFD260"/>
<path d="M122.046 73.1371C127.18 73.1371 131.343 68.9745 131.343 63.8396C131.343 58.7048 127.18 54.5421 122.046 54.5421C116.911 54.5421 112.748 58.7048 112.748 63.8396C112.748 68.9745 116.911 73.1371 122.046 73.1371Z" fill="#FFD260"/>
<path d="M153.731 156.448C153.731 156.448 147.124 160.852 144.433 157.671C141.742 154.49 108.711 159.629 104.552 158.65C100.392 157.671 106.754 142.012 106.754 133.938C106.754 127.897 108.946 118.707 110.049 114.46C110.421 113.031 110.668 112.162 110.668 112.162C110.668 112.162 113.179 105.02 112.709 102.052C112.677 101.828 112.615 101.608 112.525 101.399C112.486 101.312 112.438 101.229 112.381 101.152C111.209 99.5886 107.85 88.1869 106.546 83.291C106.333 82.5665 106.157 81.8315 106.02 81.089C106.02 80.355 115.072 78.153 117.336 78.0477C119.601 77.9425 120.211 81.089 120.211 81.089C120.945 81.5784 124.37 90.1419 124.37 90.1419L127.551 82.0677C127.551 82.0677 127.306 80.355 127.061 80.355C126.817 80.355 130.68 78.0453 130.68 78.0453C130.68 78.0453 134.646 80.8443 136.848 80.355C139.05 79.8657 144.188 84.2697 144.188 84.2697C144.188 84.2697 135.136 107.024 138.806 111.918C142.476 116.811 153.731 156.448 153.731 156.448Z" fill="#333333"/>
<path d="M123.881 212.287C123.881 212.287 119.721 216.446 119.721 216.935L116.296 215.467C116.296 215.467 114.828 220.85 114.583 221.584C114.338 222.318 110.179 228.924 106.02 231.86C101.86 234.796 106.02 238.467 109.69 237.732C113.36 236.998 122.657 228.68 122.657 228.68C122.657 228.68 129.019 228.68 131.221 223.786C131.221 223.786 125.349 211.797 123.881 212.287Z" fill="#333333"/>
<path d="M136.114 219.344C136.114 219.344 129.829 214.777 129.424 219.018C129.019 223.259 129.019 232.556 129.019 232.556C129.019 232.556 127.061 238.673 133.178 237.939C139.295 237.205 139.784 235.492 139.784 235.492L136.848 223.748V218.61L136.114 219.344Z" fill="#333333"/>
<path opacity="0.1" d="M112.381 101.152C111.209 99.5886 107.85 88.187 106.546 83.2911H107.732C107.732 83.2911 110.712 94.9546 112.525 101.399C112.486 101.312 112.438 101.229 112.381 101.152Z" fill="#333333"/>
<path opacity="0.1" d="M128.529 117.3C128.529 117.3 125.104 117.545 112.626 115.098C111.756 114.931 110.896 114.718 110.049 114.46C110.421 113.031 110.668 112.162 110.668 112.162C110.668 112.162 113.179 105.02 112.709 102.052C113.294 104.108 113.729 105.495 113.849 105.556C114.338 105.801 129.997 108.492 132.199 109.471C134.402 110.45 128.529 117.3 128.529 117.3Z" fill="#333333"/>
<path opacity="0.1" d="M132.933 85.278C132.933 85.278 139.682 84.4454 140.1 85.5396C140.518 86.6338 142.231 97.2088 142.965 98.5646C143.699 99.9204 143.944 108.326 141.008 108.597C138.071 108.868 134.157 105.886 134.891 103.445C135.625 101.005 132.933 85.278 132.933 85.278Z" fill="#333333"/>
<path d="M129.508 107.758C129.508 107.758 139.784 108.981 141.497 107.758C143.21 106.535 150.305 106.535 148.837 109.96C147.369 113.386 134.646 113.63 134.646 113.63H127.306L129.508 107.758Z" fill="#FFD260"/>
<path d="M107.732 81.5783H106.02C106.02 81.5783 102.594 82.3123 103.083 93.0779C103.573 103.843 100.147 110.939 112.626 113.386C125.104 115.832 128.529 115.588 128.529 115.588C128.529 115.588 134.401 108.737 132.199 107.758C129.997 106.779 114.338 104.088 113.849 103.843C113.36 103.599 107.732 81.5783 107.732 81.5783Z" fill="#333333"/>
<path d="M139.912 86.4075C139.912 86.4075 135.625 70.3234 132.199 70.3234C128.774 70.3234 124.859 71.0574 127.795 74.2382C130.731 77.4189 134.401 80.8443 134.646 82.557C134.891 84.2697 135.869 86.7164 135.869 86.7164L139.912 86.4075Z" fill="#FFD260"/>
<path d="M133.912 85.278C133.912 85.278 140.661 84.4454 141.079 85.5396C141.497 86.6338 143.21 97.2088 143.944 98.5646C144.678 99.9204 144.922 108.326 141.986 108.597C139.05 108.868 135.135 105.886 135.869 103.445C136.604 101.005 133.912 85.278 133.912 85.278Z" fill="#333333"/>
<path d="M119.599 63.8396C124.463 63.8396 128.407 59.8961 128.407 55.0314C128.407 50.1668 124.463 46.2233 119.599 46.2233C114.734 46.2233 110.791 50.1668 110.791 55.0314C110.791 59.8961 114.734 63.8396 119.599 63.8396Z" fill="#333333"/>
<path fill-rule="evenodd" clip-rule="evenodd" d="M79 59.1883C73.9611 58.1422 69.0587 57.3274 64.3287 56.7458C63.7805 56.6784 63.2815 57.0682 63.2141 57.6163C63.1467 58.1645 63.5365 58.6635 64.0846 58.7309C68.8834 59.3209 73.868 60.1548 79 61.2314V59.1883ZM176 104.831C183.479 110.235 190.566 116.162 197.209 122.567C197.606 122.951 198.239 122.939 198.623 122.542C199.006 122.144 198.994 121.511 198.597 121.128C191.541 114.323 183.987 108.053 176 102.37V104.831ZM176 87.1454C179.38 89.2708 182.674 91.431 185.881 93.6258C186.337 93.9377 186.96 93.821 187.271 93.3652C187.583 92.9095 187.467 92.2871 187.011 91.9752C183.445 89.5355 179.775 87.139 176 84.7858V87.1454ZM67.4718 42.9072C44.4431 38.3678 23.9289 37.7775 8.1413 41.1692C7.60134 41.2852 7.06957 40.9415 6.95357 40.4016C6.83757 39.8616 7.18126 39.3298 7.72122 39.2138C23.8656 35.7455 44.673 36.3746 67.8586 40.945C68.4004 41.0518 68.7531 41.5777 68.6463 42.1195C68.5395 42.6614 68.0136 43.014 67.4718 42.9072ZM45.2282 57.6877C45.7803 57.6758 46.2182 57.2185 46.2062 56.6663C46.1943 56.1142 45.737 55.6763 45.1848 55.6882C25.2682 56.12 10.0998 61.9816 4.37442 73.9346C-0.803865 84.7454 2.74904 98.4538 12.4315 112.623C12.7431 113.079 13.3653 113.197 13.8213 112.885C14.2773 112.573 14.3944 111.951 14.0828 111.495C4.52817 97.5125 1.47266 84.6224 6.17818 74.7986C11.3847 63.9289 25.4786 58.1159 45.2282 57.6877ZM215.28 142.65C215.749 142.358 216.366 142.502 216.657 142.971C224.744 155.99 227.434 168.479 222.642 178.483C218.424 187.288 209.069 192.784 196.539 195.239C195.997 195.345 195.472 194.992 195.365 194.45C195.259 193.908 195.613 193.383 196.154 193.276C208.38 190.881 217.007 185.616 220.838 177.619C225.191 168.531 222.906 156.821 214.959 144.027C214.667 143.558 214.811 142.941 215.28 142.65ZM241.133 142.933C240.821 142.477 240.198 142.361 239.743 142.673C239.287 142.984 239.17 143.607 239.482 144.063C246.576 154.425 250.885 164.378 252.008 173.368C252.076 173.916 252.576 174.304 253.124 174.236C253.672 174.168 254.061 173.668 253.992 173.12C252.817 163.707 248.334 153.453 241.133 142.933ZM29.1285 129.185C28.7352 128.797 28.1021 128.801 27.7143 129.195C27.3265 129.588 27.331 130.221 27.7243 130.609C43.3041 145.97 65.1366 161.141 90.8714 173.468C113.475 184.295 135.899 191.4 155.745 194.671C156.29 194.761 156.805 194.392 156.895 193.847C156.984 193.302 156.616 192.788 156.071 192.698C136.433 189.461 114.19 182.42 91.7354 171.665C66.1665 159.417 44.5258 144.366 29.1285 129.185ZM27.6326 148.689C27.969 148.251 28.5968 148.169 29.0348 148.505C42.7732 159.058 58.7122 169.2 76.3248 178.325C76.8152 178.579 77.0068 179.182 76.7527 179.673C76.4986 180.163 75.8952 180.355 75.4048 180.101C57.6944 170.925 41.6545 160.721 27.8165 150.092C27.3785 149.755 27.2962 149.127 27.6326 148.689Z" fill="#0084F4"/>
</svg>
