<svg width="256" height="256" viewBox="0 0 256 256" fill="none" xmlns="http://www.w3.org/2000/svg">
<circle cx="128" cy="128" r="128" fill="#F7F8FD"/>
<circle cx="128" cy="127.772" r="80" fill="#00C48C"/>
<path d="M181.72 164.26L182.727 158.409L178.458 154.267L184.358 153.408L186.997 148.084L189.635 153.408L195.535 154.267L191.266 158.409L192.273 164.26L186.997 161.496L184.358 162.878" stroke="#FF647C" stroke-linecap="round" stroke-linejoin="round"/>
<path d="M186.996 125.738L186.13 124.864C185.287 124.013 184.144 123.535 182.952 123.535C181.76 123.535 180.617 124.013 179.774 124.864C178.931 125.714 178.458 126.868 178.458 128.071C178.458 131.395 183.581 137.142 186.996 137.142C190.412 137.142 195.535 131.394 195.535 128.071C195.535 126.868 195.062 125.714 194.219 124.863C193.376 124.012 192.233 123.535 191.041 123.535C190.21 123.535 189.403 123.767 188.704 124.196" stroke="#FF647C" stroke-linecap="round" stroke-linejoin="round"/>
<path d="M192.974 98.135L181.019 110.042" stroke="#FF647C" stroke-linecap="round" stroke-linejoin="round"/>
<path d="M191.266 110.892C192.681 110.892 193.827 109.75 193.827 108.341C193.827 106.932 192.681 105.789 191.266 105.789C189.851 105.789 188.704 106.932 188.704 108.341C188.704 109.75 189.851 110.892 191.266 110.892Z" stroke="#FF647C" stroke-linecap="round" stroke-linejoin="round"/>
<path d="M182.727 102.387C184.142 102.387 185.289 101.245 185.289 99.836C185.289 98.4268 184.142 97.2845 182.727 97.2845C181.312 97.2845 180.166 98.4268 180.166 99.836C180.166 101.245 181.312 102.387 182.727 102.387Z" stroke="#FF647C" stroke-linecap="round" stroke-linejoin="round"/>
<path d="M135.01 85.2095C137.663 85.2095 139.813 83.0677 139.813 80.4256C139.813 77.7835 137.663 75.6417 135.01 75.6417C132.357 75.6417 130.207 77.7835 130.207 80.4256C130.207 83.0677 132.357 85.2095 135.01 85.2095Z" fill="#E8E8EB"/>
<path d="M89.7321 119.229C91.3493 119.229 92.6604 117.924 92.6604 116.313C92.6604 114.702 91.3493 113.396 89.7321 113.396C88.1149 113.396 86.8038 114.702 86.8038 116.313C86.8038 117.924 88.1149 119.229 89.7321 119.229Z" fill="#E8E8EB"/>
<path d="M126.339 188.08C127.956 188.08 129.267 186.774 129.267 185.163C129.267 183.553 127.956 182.247 126.339 182.247C124.721 182.247 123.41 183.553 123.41 185.163C123.41 186.774 124.721 188.08 126.339 188.08Z" fill="#E8E8EB"/>
<path d="M76.3427 190.376L82.3827 188.622L85.0202 204.969L80.9278 206.158L76.3427 190.376Z" fill="#FFD260"/>
<path d="M94.0169 206.476L93.843 205.878C93.5063 204.719 92.7229 203.741 91.6651 203.16C90.6073 202.578 89.3618 202.441 88.2026 202.777L79.7113 205.243L81.1547 210.211L94.0169 206.476Z" fill="#333333"/>
<path d="M38.6339 189.822L44.924 189.822L42.8965 206.255L38.635 206.255L38.6339 189.822Z" fill="#FFD260"/>
<path d="M51.1155 210.211L51.1155 209.587C51.1154 208.99 50.9977 208.398 50.7689 207.846C50.5402 207.294 50.2049 206.792 49.7822 206.37C49.3596 205.947 48.8578 205.612 48.3056 205.384C47.7534 205.155 47.1615 205.037 46.5638 205.037L37.7215 205.038L37.7217 210.211L51.1155 210.211Z" fill="#333333"/>
<path d="M44.4176 150.001C43.577 149.598 42.9309 148.878 42.6214 147.999C42.3118 147.12 42.3642 146.154 42.767 145.314L43.9583 134.099L49.894 131.562L47.6812 143.782C48.4711 144.234 49.055 144.974 49.31 145.848C49.565 146.721 49.4712 147.659 49.0484 148.465C48.6256 149.27 47.9068 149.88 47.0431 150.167C46.1794 150.453 45.2382 150.394 44.4176 150.001Z" fill="#FFD260"/>
<path d="M45.4799 119.793L52.4438 98.6578C52.5891 98.4154 54.3225 95.688 58.097 96.8482C58.5136 96.9654 58.9017 97.1669 59.2371 97.4404C59.5725 97.7138 59.8481 98.0533 60.0468 98.4377C61.1517 100.555 60.1211 103.827 60.1165 103.844L51.5428 123.051L51.5339 123.071L48.8277 142.796L42.9834 141.61L45.4799 119.793Z" fill="#8C8E99"/>
<path d="M91.7667 197.981L81.285 165.848L69.1318 138.077L69.3068 124.608L54.8848 121.246L53.2053 126.891C43.4922 133.298 46.692 145.624 46.9203 146.45L32.285 200.445L48.2429 202.218L58.9544 151.094L68.8331 171.867L75.818 202.941L91.7667 197.981Z" fill="#333333"/>
<path d="M47.7978 157.247C47.9069 155.384 49.3693 153.885 51.229 153.729L74.4857 151.785C76.4124 151.624 78.1456 152.954 78.4886 154.857L82.7655 178.583C83.1578 180.76 81.5912 182.801 79.3873 182.985L50.4362 185.405C48.1621 185.595 46.2468 183.727 46.3803 181.449L47.7978 157.247Z" fill="#FF647C"/>
<path fill-rule="evenodd" clip-rule="evenodd" d="M62.375 157.25C64.6532 157.25 66.5 155.403 66.5 153.125C66.5 150.847 64.6532 149 62.375 149C60.0968 149 58.25 150.847 58.25 153.125C58.25 155.403 60.0968 157.25 62.375 157.25ZM62.375 158.75C65.4816 158.75 68 156.232 68 153.125C68 150.019 65.4816 147.5 62.375 147.5C59.2684 147.5 56.75 150.019 56.75 153.125C56.75 156.232 59.2684 158.75 62.375 158.75Z" fill="#FF647C"/>
<path d="M64.6681 148.575C64.3115 149.357 63.6801 149.982 62.8935 150.331C62.1069 150.679 61.2197 150.727 60.4002 150.465C59.5806 150.203 58.8856 149.65 58.4468 148.91C58.008 148.171 57.8558 147.295 58.0193 146.451L56.3334 135.299L61.4341 131.344L62.3859 143.726C62.8801 143.856 63.3398 144.093 63.7326 144.42C64.1253 144.747 64.4416 145.156 64.6592 145.618C64.8768 146.08 64.9904 146.584 64.9919 147.095C64.9935 147.606 64.8829 148.111 64.6681 148.575Z" fill="#FFD260"/>
<path d="M63.588 142.77L61.1802 122.721L64.6123 101.976C64.6203 101.83 64.7909 98.3895 63.1001 96.5247C62.7839 96.1724 62.3985 95.889 61.9679 95.6919C61.5374 95.4949 61.0709 95.3885 60.5975 95.3794C56.3093 95.1917 55.2841 98.7632 55.2742 98.7992L53.8777 121.086L57.0282 143.134L63.588 142.77Z" fill="#8C8E99"/>
<path d="M70.3466 113.302C73.214 107.807 71.1409 105.714 68.006 102.55C66.7247 101.3 65.5226 99.971 64.4064 98.5717C59.5156 92.2856 53.8393 95.3728 53.7825 95.4049L53.7505 95.4228L52.3481 97.5258C47.7264 102.176 54.735 114.953 55.2673 115.905L54.9158 125.041L69.8201 126.46L70.3466 113.302Z" fill="#8C8E99"/>
<path d="M61.141 92.6929C56.4257 92.6929 52.6032 88.8715 52.6032 84.1576C52.6032 79.4437 56.4257 75.6223 61.141 75.6223C65.8562 75.6223 69.6787 79.4437 69.6787 84.1576C69.6787 88.8715 65.8562 92.6929 61.141 92.6929Z" fill="#FFD260"/>
<path d="M69.8475 82.68L69.3828 81.9323C68.2271 81.7018 67.0282 81.8377 65.9535 82.3211C64.8788 82.8045 63.9818 83.6112 63.3877 84.6287C63.0945 83.5487 61.3517 83.6043 60.7068 84.5191C60.0619 85.4338 60.2046 86.6698 60.4139 87.7692C60.623 88.8686 60.8598 90.0634 60.3521 91.0608C60.0811 91.5265 59.6915 91.9122 59.223 92.1786C58.7545 92.445 58.2238 92.5825 57.6848 92.5772C56.6039 92.5511 55.5529 92.2167 54.6557 91.6135C53.0056 90.5634 51.6863 89.0681 50.8501 87.3004C50.0139 85.5326 49.6948 83.5644 49.9298 81.6231C50.1472 80.1112 50.7091 78.6693 51.5721 77.4088C51.0775 77.3715 50.6157 77.1471 50.2809 76.7814C50.0491 76.4793 49.9053 76.1191 49.8654 75.7406C49.8254 75.362 49.8909 74.9798 50.0546 74.636C50.341 74.035 50.7772 73.5176 51.3211 73.1334C50.9302 73.4453 50.4708 73.6598 49.9807 73.7592C49.3781 73.846 48.6749 73.5332 48.5657 72.9528C48.4617 72.3998 48.9046 71.8966 49.314 71.4913C49.5794 71.2283 49.845 70.9654 50.1106 70.7025C49.9728 70.5467 49.8449 70.3825 49.7275 70.2109C49.2849 69.591 49.0307 68.8565 48.9955 68.0957C48.9604 67.3349 49.1457 66.5801 49.5292 65.9221C48.7695 67.2192 49.4361 68.7627 50.7746 69.8143C50.8176 69.8481 50.8659 69.8778 50.9101 69.9107L51.418 69.4078C51.8154 68.9569 52.3019 68.5933 52.8468 68.3397C53.4087 68.1242 54.1265 68.1873 54.4933 68.6444C54.8857 69.1337 54.7759 69.912 55.2352 70.3424C55.6371 70.719 56.2914 70.6559 56.8324 70.497C57.3733 70.3382 57.9324 70.1056 58.4792 70.2247C58.8469 70.3334 59.1612 70.5747 59.361 70.9019C59.5607 71.2291 59.6318 71.6189 59.5603 71.9955C59.4988 72.3202 59.3618 72.6258 59.1604 72.8878C60.672 72.7595 62.1916 72.7548 63.704 72.8738C65.4841 72.9729 67.303 73.0962 68.945 73.7909C70.5868 74.4855 72.0464 75.8672 72.3493 77.6236C72.6522 79.3801 71.6237 82.5256 69.8475 82.68Z" fill="#333333"/>
<path d="M224 79.1481H223.19V57.3603C223.19 55.7043 222.858 54.0646 222.213 52.5346C221.567 51.0047 220.621 49.6145 219.429 48.4436C218.236 47.2726 216.821 46.3437 215.263 45.71C213.705 45.0763 212.035 44.7501 210.349 44.7501H163.342C159.936 44.7501 156.669 46.0787 154.261 48.4435C151.853 50.8084 150.5 54.0159 150.5 57.3603V176.89C150.5 178.546 150.832 180.186 151.477 181.716C152.123 183.246 153.069 184.636 154.261 185.807C155.454 186.978 156.869 187.906 158.427 188.54C159.985 189.174 161.655 189.5 163.341 189.5H210.349C213.754 189.5 217.021 188.172 219.429 185.807C221.837 183.442 223.19 180.234 223.19 176.89V94.6571H224V79.1481Z" fill="#333333"/>
<path d="M210.078 48.5002H204.05C204.327 49.1712 204.433 49.8993 204.358 50.6202C204.283 51.3412 204.029 52.0329 203.62 52.6344C203.211 53.2359 202.658 53.7287 202.01 54.0695C201.362 54.4103 200.639 54.5886 199.905 54.5887H173.447C172.713 54.5886 171.99 54.4103 171.342 54.0695C170.695 53.7287 170.142 53.2359 169.732 52.6344C169.323 52.0329 169.069 51.3412 168.994 50.6202C168.919 49.8993 169.025 49.1712 169.303 48.5002H163.672C162.435 48.5002 161.209 48.7408 160.066 49.2083C158.923 49.6757 157.885 50.3609 157.01 51.2247C156.135 52.0885 155.441 53.1139 154.967 54.2425C154.494 55.3711 154.25 56.5807 154.25 57.8023V175.698C154.25 176.92 154.494 178.129 154.967 179.258C155.441 180.386 156.135 181.412 157.01 182.276C157.885 183.139 158.923 183.825 160.066 184.292C161.209 184.76 162.435 185 163.672 185H210.078C211.315 185 212.541 184.76 213.684 184.292C214.827 183.825 215.865 183.139 216.74 182.276C217.615 181.412 218.309 180.386 218.783 179.258C219.256 178.129 219.5 176.92 219.5 175.698V57.8023C219.5 56.5807 219.256 55.3711 218.783 54.2425C218.309 53.1139 217.615 52.0885 216.74 51.2247C215.865 50.3609 214.827 49.6757 213.684 49.2083C212.541 48.7408 211.315 48.5002 210.078 48.5002Z" fill="white"/>
<path d="M158.879 62.5405C158.879 60.7002 160.408 59.2084 162.295 59.2084H210.966C212.852 59.2084 214.381 60.7002 214.381 62.5405V62.6264C214.381 64.4666 212.852 65.9584 210.966 65.9584H162.295C160.408 65.9584 158.879 64.4666 158.879 62.6264V62.5405Z" fill="#0084F4"/>
<path d="M158.879 74.5405C158.879 72.7002 160.408 71.2084 162.295 71.2084H210.966C212.852 71.2084 214.381 72.7002 214.381 74.5405V74.6264C214.381 76.4666 212.852 77.9584 210.966 77.9584H162.295C160.408 77.9584 158.879 76.4666 158.879 74.6264V74.5405Z" fill="#0084F4"/>
</svg>
