<svg width="256" height="256" viewBox="0 0 256 256" fill="none" xmlns="http://www.w3.org/2000/svg">
<path d="M98 62.864H96.9201V33.8136C96.9201 31.6056 96.4772 29.4192 95.6168 27.3793C94.7563 25.3394 93.4951 23.4859 91.9052 21.9246C90.3153 20.3633 88.4278 19.1248 86.3504 18.2799C84.2731 17.4349 82.0466 17 79.7981 17H17.122C12.581 17 8.22593 18.7714 5.01493 21.9246C1.80393 25.0777 9.61864e-06 29.3543 0 33.8135V193.186C-2.38133e-06 195.394 0.442871 197.581 1.30333 199.621C2.16379 201.661 3.42498 203.514 5.0149 205.075C6.60482 206.637 8.49234 207.875 10.5697 208.72C12.647 209.565 14.8735 210 17.122 210H79.7981C84.3391 210 88.6941 208.229 91.9051 205.075C95.1161 201.922 96.9201 197.646 96.9201 193.186V83.5426H98V62.864Z" fill="#333333"/>
<path d="M79.4374 22H71.3994C71.7691 22.8947 71.9102 23.8655 71.8103 24.8267C71.7104 25.788 71.3727 26.7102 70.8267 27.5122C70.2808 28.3143 69.5435 28.9714 68.6797 29.4258C67.8159 29.8802 66.8522 30.1179 65.8735 30.118H30.596C29.6173 30.1179 28.6536 29.8802 27.7898 29.4258C26.926 28.9714 26.1887 28.3143 25.6428 27.5123C25.0968 26.7102 24.7591 25.788 24.6592 24.8267C24.5593 23.8655 24.7004 22.8947 25.0701 22H17.5626C15.9128 22 14.2792 22.3208 12.7551 22.9441C11.2309 23.5674 9.84603 24.481 8.67949 25.6327C7.51295 26.7844 6.5876 28.1517 5.95627 29.6564C5.32494 31.1612 5 32.774 5 34.4028V191.597C5 193.226 5.32494 194.839 5.95627 196.344C6.5876 197.848 7.51294 199.216 8.67948 200.367C9.84602 201.519 11.2309 202.433 12.7551 203.056C14.2792 203.679 15.9128 204 17.5625 204H79.4374C81.0872 204 82.7208 203.679 84.2449 203.056C85.7691 202.433 87.154 201.519 88.3205 200.367C89.487 199.216 90.4124 197.848 91.0437 196.344C91.6751 194.839 92 193.226 92 191.597V34.4028C92 32.774 91.6751 31.1612 91.0437 29.6564C90.4124 28.1517 89.487 26.7844 88.3205 25.6327C87.154 24.481 85.7691 23.5674 84.2449 22.9441C82.7208 22.3208 81.0872 22 79.4374 22Z" fill="white"/>
<path d="M11.1724 40.7205C11.1724 38.2669 13.2113 36.2778 15.7264 36.2778H80.6209C83.136 36.2778 85.1749 38.2669 85.1749 40.7205V40.8351C85.1749 43.2888 83.136 45.2778 80.6209 45.2778H15.7264C13.2113 45.2778 11.1724 43.2888 11.1724 40.8351V40.7205Z" fill="#0084F4"/>
<path d="M11.1699 56.5116C11.1699 54.0199 13.2088 52 15.7239 52H80.6184C83.1335 52 85.1724 54.0199 85.1724 56.5116V71.4884C85.1724 73.9801 83.1335 76 80.6184 76H15.7239C13.2088 76 11.1699 73.9801 11.1699 71.4884V56.5116Z" fill="#0084F4"/>
<path d="M29.0159 68C31.2339 68 33.0318 66.2091 33.0318 64C33.0318 61.7909 31.2339 60 29.0159 60C26.798 60 25 61.7909 25 64C25 66.2091 26.798 68 29.0159 68Z" fill="#AFDAFF"/>
<path d="M42.0159 68C44.2339 68 46.0318 66.2091 46.0318 64C46.0318 61.7909 44.2339 60 42.0159 60C39.798 60 38 61.7909 38 64C38 66.2091 39.798 68 42.0159 68Z" fill="#AFDAFF"/>
<path d="M55.0159 68C57.2339 68 59.0318 66.2091 59.0318 64C59.0318 61.7909 57.2339 60 55.0159 60C52.798 60 51 61.7909 51 64C51 66.2091 52.798 68 55.0159 68Z" fill="#AFDAFF"/>
<path d="M68.0159 68C70.2339 68 72.0318 66.2091 72.0318 64C72.0318 61.7909 70.2339 60 68.0159 60C65.798 60 64 61.7909 64 64C64 66.2091 65.798 68 68.0159 68Z" fill="#AFDAFF"/>
<path d="M45.8967 163.857H56.1432C57.4008 163.857 58.4202 164.872 58.4202 166.125C58.4202 181.23 37.9272 181.23 37.9272 166.125C37.9272 164.872 38.9467 163.857 40.2042 163.857H42.4812V160.455C42.4798 159.049 43.003 157.693 43.9492 156.649C44.8954 155.606 46.1971 154.949 47.6017 154.808C49.0062 154.667 50.4133 155.05 51.5499 155.884C52.6865 156.718 53.4715 157.943 53.7524 159.321" stroke="#0084F4" stroke-linecap="round" stroke-linejoin="round"/>
<path d="M168.347 34.9458C171.883 34.9458 174.75 32.09 174.75 28.5673C174.75 25.0445 171.883 22.1887 168.347 22.1887C164.81 22.1887 161.943 25.0445 161.943 28.5673C161.943 32.09 164.81 34.9458 168.347 34.9458Z" fill="#E8E8EB"/>
<path d="M116.976 116.306C119.132 116.306 120.88 114.565 120.88 112.417C120.88 110.269 119.132 108.528 116.976 108.528C114.82 108.528 113.072 110.269 113.072 112.417C113.072 114.565 114.82 116.306 116.976 116.306Z" fill="#E8E8EB"/>
<path d="M136.785 198.107C138.941 198.107 140.689 196.366 140.689 194.218C140.689 192.07 138.941 190.329 136.785 190.329C134.628 190.329 132.88 192.07 132.88 194.218C132.88 196.366 134.628 198.107 136.785 198.107Z" fill="#E8E8EB"/>
<path d="M237.883 46.5258C237.883 46.5258 231.463 40.7696 222.829 51.6179C214.194 62.4662 200.689 67.7797 197.59 71.9862C197.59 71.9862 210.43 66.6727 214.858 64.4588C219.286 62.2448 219.065 62.6876 219.065 62.6876C219.065 62.6876 213.087 66.8941 211.98 71.1006C210.873 75.3071 211.759 78.8494 209.766 83.0559C207.774 87.2624 247.846 85.934 247.846 85.934C247.846 85.934 251.831 79.0708 250.724 71.9862C249.617 64.9016 250.281 47.4114 237.883 46.5258Z" fill="#333333"/>
<path d="M225.74 64.6345C225.74 64.6345 227.136 74.4073 221.152 76.6012C215.169 78.7951 217.363 81.7868 217.363 81.7868L226.338 86.1746L235.911 83.1829L239.102 78.3962C239.102 78.3962 233.917 77.1996 235.313 73.6095C236.709 70.0195 237.108 68.8229 237.108 68.8229L225.74 64.6345Z" fill="#FFD260"/>
<path d="M250.87 92.5569C250.87 92.5569 249.474 110.906 249.872 111.704C250.271 112.501 249.872 140.224 249.872 140.224C249.872 140.224 252.665 155.183 249.075 155.98C245.485 156.778 246.282 139.227 246.282 139.227L242.692 116.091L243.091 93.1552L250.87 92.5569Z" fill="#FFD260"/>
<path opacity="0.1" d="M250.87 92.5569C250.87 92.5569 249.474 110.906 249.872 111.704C250.271 112.501 249.872 140.224 249.872 140.224C249.872 140.224 252.665 155.183 249.075 155.98C245.485 156.778 246.282 139.227 246.282 139.227L242.692 116.091L243.091 93.1552L250.87 92.5569Z" fill="#333333"/>
<path d="M211.978 147.803C211.978 147.803 205.396 172.734 205.596 184.9C205.795 197.066 208.388 214.019 208.388 214.019C208.388 214.019 208.787 221.398 208.188 222.196C207.59 222.994 211.18 226.385 211.18 226.385L214.969 224.191L216.366 222.595V221.199C216.366 221.199 214.172 214.418 215.967 209.033C217.762 203.648 218.759 190.085 216.964 185.897L229.329 149.199L211.978 147.803Z" fill="#FFD260"/>
<path d="M211.579 223.193C211.579 223.193 209.186 220.202 207.59 221.199C205.994 222.196 203.402 228.977 203.402 228.977C203.402 228.977 194.427 237.554 200.809 237.952C207.191 238.351 209.983 236.157 210.781 234.562C211.579 232.966 218.958 228.778 218.958 228.778C218.958 228.778 218.161 221.199 216.964 221C215.767 220.8 213.972 223.991 213.972 223.991L211.579 223.193Z" fill="#333333"/>
<path d="M233.717 149.399V174.13C233.74 177.131 233.94 180.128 234.316 183.105C234.914 187.493 230.925 220.202 230.925 220.202L231.324 225.986L236.31 225.587L236.908 220.601L244.088 198.662C244.088 198.662 246.482 185.299 245.285 180.313C244.088 175.327 251.468 143.415 251.468 143.415L233.717 149.399Z" fill="#FFD260"/>
<path d="M229.728 224.59L231.206 224.268C231.206 224.268 232.321 221.797 233.717 222.396C234.7 222.849 235.63 223.406 236.493 224.059L237.108 225.188C237.108 225.188 238.504 228.18 240.299 230.174C242.094 232.168 244.088 236.556 241.097 236.955C238.105 237.354 234.116 237.553 232.92 236.556C231.723 235.559 232.521 233.963 231.324 233.565C230.127 233.166 229.13 231.969 229.329 231.57C229.529 231.171 229.728 224.59 229.728 224.59Z" fill="#333333"/>
<path d="M233.717 71.5041C238.613 71.5041 242.581 67.5355 242.581 62.64C242.581 57.7445 238.613 53.7759 233.717 53.7759C228.822 53.7759 224.853 57.7445 224.853 62.64C224.853 67.5355 228.822 71.5041 233.717 71.5041Z" fill="#FFD260"/>
<path d="M216.964 78.1967L219.599 77.277C219.599 77.277 218.56 78.9945 224.144 79.9918C229.729 80.989 235.512 81.342 238.105 78.0741C238.105 78.0741 239.103 77.5984 240.499 78.9945C241.895 80.3906 242.693 79.9918 242.693 79.9918L241.695 85.1773L239.701 94.7507L237.108 101.931L229.729 100.335L221.751 94.5512L218.759 86.7729V79.5928L216.964 78.1967Z" fill="#0084F4"/>
<path d="M241.296 80.989L243.291 79.5929C243.291 79.5929 250.072 80.7895 250.471 83.9807L245.285 93.9529C246.343 96.7277 246.271 99.8064 245.086 102.529C243.091 107.116 243.291 108.114 243.291 108.114L241.895 114.097L216.565 116.091C216.565 116.091 215.568 113.698 215.169 113.299C214.77 112.9 214.77 111.504 215.169 111.504C215.568 111.504 215.169 110.906 214.77 110.307C214.371 109.709 214.172 109.51 214.77 108.712C215.368 107.914 213.773 100.734 213.773 100.734V92.9557L206.992 83.9807C206.992 83.9807 209.385 80.3907 210.582 79.9918C211.778 79.5929 217.471 78.0198 217.471 78.0198L218.759 79.9164L220.554 94.3518L223.147 103.127L234.064 101.273L238.305 94.1524L241.097 85.7757L241.296 80.989Z" fill="#0084F4"/>
<path d="M248.875 82.7841L250.471 83.9807C250.471 83.9807 251.867 95.1497 251.468 95.9474C251.069 96.7452 244.089 97.543 243.889 97.1441C243.69 96.7452 248.875 82.7841 248.875 82.7841Z" fill="#0084F4"/>
<path d="M215.967 77.1995L217.961 90.3629C217.961 90.3629 216.166 109.909 216.565 113.897L216.964 115.094C216.964 115.094 216.166 114.695 215.967 115.493C215.767 116.291 215.967 118.884 215.967 118.884C215.967 118.884 214.77 120.08 214.371 126.662C213.972 133.244 209.186 149 210.981 149.598C212.776 150.196 223.546 153.188 229.33 152.59C235.113 151.992 255.856 145.011 255.656 143.216C255.457 141.421 245.485 116.091 245.485 116.091C245.485 116.091 243.69 113.1 243.69 112.701C243.69 112.302 246.083 110.706 245.485 109.111C244.886 107.515 241.695 90.7618 241.695 90.7618L243.889 78.7951L240.897 77.9973L238.703 89.5651C238.703 89.5651 230.127 93.7535 221.152 89.964L219.158 76.4017L215.967 77.1995Z" fill="#333333"/>
<path d="M225.563 56.2786C225.563 56.2786 240.322 66.4503 244.311 61.863C248.299 57.2758 237.33 53.2869 237.33 53.2869L228.156 52.2897L225.563 56.2786Z" fill="#333333"/>
<path d="M202.631 164.485C204.15 165.616 206.029 166.154 207.917 165.998C209.804 165.842 211.57 165.004 212.883 163.639C214.197 162.275 214.967 160.478 215.05 158.586C215.134 156.694 214.524 154.837 213.336 153.362C212.148 151.887 210.463 150.897 208.596 150.575C206.73 150.254 204.811 150.625 203.198 151.618C201.585 152.611 200.39 154.158 199.836 155.969C199.283 157.78 199.408 159.73 200.19 161.455L179.835 178.404L177.124 175.187L175.907 176.002L174.551 174.393L175.665 173.455L174.31 171.847L172.578 173.306L173.412 174.296L171.556 175.859L170.722 174.87L168 177.163L169.251 178.648L170.241 177.814L171.596 179.422L170.359 180.465L172.86 183.434L169.891 185.936L172.914 189.524L202.631 164.485ZM207.713 153.116C208.728 153.202 209.694 153.588 210.489 154.224C211.284 154.859 211.873 155.717 212.182 156.687C212.49 157.657 212.503 158.697 212.22 159.675C211.937 160.653 211.371 161.526 210.592 162.182C209.814 162.838 208.858 163.248 207.846 163.361C206.834 163.474 205.811 163.284 204.907 162.816C204.003 162.348 203.258 161.622 202.767 160.73C202.275 159.839 202.059 158.821 202.146 157.807C202.262 156.446 202.914 155.188 203.958 154.308C205.002 153.428 206.353 153 207.713 153.116Z" fill="#FF647C"/>
<path d="M205.596 94.9502C205.596 94.9502 206.992 113.299 206.593 114.097C206.194 114.895 206.593 142.618 206.593 142.618C206.593 142.618 203.801 157.576 207.391 158.374C210.981 159.172 210.183 141.62 210.183 141.62L213.773 118.485L213.374 95.5485L205.596 94.9502Z" fill="#FFD260"/>
<path d="M208.587 83.3823L206.992 83.9807C206.992 83.9807 204 96.5457 204.798 96.5457C205.596 96.5457 215.169 97.7424 215.169 97.3435C215.169 96.9446 213.374 87.1718 213.374 87.1718L208.587 83.3823Z" fill="#0084F4"/>
</svg>
