<svg width="256" height="256" viewBox="0 0 256 256" fill="none" xmlns="http://www.w3.org/2000/svg">
<path d="M199.626 176.346L200.97 168.544L195.277 163.022L203.144 161.877L206.662 154.778L210.18 161.877L218.047 163.022L212.355 168.544L213.698 176.346L206.662 172.661L203.144 174.504" stroke="#FF647C" stroke-linecap="round" stroke-linejoin="round"/>
<path d="M206.662 124.984L205.507 123.818C204.383 122.684 202.859 122.046 201.27 122.046C199.68 122.046 198.156 122.684 197.032 123.818C195.908 124.952 195.277 126.491 195.277 128.095C195.277 132.526 202.108 140.19 206.662 140.19C211.216 140.19 218.047 132.526 218.047 128.095C218.047 126.49 217.415 124.952 216.292 123.818C215.168 122.683 213.644 122.046 212.054 122.046C210.946 122.046 209.87 122.356 208.939 122.927" stroke="#FF647C" stroke-linecap="round" stroke-linejoin="round"/>
<path d="M214.631 88.1799L198.692 104.056" stroke="#FF647C" stroke-linecap="round" stroke-linejoin="round"/>
<path d="M212.354 105.19C214.241 105.19 215.77 103.667 215.77 101.788C215.77 99.9089 214.241 98.3857 212.354 98.3857C210.468 98.3857 208.939 99.9089 208.939 101.788C208.939 103.667 210.468 105.19 212.354 105.19Z" stroke="#FF647C" stroke-linecap="round" stroke-linejoin="round"/>
<path d="M200.969 93.8498C202.856 93.8498 204.385 92.3267 204.385 90.4479C204.385 88.569 202.856 87.0459 200.969 87.0459C199.083 87.0459 197.554 88.569 197.554 90.4479C197.554 92.3267 199.083 93.8498 200.969 93.8498Z" stroke="#FF647C" stroke-linecap="round" stroke-linejoin="round"/>
<path d="M137.347 70.9458C140.883 70.9458 143.75 68.09 143.75 64.5673C143.75 61.0445 140.883 58.1887 137.347 58.1887C133.81 58.1887 130.943 61.0445 130.943 64.5673C130.943 68.09 133.81 70.9458 137.347 70.9458Z" fill="#E8E8EB"/>
<path d="M76.9761 116.306C79.1325 116.306 80.8805 114.565 80.8805 112.417C80.8805 110.269 79.1325 108.528 76.9761 108.528C74.8198 108.528 73.0718 110.269 73.0718 112.417C73.0718 114.565 74.8198 116.306 76.9761 116.306Z" fill="#E8E8EB"/>
<path d="M125.785 208.107C127.941 208.107 129.689 206.365 129.689 204.218C129.689 202.07 127.941 200.329 125.785 200.329C123.628 200.329 121.88 202.07 121.88 204.218C121.88 206.365 123.628 208.107 125.785 208.107Z" fill="#E8E8EB"/>
<path d="M59.1236 211.168L67.1769 208.829L70.6936 230.625L65.2371 232.21L59.1236 211.168Z" fill="#FFD260"/>
<path d="M82.6892 232.635L82.4573 231.837C82.0084 230.292 80.9638 228.988 79.5534 228.213C78.1431 227.438 76.4824 227.254 74.9368 227.703L63.615 230.991L65.5396 237.615L82.6892 232.635Z" fill="#333333"/>
<path d="M8.84526 210.429L17.2319 210.429L14.5287 232.339L8.84664 232.34L8.84526 210.429Z" fill="#FFD260"/>
<path d="M25.4873 237.614L25.4873 236.783C25.4872 235.986 25.3302 235.197 25.0252 234.461C24.7202 233.725 24.2732 233.056 23.7096 232.493C23.1461 231.93 22.4771 231.483 21.7408 231.178C21.0045 230.873 20.2153 230.716 19.4184 230.716L7.62863 230.717L7.62896 237.615L25.4873 237.614Z" fill="#333333"/>
<path d="M16.5568 157.334C15.436 156.797 14.5745 155.837 14.1618 154.665C13.7491 153.493 13.819 152.205 14.356 151.085L15.9444 136.131L23.8586 132.75L20.9083 149.043C21.9615 149.645 22.74 150.632 23.08 151.797C23.42 152.961 23.295 154.212 22.7312 155.286C22.1675 156.36 21.209 157.174 20.0574 157.556C18.9059 157.938 17.651 157.858 16.5568 157.334Z" fill="#FFD260"/>
<path d="M17.9732 117.057L27.2584 88.8769C27.4521 88.5538 29.7633 84.9172 34.796 86.4642C35.3515 86.6204 35.8689 86.8891 36.3162 87.2537C36.7634 87.6182 37.1308 88.0709 37.3957 88.5834C38.8689 91.4069 37.4948 95.7687 37.4887 95.7918L26.0571 121.401L26.0452 121.428L22.4369 147.728L14.6446 146.147L17.9732 117.057Z" fill="#8C8E99"/>
<path d="M79.689 221.307L65.7133 178.464L49.5091 141.436L49.7424 123.478L30.5131 118.995L28.2738 126.521C15.3229 135.064 19.5893 151.498 19.8937 152.599L0.379997 224.594L21.6572 226.957L35.9392 158.792L49.1108 186.49L58.4239 227.921L79.689 221.307Z" fill="#333333"/>
<path d="M21.0637 166.996C21.2092 164.512 23.1591 162.513 25.6387 162.305L56.6477 159.714C59.2165 159.499 61.5275 161.272 61.9848 163.809L67.6873 195.444C68.2104 198.346 66.1216 201.068 63.1831 201.314L24.5816 204.54C21.5494 204.794 18.9958 202.303 19.1737 199.265L21.0637 166.996Z" fill="#FF647C"/>
<path fill-rule="evenodd" clip-rule="evenodd" d="M40.5 167C43.5376 167 46 164.538 46 161.5C46 158.462 43.5376 156 40.5 156C37.4624 156 35 158.462 35 161.5C35 164.538 37.4624 167 40.5 167ZM40.5 169C44.6421 169 48 165.642 48 161.5C48 157.358 44.6421 154 40.5 154C36.3579 154 33 157.358 33 161.5C33 165.642 36.3579 169 40.5 169Z" fill="#FF647C"/>
<path d="M43.5575 155.433C43.082 156.476 42.2401 157.309 41.1913 157.774C40.1425 158.239 38.9597 158.302 37.8669 157.953C36.7742 157.604 35.8475 156.867 35.2624 155.88C34.6773 154.894 34.4745 153.727 34.6924 152.601L32.4445 137.732L39.2454 132.459L40.5145 148.968C41.1735 149.141 41.7864 149.457 42.3101 149.893C42.8338 150.329 43.2555 150.874 43.5456 151.49C43.8358 152.107 43.9872 152.779 43.9892 153.46C43.9913 154.141 43.8439 154.815 43.5575 155.433Z" fill="#FFD260"/>
<path d="M42.1173 147.693L38.907 120.962L43.483 93.3005C43.4938 93.1065 43.7212 88.5192 41.4669 86.0328C41.0451 85.5631 40.5313 85.1851 39.9572 84.9224C39.3832 84.6597 38.7612 84.5179 38.13 84.5057C32.4125 84.2554 31.0454 89.0175 31.0323 89.0654L29.1703 118.782L33.371 148.179L42.1173 147.693Z" fill="#8C8E99"/>
<path d="M51.1288 108.402C54.952 101.076 52.1878 98.2858 48.008 94.066C46.2997 92.3993 44.6968 90.6279 43.2086 88.7621C36.6874 80.3806 29.119 84.4969 29.0433 84.5397L29.0007 84.5636L27.1308 87.3676C20.9686 93.5675 30.3133 110.604 31.0231 111.873L30.5543 124.055L50.4268 125.947L51.1288 108.402Z" fill="#8C8E99"/>
<path d="M38.8546 80.9237C32.5676 80.9237 27.471 75.8286 27.471 69.5433C27.471 63.2581 32.5676 58.163 38.8546 58.163C45.1416 58.163 50.2383 63.2581 50.2383 69.5433C50.2383 75.8286 45.1416 80.9237 38.8546 80.9237Z" fill="#FFD260"/>
<path d="M50.4634 67.5732L49.8438 66.5762C48.3028 66.2689 46.7043 66.4502 45.2713 67.0947C43.8384 67.7392 42.6424 68.8148 41.8502 70.1715C41.4593 68.7314 39.1356 68.8056 38.2757 70.0253C37.4158 71.245 37.6061 72.8929 37.8852 74.3588C38.1641 75.8246 38.4798 77.4177 37.8028 78.7475C37.4415 79.3686 36.922 79.8828 36.2974 80.238C35.6727 80.5931 34.965 80.7765 34.2464 80.7695C32.8052 80.7346 31.4039 80.2888 30.2076 79.4845C28.0075 78.0844 26.2484 76.0907 25.1335 73.7337C24.0185 71.3766 23.5931 68.7524 23.9063 66.164C24.1963 64.1481 24.9454 62.2256 26.0961 60.5449C25.4366 60.4952 24.821 60.196 24.3745 59.7083C24.0655 59.3056 23.8738 58.8254 23.8205 58.3206C23.7673 57.8158 23.8546 57.3062 24.0728 56.8479C24.4547 56.0465 25.0362 55.3566 25.7615 54.8443C25.2403 55.2602 24.6277 55.5462 23.9742 55.6787C23.1709 55.7945 22.2332 55.3774 22.0877 54.6035C21.9489 53.8662 22.5395 53.1953 23.0853 52.6549C23.4392 52.3043 23.7933 51.9537 24.1474 51.6031C23.9638 51.3954 23.7932 51.1766 23.6367 50.9477C23.0465 50.1212 22.7076 49.1419 22.6607 48.1275C22.6138 47.1131 22.8609 46.1067 23.3723 45.2292C22.3593 46.9588 23.2481 49.0168 25.0328 50.4189C25.0901 50.464 25.1546 50.5036 25.2135 50.5475L25.8906 49.8769C26.4205 49.2757 27.0691 48.7908 27.7957 48.4528C28.545 48.1655 29.502 48.2495 29.991 48.859C30.5143 49.5114 30.3678 50.5492 30.9803 51.123C31.5161 51.6252 32.3885 51.5411 33.1099 51.3292C33.831 51.1174 34.5765 50.8073 35.3056 50.9661C35.7959 51.111 36.2149 51.4328 36.4813 51.8691C36.7476 52.3053 36.8424 52.825 36.7471 53.3272C36.6651 53.7601 36.4824 54.1676 36.2138 54.517C38.2294 54.3458 40.2555 54.3395 42.272 54.4982C44.6455 54.6303 47.0707 54.7948 49.26 55.721C51.4491 56.6471 53.3952 58.4894 53.799 60.8313C54.2029 63.1733 52.8317 67.3673 50.4634 67.5732Z" fill="#333333"/>
<path d="M256 62.864H254.92V33.8136C254.92 31.6056 254.477 29.4192 253.617 27.3793C252.756 25.3394 251.495 23.4859 249.905 21.9246C248.315 20.3633 246.428 19.1248 244.35 18.2799C242.273 17.4349 240.047 17 237.798 17H175.122C170.581 17 166.226 18.7714 163.015 21.9246C159.804 25.0777 158 29.3543 158 33.8135V193.186C158 195.394 158.443 197.581 159.303 199.621C160.164 201.661 161.425 203.514 163.015 205.075C164.605 206.637 166.492 207.875 168.57 208.72C170.647 209.565 172.873 210 175.122 210H237.798C242.339 210 246.694 208.229 249.905 205.075C253.116 201.922 254.92 197.646 254.92 193.186V83.5426H256V62.864Z" fill="#333333"/>
<path d="M237.437 22.0001H229.399C229.769 22.8948 229.91 23.8655 229.81 24.8268C229.71 25.788 229.373 26.7103 228.827 27.5123C228.281 28.3143 227.543 28.9715 226.68 29.4259C225.816 29.8803 224.852 30.118 223.873 30.1181H188.596C187.617 30.118 186.654 29.8803 185.79 29.4259C184.926 28.9715 184.189 28.3143 183.643 27.5123C183.097 26.7103 182.759 25.7881 182.659 24.8268C182.559 23.8655 182.7 22.8948 183.07 22.0001H175.563C173.913 22.0001 172.279 22.3209 170.755 22.9442C169.231 23.5675 167.846 24.481 166.679 25.6327C165.513 26.7844 164.588 28.1517 163.956 29.6565C163.325 31.1613 163 32.7741 163 34.4028V191.597C163 193.226 163.325 194.839 163.956 196.344C164.588 197.848 165.513 199.216 166.679 200.367C167.846 201.519 169.231 202.433 170.755 203.056C172.279 203.679 173.913 204 175.563 204H237.437C239.087 204 240.721 203.679 242.245 203.056C243.769 202.433 245.154 201.519 246.321 200.367C247.487 199.216 248.412 197.848 249.044 196.344C249.675 194.839 250 193.226 250 191.597V34.4028C250 32.7741 249.675 31.1613 249.044 29.6565C248.412 28.1517 247.487 26.7844 246.321 25.6327C245.154 24.481 243.769 23.5675 242.245 22.9442C240.721 22.3209 239.087 22.0001 237.437 22.0001Z" fill="white"/>
<path d="M169.172 40.7205C169.172 38.2668 171.211 36.2778 173.726 36.2778H238.621C241.136 36.2778 243.175 38.2668 243.175 40.7205V40.8351C243.175 43.2887 241.136 45.2778 238.621 45.2778H173.726C171.211 45.2778 169.172 43.2887 169.172 40.8351V40.7205Z" fill="#0084F4"/>
<path d="M169.172 56.7205C169.172 54.2668 171.211 52.2778 173.726 52.2778H238.621C241.136 52.2778 243.175 54.2668 243.175 56.7205V56.8351C243.175 59.2887 241.136 61.2778 238.621 61.2778H173.726C171.211 61.2778 169.172 59.2887 169.172 56.8351V56.7205Z" fill="#0084F4"/>
</svg>
