<svg width="256" height="256" viewBox="0 0 256 256" fill="none" xmlns="http://www.w3.org/2000/svg">
<circle cx="128" cy="128" r="128" fill="#F7F8FD"/>
<circle cx="128" cy="127.772" r="80" fill="#00C48C"/>
<g clip-path="url(#clip0_1806_14394)">
<path d="M68.1302 150.636V162.543" stroke="#0084F4" stroke-linecap="round" stroke-linejoin="round"/>
<path d="M62.1531 156.59H74.1073" stroke="#0084F4" stroke-linecap="round" stroke-linejoin="round"/>
<path d="M157.51 55.2095C160.163 55.2095 162.313 53.0676 162.313 50.4255C162.313 47.7835 160.163 45.6416 157.51 45.6416C154.857 45.6416 152.707 47.7835 152.707 50.4255C152.707 53.0676 154.857 55.2095 157.51 55.2095Z" fill="#E8E8EB"/>
<path d="M217.232 119.229C218.849 119.229 220.16 117.924 220.16 116.313C220.16 114.702 218.849 113.396 217.232 113.396C215.615 113.396 214.304 114.702 214.304 116.313C214.304 117.924 215.615 119.229 217.232 119.229Z" fill="#E8E8EB"/>
<path d="M88.8385 210.58C90.4558 210.58 91.7668 209.274 91.7668 207.663C91.7668 206.053 90.4558 204.747 88.8385 204.747C87.2213 204.747 85.9102 206.053 85.9102 207.663C85.9102 209.274 87.2213 210.58 88.8385 210.58Z" fill="#E8E8EB"/>
<path d="M223.962 70.2279C224.096 69.2753 223.876 68.3065 223.344 67.5052C222.813 66.7039 222.006 66.1257 221.077 65.8802C220.149 65.6347 219.162 65.7389 218.305 66.1731C217.448 66.6074 216.779 67.3414 216.426 68.2362L208.146 77.7425L210.576 84.538L218.903 73.4302C219.446 73.6045 220.021 73.6574 220.587 73.5851C221.153 73.5128 221.696 73.3171 222.179 73.0118C222.661 72.7065 223.071 72.299 223.379 71.818C223.687 71.337 223.886 70.7942 223.962 70.2279Z" fill="#FFD260"/>
<path d="M189.64 107.217L217.125 77.8409L213.418 71.9383L178.944 101.136L189.64 107.217Z" fill="#8C8E99"/>
<path d="M183.505 89.3684C188.83 89.3684 193.147 85.0455 193.147 79.713C193.147 74.3805 188.83 70.0576 183.505 70.0576C178.181 70.0576 173.864 74.3805 173.864 79.713C173.864 85.0455 178.181 89.3684 183.505 89.3684Z" fill="#333333"/>
<path d="M184.28 74.2585C186.355 72.1516 188.866 70.5258 191.635 69.4954C193.413 68.8358 195.348 68.4283 197.207 68.8029C199.066 69.1775 200.824 70.4652 201.342 72.2916C201.766 73.7851 201.328 75.3931 200.67 76.7989C200.012 78.2048 199.134 79.5085 198.602 80.9668C198.059 82.4548 197.895 84.0551 198.127 85.6223C198.358 87.1896 198.976 88.6742 199.926 89.9413C200.875 91.2085 202.126 92.2182 203.563 92.8786C205.001 93.5391 206.581 93.8294 208.16 93.7233C206.333 93.9685 204.65 94.828 202.865 95.2855C201.08 95.743 198.973 95.712 197.646 94.4312C196.243 93.0761 196.214 90.8729 196.282 88.9216C196.383 86.021 196.484 83.1204 196.585 80.2197C196.636 78.7405 196.68 77.2138 196.148 75.8331C195.615 74.4524 194.349 73.2434 192.871 73.256C191.751 73.2655 190.759 73.945 189.861 74.6152C188.963 75.2854 188.012 76.0004 186.896 76.1001C185.781 76.1998 184.507 75.3729 184.59 74.2542L184.28 74.2585Z" fill="#333333"/>
<path d="M146.887 144.544C145.962 144.802 144.974 144.71 144.111 144.287C143.249 143.864 142.571 143.139 142.206 142.249C141.842 141.358 141.816 140.365 142.134 139.458C142.452 138.55 143.091 137.79 143.931 137.323L152.26 127.86L159.305 129.384L149.397 139.103C149.64 139.62 149.768 140.184 149.77 140.755C149.772 141.327 149.65 141.892 149.41 142.41C149.171 142.929 148.821 143.389 148.385 143.758C147.949 144.126 147.438 144.395 146.887 144.544H146.887Z" fill="#FFD260"/>
<path d="M174.29 110.665L153.531 136.762L147.203 133.852L171.603 95.8085L174.29 110.665Z" fill="#8C8E99"/>
<path d="M157.726 189.465L152.779 189.388L153.374 206.275H157.725L157.726 189.465Z" fill="#FFD260"/>
<path d="M158.835 204.853L150.265 204.852H150.265C148.816 204.852 147.427 205.429 146.403 206.454C145.379 207.48 144.803 208.871 144.803 210.322V210.5L158.835 210.5L158.835 204.853Z" fill="#333333"/>
<path d="M190.484 184.986L185.079 188.461L195.89 201.487L199.552 199.132L190.484 184.986Z" fill="#FFD260"/>
<path d="M199.719 197.334L192.507 201.971L192.507 201.971C191.288 202.755 190.43 203.992 190.121 205.409C189.813 206.826 190.079 208.308 190.861 209.529L190.957 209.678L202.765 202.086L199.719 197.334Z" fill="#333333"/>
<path d="M192.409 133.418C192.409 133.418 180.401 93.4753 176.542 92.9356C172.682 92.3958 166.464 103.184 166.464 103.184C158.402 113.486 150.089 146.854 150.089 146.854C150.089 146.854 163.948 147.722 174.078 153.12C184.209 158.518 196.164 152.847 196.164 152.847L192.409 133.418Z" fill="#8C8E99"/>
<path opacity="0.1" d="M192.409 133.418C192.409 133.418 180.401 93.4753 176.542 92.9355C172.682 92.3958 168.044 103.294 168.044 103.294C164.026 119.923 150.089 146.854 150.089 146.854C150.089 146.854 163.948 147.722 174.078 153.12C184.209 158.518 196.164 152.847 196.164 152.847L192.409 133.418Z" fill="#8C8E99"/>
<path d="M182.557 121.468V141.539L184.916 170.613L196.699 192.606L191.075 196.629L175.007 175.709L168.651 154.937L158.67 200.92L151.171 200.384L156.379 136.629L166.262 118.683L182.557 121.468Z" fill="#333333"/>
<path d="M170.45 102.054C166.7 105.809 170.182 109.832 170.182 109.832L165.897 119.488L182.769 124.047L188.665 97.6617L184.648 93.3704C176.614 93.1022 176.609 92.9354 176.609 92.9354C175.202 94.315 170.45 102.054 170.45 102.054Z" fill="#FF647C"/>
<path d="M189.345 94.9281C188.578 94.3616 187.707 93.9531 186.782 93.7261C185.857 93.499 184.896 93.4581 183.955 93.6056C183.014 93.7531 182.112 94.0861 181.3 94.5854C180.489 95.0846 179.784 95.7402 179.227 96.514C174.986 102.429 171.064 111.979 176.468 123.89C185.144 143.016 192.695 152.807 195.765 152.806C195.899 152.807 196.032 152.786 196.159 152.743C198.049 152.101 200.781 148.9 201.275 146.078C201.452 145.068 201.41 143.661 200.204 142.695C196.74 139.92 190.521 131.28 188.581 119.907C187.508 113.623 189.588 107.899 191.521 104.204C192.337 102.675 192.576 100.903 192.193 99.2116C191.811 97.5205 190.832 96.0242 189.438 94.9969L189.345 94.9281Z" fill="#8C8E99"/>
<path d="M184.001 88.4198C187.441 86.537 188.705 82.2185 186.825 78.7742C184.944 75.3299 180.632 74.0641 177.193 75.9469C173.754 77.8297 172.49 82.1482 174.37 85.5925C176.25 89.0368 180.562 90.3027 184.001 88.4198Z" fill="#FFD260"/>
<path d="M170.616 81.6459H180.864L180.969 80.1725L181.495 81.6459H183.073L183.281 78.7256L184.322 81.6459H187.376V81.5013C187.373 79.4681 186.566 77.5189 185.13 76.0813C183.695 74.6437 181.749 73.835 179.718 73.8327H178.274C176.244 73.835 174.297 74.6437 172.862 76.0813C171.426 77.5189 170.619 79.4681 170.616 81.5013V81.6459Z" fill="#333333"/>
<path d="M185.828 86.9423L190.201 85.5211V74.8853H181.94L182.145 75.0898C184.99 77.9357 188.155 88.0326 185.828 86.9423Z" fill="#333333"/>
<path d="M105.5 79.1481H104.69V57.3603C104.69 55.7043 104.358 54.0645 103.713 52.5346C103.067 51.0046 102.121 49.6145 100.929 48.4435C99.7365 47.2725 98.3208 46.3437 96.7628 45.71C95.2048 45.0762 93.535 44.7501 91.8486 44.7501H44.8415C41.4357 44.7501 38.1694 46.0786 35.7612 48.4435C33.353 50.8083 32 54.0158 32 57.3602V176.89C32 178.546 32.3322 180.186 32.9775 181.716C33.6228 183.246 34.5687 184.636 35.7612 185.807C36.9536 186.978 38.3693 187.906 39.9273 188.54C41.4853 189.174 43.1551 189.5 44.8415 189.5H91.8485C95.2543 189.5 98.5206 188.172 100.929 185.807C103.337 183.442 104.69 180.234 104.69 176.89V94.657H105.5V79.1481Z" fill="#333333"/>
<path d="M91.5781 48.5001H85.5496C85.8268 49.1712 85.9326 49.8992 85.8577 50.6202C85.7828 51.3411 85.5295 52.0328 85.12 52.6343C84.7106 53.2358 84.1576 53.7287 83.5098 54.0695C82.8619 54.4103 82.1392 54.5886 81.4051 54.5886H54.947C54.213 54.5886 53.4902 54.4103 52.8424 54.0695C52.1945 53.7287 51.6415 53.2358 51.2321 52.6343C50.8226 52.0328 50.5693 51.3411 50.4944 50.6202C50.4195 49.8992 50.5253 49.1712 50.8026 48.5001H45.1719C43.9346 48.5001 42.7094 48.7407 41.5663 49.2082C40.4232 49.6757 39.3845 50.3609 38.5096 51.2246C37.6347 52.0884 36.9407 53.1139 36.4672 54.2424C35.9937 55.371 35.75 56.5806 35.75 57.8022V175.698C35.75 176.92 35.9937 178.129 36.4672 179.258C36.9407 180.386 37.6347 181.412 38.5096 182.276C39.3845 183.139 40.4232 183.825 41.5663 184.292C42.7094 184.76 43.9346 185 45.1719 185H91.5781C92.8154 185 94.0406 184.76 95.1837 184.292C96.3268 183.825 97.3655 183.139 98.2404 182.276C99.1153 181.412 99.8093 180.386 100.283 179.258C100.756 178.129 101 176.92 101 175.698V57.8022C101 56.5806 100.756 55.371 100.283 54.2424C99.8093 53.1139 99.1153 52.0884 98.2404 51.2246C97.3655 50.3609 96.3268 49.6757 95.1837 49.2082C94.0406 48.7407 92.8154 48.5001 91.5781 48.5001Z" fill="white"/>
<path d="M40.3793 62.6239C40.3793 60.7376 41.9084 59.2084 43.7948 59.2084H92.4657C94.352 59.2084 95.8812 60.7375 95.8812 62.6239V88.962C95.8812 90.8483 94.352 92.3775 92.4657 92.3775H43.7948C41.9084 92.3775 40.3793 90.8483 40.3793 88.962V62.6239Z" fill="#0084F4"/>
<path d="M40.3793 100.896C40.3793 99.0096 41.9084 97.4805 43.7948 97.4805H92.4657C94.352 97.4805 95.8812 99.0096 95.8812 100.896V127.234C95.8812 129.12 94.352 130.65 92.4657 130.65H43.7948C41.9084 130.65 40.3793 129.12 40.3793 127.234V100.896Z" fill="#0084F4"/>
</g>
<defs>
<clipPath id="clip0_1806_14394">
<rect width="192" height="192" fill="white" transform="translate(32 32.0001)"/>
</clipPath>
</defs>
</svg>
