<svg width="256" height="256" viewBox="0 0 256 256" fill="none" xmlns="http://www.w3.org/2000/svg">
<circle cx="128" cy="128" r="128" fill="#F7F8FD"/>
<circle cx="128" cy="127.772" r="80" fill="#00C48C"/>
<path d="M72.875 78.5001C74.739 78.5001 76.25 76.9891 76.25 75.1251C76.25 73.2612 74.739 71.7501 72.875 71.7501C71.011 71.7501 69.5 73.2612 69.5 75.1251C69.5 76.9891 71.011 78.5001 72.875 78.5001Z" fill="#E8E8EB"/>
<path d="M188.732 116.979C190.349 116.979 191.66 115.674 191.66 114.063C191.66 112.452 190.349 111.146 188.732 111.146C187.115 111.146 185.804 112.452 185.804 114.063C185.804 115.674 187.115 116.979 188.732 116.979Z" fill="#E8E8EB"/>
<path d="M171.339 182.08C172.956 182.08 174.267 180.774 174.267 179.163C174.267 177.553 172.956 176.247 171.339 176.247C169.721 176.247 168.41 177.553 168.41 179.163C168.41 180.774 169.721 182.08 171.339 182.08Z" fill="#E8E8EB"/>
<path d="M164.75 79.1481H163.94V57.3603C163.94 55.7043 163.608 54.0646 162.963 52.5346C162.317 51.0047 161.371 49.6145 160.179 48.4436C158.986 47.2726 157.571 46.3437 156.013 45.71C154.455 45.0763 152.785 44.7501 151.099 44.7501H104.092C100.686 44.7501 97.4194 46.0787 95.0112 48.4435C92.603 50.8084 91.25 54.0159 91.25 57.3603V176.89C91.25 178.546 91.5822 180.186 92.2275 181.716C92.8728 183.246 93.8187 184.636 95.0112 185.807C96.2036 186.978 97.6193 187.906 99.1773 188.54C100.735 189.174 102.405 189.5 104.091 189.5H151.099C154.504 189.5 157.771 188.172 160.179 185.807C162.587 183.442 163.94 180.234 163.94 176.89V94.6571H164.75V79.1481Z" fill="#333333"/>
<path d="M150.828 48.5002H144.8C145.077 49.1712 145.183 49.8993 145.108 50.6202C145.033 51.3412 144.779 52.0329 144.37 52.6344C143.961 53.2359 143.408 53.7287 142.76 54.0695C142.112 54.4103 141.389 54.5886 140.655 54.5887H114.197C113.463 54.5886 112.74 54.4103 112.092 54.0695C111.445 53.7287 110.892 53.2359 110.482 52.6344C110.073 52.0329 109.819 51.3412 109.744 50.6202C109.669 49.8993 109.775 49.1712 110.053 48.5002H104.422C103.185 48.5002 101.959 48.7408 100.816 49.2083C99.6732 49.6757 98.6345 50.3609 97.7596 51.2247C96.8847 52.0885 96.1907 53.1139 95.7172 54.2425C95.2437 55.3711 95 56.5807 95 57.8023V175.698C95 176.92 95.2437 178.129 95.7172 179.258C96.1907 180.386 96.8847 181.412 97.7596 182.276C98.6345 183.139 99.6732 183.825 100.816 184.292C101.959 184.76 103.185 185 104.422 185H150.828C152.065 185 153.291 184.76 154.434 184.292C155.577 183.825 156.615 183.139 157.49 182.276C158.365 181.412 159.059 180.386 159.533 179.258C160.006 178.129 160.25 176.92 160.25 175.698V57.8023C160.25 56.5807 160.006 55.3711 159.533 54.2425C159.059 53.1139 158.365 52.0885 157.49 51.2247C156.615 50.3609 155.577 49.6757 154.434 49.2083C153.291 48.7408 152.065 48.5002 150.828 48.5002Z" fill="white"/>
<path d="M137.939 95.0189H140.141C140.141 95.0189 142.16 110.617 140.692 112.085C139.224 113.553 135.187 114.47 134.636 112.085C134.086 109.699 134.636 100.891 134.636 100.891L137.939 95.0189Z" fill="#333333"/>
<path d="M123.534 97.1292C130.932 97.1292 136.93 90.1047 136.93 81.4396C136.93 72.7745 130.932 65.7501 123.534 65.7501C116.136 65.7501 110.138 72.7745 110.138 81.4396C110.138 90.1047 116.136 97.1292 123.534 97.1292Z" fill="#333333"/>
<path d="M120.506 84.3757C120.506 84.3757 121.24 90.4313 119.038 91.7158C116.836 93.0004 121.607 100.34 121.607 100.34L127.296 101.809L131.15 96.4869L130.415 90.9818C130.415 90.9818 126.011 86.5777 128.03 82.5406L120.506 84.3757Z" fill="#FFD260"/>
<path d="M112.249 150.11C112.249 150.11 110.047 170.112 112.249 174.883C114.451 179.655 120.323 193.05 120.323 193.05L118.488 196.904L123.442 195.803L125.461 191.949C125.461 191.949 123.075 182.591 122.708 179.288C122.341 175.984 119.589 169.929 119.589 169.929L124.727 148.092L112.249 150.11Z" fill="#FFD260"/>
<path d="M129.682 146.767C129.682 146.767 129.865 166.952 131.15 170.083L130.416 197.425L134.453 197.964C134.453 197.964 140.325 175.026 139.407 169.521C138.49 164.016 139.591 144.198 139.591 144.198L129.682 146.767Z" fill="#FFD260"/>
<path d="M123.534 86.853C127.385 86.853 130.507 83.731 130.507 79.8798C130.507 76.0287 127.385 72.9067 123.534 72.9067C119.683 72.9067 116.561 76.0287 116.561 79.8798C116.561 83.731 119.683 86.853 123.534 86.853Z" fill="#FFD260"/>
<path d="M147.298 149.336C147.298 149.336 142.343 152.639 140.325 150.253C138.306 147.868 113.533 151.722 110.414 150.987C107.294 150.253 112.065 138.509 112.065 132.454C112.065 127.923 113.709 121.031 114.537 117.845C114.816 116.773 115.001 116.122 115.001 116.122C115.001 116.122 116.884 110.765 116.532 108.539C116.508 108.371 116.462 108.206 116.394 108.049C116.365 107.984 116.328 107.922 116.286 107.864C115.407 106.692 112.887 98.1403 111.909 94.4684C111.75 93.925 111.618 93.3737 111.515 92.8169C111.515 92.2663 118.304 90.6148 120.002 90.5359C121.701 90.457 122.158 92.8169 122.158 92.8169C122.708 93.1839 125.277 99.6065 125.277 99.6065L127.663 93.5509C127.663 93.5509 127.48 92.2663 127.296 92.2663C127.113 92.2663 130.01 90.5341 130.01 90.5341C130.01 90.5341 132.985 92.6334 134.636 92.2663C136.288 91.8993 140.141 95.2024 140.141 95.2024C140.141 95.2024 133.352 112.268 136.104 115.938C138.857 119.608 147.298 149.336 147.298 149.336Z" fill="#333333"/>
<path d="M124.91 191.215C124.91 191.215 121.791 194.335 121.791 194.702L119.222 193.601C119.222 193.601 118.121 197.638 117.937 198.188C117.754 198.739 114.634 203.693 111.515 205.895C108.395 208.097 111.515 210.85 114.267 210.3C117.02 209.749 123.993 203.51 123.993 203.51C123.993 203.51 128.764 203.51 130.415 199.84C130.415 199.84 126.011 190.848 124.91 191.215Z" fill="#333333"/>
<path d="M134.086 196.508C134.086 196.508 129.372 193.083 129.068 196.263C128.764 199.444 128.764 206.417 128.764 206.417C128.764 206.417 127.296 211.005 131.884 210.454C136.471 209.904 136.838 208.619 136.838 208.619L134.636 199.811V195.957L134.086 196.508Z" fill="#333333"/>
<path opacity="0.1" d="M116.286 107.864C115.407 106.692 112.887 98.1403 111.909 94.4684H112.799C112.799 94.4684 115.034 103.216 116.394 108.049C116.365 107.984 116.328 107.922 116.286 107.864Z" fill="#333333"/>
<path opacity="0.1" d="M128.397 119.975C128.397 119.975 125.828 120.159 116.469 118.324C115.817 118.199 115.172 118.039 114.537 117.845C114.816 116.773 115.001 116.122 115.001 116.122C115.001 116.122 116.884 110.765 116.532 108.539C116.97 110.081 117.297 111.121 117.387 111.167C117.754 111.351 129.498 113.369 131.15 114.103C132.801 114.837 128.397 119.975 128.397 119.975Z" fill="#333333"/>
<path opacity="0.1" d="M131.7 95.9586C131.7 95.9586 136.762 95.3341 137.075 96.1548C137.389 96.9754 138.673 104.907 139.224 105.924C139.774 106.94 139.958 113.245 137.756 113.448C135.554 113.651 132.618 111.414 133.168 109.584C133.719 107.754 131.7 95.9586 131.7 95.9586Z" fill="#333333"/>
<path d="M129.131 112.819C129.131 112.819 136.838 113.736 138.123 112.819C139.407 111.901 144.729 111.901 143.628 114.47C142.527 117.039 132.984 117.223 132.984 117.223H127.479L129.131 112.819Z" fill="#FFD260"/>
<path d="M112.799 93.1838H111.515C111.515 93.1838 108.946 93.7343 109.313 101.809C109.68 109.883 107.111 115.204 116.469 117.039C125.828 118.874 128.397 118.691 128.397 118.691C128.397 118.691 132.801 113.553 131.15 112.819C129.498 112.085 117.754 110.066 117.387 109.883C117.02 109.699 112.799 93.1838 112.799 93.1838Z" fill="#333333"/>
<path d="M136.934 96.8058C136.934 96.8058 133.719 84.7427 131.149 84.7427C128.58 84.7427 125.644 85.2932 127.846 87.6787C130.048 90.0643 132.801 92.6333 132.985 93.9179C133.168 95.2024 133.902 97.0374 133.902 97.0374L136.934 96.8058Z" fill="#FFD260"/>
<path d="M132.434 95.9586C132.434 95.9586 137.496 95.3341 137.809 96.1548C138.123 96.9754 139.407 104.907 139.958 105.924C140.508 106.94 140.692 113.245 138.49 113.448C136.288 113.651 133.352 111.414 133.902 109.584C134.453 107.754 132.434 95.9586 132.434 95.9586Z" fill="#333333"/>
<path d="M121.699 79.8798C125.347 79.8798 128.305 76.9222 128.305 73.2737C128.305 69.6252 125.347 66.6676 121.699 66.6676C118.051 66.6676 115.093 69.6252 115.093 73.2737C115.093 76.9222 118.051 79.8798 121.699 79.8798Z" fill="#333333"/>
<path fill-rule="evenodd" clip-rule="evenodd" d="M91.25 76.136C87.4824 75.3552 83.8159 74.7464 80.277 74.3113C79.7289 74.244 79.2299 74.6337 79.1625 75.1818C79.0951 75.73 79.4848 76.229 80.033 76.2964C83.6406 76.74 87.3894 77.3678 91.25 78.1791V76.136ZM164 110.932C169.546 114.949 174.803 119.351 179.733 124.106C180.13 124.489 180.764 124.478 181.147 124.08C181.53 123.682 181.519 123.049 181.121 122.666C175.777 117.513 170.054 112.768 164 108.471V110.932ZM164 97.6546C166.486 99.2199 168.909 100.81 171.27 102.426C171.726 102.738 172.348 102.621 172.66 102.165C172.972 101.709 172.855 101.087 172.399 100.775C169.681 98.9149 166.881 97.0881 164 95.2949V97.6546ZM82.5555 64.4258C65.3036 61.0251 49.9546 60.5873 38.1585 63.1215C37.6186 63.2375 37.0868 62.8938 36.9708 62.3538C36.8548 61.8138 37.1985 61.2821 37.7384 61.1661C49.8913 58.5552 65.5335 59.032 82.9423 62.4636C83.4842 62.5704 83.8368 63.0962 83.73 63.6381C83.6232 64.18 83.0974 64.5326 82.5555 64.4258ZM65.9266 75.5159C66.4787 75.5039 66.9166 75.0466 66.9047 74.4944C66.8927 73.9423 66.4354 73.5044 65.8832 73.5163C50.9249 73.8406 39.4143 78.2429 35.0554 87.3431C31.1126 95.5745 33.8394 105.958 41.1172 116.609C41.4288 117.065 42.0511 117.182 42.5071 116.87C42.9631 116.559 43.0801 115.936 42.7685 115.48C35.6185 105.017 33.3891 95.4515 36.8591 88.207C40.6991 80.1902 51.1353 75.8365 65.9266 75.5159ZM193.328 138.775C193.798 138.484 194.414 138.628 194.706 139.097C200.788 148.888 202.856 158.352 199.207 165.971C195.995 172.675 188.888 176.826 179.452 178.675C178.91 178.781 178.385 178.428 178.279 177.886C178.173 177.344 178.526 176.818 179.068 176.712C188.199 174.923 194.579 171.003 197.403 165.107C200.613 158.405 198.95 149.719 193.007 140.152C192.715 139.683 192.859 139.066 193.328 138.775ZM213.056 139.058C212.744 138.603 212.121 138.486 211.666 138.798C211.21 139.11 211.093 139.733 211.405 140.188C216.712 147.94 219.923 155.367 220.758 162.057C220.826 162.605 221.326 162.994 221.874 162.925C222.422 162.857 222.811 162.357 222.742 161.809C221.854 154.697 218.471 146.968 213.056 139.058ZM54.0219 128.711C53.6287 128.323 52.9955 128.327 52.6077 128.72C52.22 129.114 52.2244 129.747 52.6177 130.135C64.3254 141.678 80.7238 153.072 100.046 162.327C117.017 170.456 133.858 175.793 148.768 178.25C149.313 178.34 149.828 177.971 149.918 177.426C150.008 176.881 149.639 176.367 149.094 176.277C134.392 173.854 117.732 168.581 100.91 160.523C81.7537 151.347 65.5471 140.074 54.0219 128.711ZM52.5262 143.365C52.8627 142.927 53.4904 142.844 53.9284 143.181C64.2197 151.086 76.1614 158.684 89.3586 165.522C89.849 165.776 90.0406 166.379 89.7865 166.87C89.5325 167.36 88.929 167.552 88.4386 167.298C75.1436 160.41 63.1011 152.749 52.7101 144.767C52.2721 144.431 52.1898 143.803 52.5262 143.365Z" fill="#0084F4"/>
</svg>
