<svg fill="none" height="257" viewBox="0 0 256 257" width="256" xmlns="http://www.w3.org/2000/svg" xmlns:xlink="http://www.w3.org/1999/xlink"><linearGradient id="a" gradientUnits="userSpaceOnUse" x1="36.7497" x2="171.906" y1="160.121" y2="42.7118"><stop offset="0" stop-color="#00c48c"/><stop offset="1" stop-color="#03e8a6"/></linearGradient><linearGradient id="b"><stop offset="0" stop-color="#ff5872"/><stop offset="1" stop-color="#ff7890"/></linearGradient><linearGradient id="c" gradientUnits="userSpaceOnUse" x1="135.45" x2="182.369" xlink:href="#b" y1="147.227" y2="126.671"/><linearGradient id="d" gradientUnits="userSpaceOnUse" x1="48" x2="208" y1="192.667" y2="64.6668"><stop offset="0" stop-color="#ff9960"/><stop offset="1" stop-color="#ffac60"/></linearGradient><linearGradient id="e" gradientUnits="userSpaceOnUse" x1="140" x2="180" xlink:href="#b" y1="144.667" y2="112.667"/><linearGradient id="f" gradientUnits="userSpaceOnUse" x1="67.2903" x2="188.71" y1="211.192" y2="46.142"><stop offset="0" stop-color="#ffe352"/><stop offset="1" stop-color="#fdff92"/></linearGradient><clipPath id="g"><path d="m0 0h160v108h-160z" transform="matrix(.96592583 .25881905 -.25881905 .96592583 64.7021 55.8013)"/></clipPath><clipPath id="h"><path d="m48 74.6667h160v108h-160z"/></clipPath><clipPath id="i"><path d="m0 0h160v108h-160z" transform="matrix(.96592583 -.25881905 .25881905 .96592583 36.7497 97.2124)"/></clipPath><clipPath id="j"><path d="m0 0h72v72h-72z" transform="matrix(.96592583 -.25881905 .25881905 .96592583 83.9954 103.533)"/></clipPath><g clip-path="url(#g)"><path d="m60.561 71.2559c2.2871-8.5354 11.0605-13.6007 19.5959-11.3137l123.6381 33.1289c8.536 2.287 13.601 11.0609 11.314 19.5959l-19.67 73.41c-2.287 8.536-11.061 13.601-19.596 11.314l-123.6385-33.129c-8.5355-2.287-13.6008-11.06-11.3137-19.596z" fill="url(#a)"/><path d="m160.282 123.988 1.427 2.511s2.962-1.917 4.803-2.468 3.808-.589 5.688-.085c2.697.722 4.993 2.501 6.382 4.945 1.389 2.443 1.758 5.351 1.026 8.084-2.023 7.549-17.112 17.499-24.84 15.429-7.728-2.071-15.82-18.232-13.797-25.781.732-2.733 2.506-5.066 4.93-6.488 2.425-1.421 5.303-1.814 7.999-1.091 2.697.722 4.993 2.501 6.382 4.944z" fill="url(#c)"/><g fill="#fff"><path d="m86.5717 82.3666c.2858-1.0669 1.3825-1.7 2.4495-1.4142 1.0669.2859 1.7 1.3826 1.4142 2.4495l-17.5997 65.6831c-.2859 1.067-1.3826 1.7-2.4495 1.414-1.067-.286-1.7001-1.382-1.4142-2.449z"/><path d="m98.1628 85.4725c.2859-1.067 1.3825-1.7001 2.4492-1.4142 1.067.2858 1.7 1.3825 1.414 2.4495l-13.4581 50.2282c-.2859 1.067-1.3826 1.7-2.4495 1.414s-1.7001-1.382-1.4142-2.449z"/><path d="m109.754 88.5783c.286-1.0669 1.382-1.7001 2.449-1.4142s1.7 1.3825 1.415 2.4495l-17.6001 65.6834c-.2859 1.066-1.3826 1.7-2.4495 1.414s-1.7001-1.383-1.4142-2.45z"/><path d="m121.345 91.6841c.286-1.0669 1.383-1.7001 2.449-1.4142 1.067.2859 1.701 1.3826 1.415 2.4495l-13.459 50.2286c-.286 1.066-1.382 1.7-2.449 1.414s-1.7-1.383-1.415-2.45z"/></g></g><g clip-path="url(#h)"><path d="m48 90.6667c0-8.8365 7.1634-16 16-16h128c8.837 0 16 7.1635 16 16v76.0003c0 8.836-7.163 16-16 16h-128c-8.8366 0-16-7.164-16-16z" fill="url(#d)"/><path d="m157.971 115.792 2.028 2.056s2.365-2.618 4.001-3.627c1.636-1.008 3.526-1.554 5.472-1.554 2.792 0 5.47 1.124 7.444 3.124 1.974 2.001 3.083 4.714 3.083 7.544 0 7.815-11.999 21.332-20 21.332-8 0-19.999-13.516-19.999-21.331 0-2.83 1.109-5.543 3.083-7.544 1.975-2 4.652-3.124 7.444-3.124s5.47 1.124 7.444 3.124z" fill="url(#e)"/><g fill="#fff"><path d="m76 94.6667c0-1.1045.8954-2 2-2s2 .8955 2 2v68.0003c0 1.104-.8954 2-2 2s-2-.896-2-2z"/><path d="m88 94.6667c0-1.1045.8954-2 2-2s2 .8955 2 2v52.0003c0 1.104-.8954 2-2 2s-2-.896-2-2z"/><path d="m100 94.6667c0-1.1045.895-2 2-2s2 .8955 2 2v68.0003c0 1.104-.895 2-2 2s-2-.896-2-2z"/><path d="m112 94.6667c0-1.1045.895-2 2-2s2 .8955 2 2v52.0003c0 1.104-.895 2-2 2s-2-.896-2-2z"/></g></g><g clip-path="url(#i)"><path d="m40.8908 112.667c-2.2871-8.535 2.7783-17.3086 11.3137-19.5957l123.6385-33.1288c8.535-2.2871 17.309 2.7782 19.596 11.3137l19.67 73.4108c2.287 8.535-2.778 17.308-11.314 19.595l-123.638 33.129c-8.5355 2.287-17.3089-2.778-19.596-11.313z" fill="url(#f)"/><g clip-rule="evenodd" fill-rule="evenodd"><path d="m189.542 95.6123c-1.067.2859-2.164-.3472-2.45-1.4142l-5.176-19.3185c-.286-1.0669-1.383-1.7001-2.45-1.4142l-19.318 5.1764c-1.067.2859-2.164-.3473-2.45-1.4142-.285-1.067.348-2.1636 1.415-2.4495l19.318-5.1764c3.201-.8577 6.491 1.0418 7.349 4.2426l5.176 19.3186c.286 1.0669-.347 2.1636-1.414 2.4494zm-120.6344 67.5237c-.2859-1.067-1.3825-1.701-2.4495-1.415-1.0669.286-1.7001 1.383-1.4142 2.45l5.1764 19.318c.8576 3.201 4.1477 5.101 7.3485 4.243l19.3185-5.176c1.0669-.286 1.7001-1.383 1.4142-2.45s-1.3826-1.7-2.4495-1.414l-19.3185 5.176c-1.0669.286-2.1636-.347-2.4495-1.414zm111.9454-7.22c-1.066.286-1.7 1.382-1.414 2.449s1.383 1.7 2.45 1.415l19.318-5.177c3.201-.857 5.101-4.148 4.243-7.348l-5.176-19.319c-.286-1.067-1.383-1.7-2.45-1.414s-1.7 1.383-1.414 2.449l5.176 19.319c.286 1.067-.347 2.164-1.414 2.449zm-105.7065-54.498c1.0669-.286 1.7001-1.383 1.4142-2.4496-.2859-1.067-1.3826-1.7001-2.4495-1.4142l-19.3185 5.1768c-3.2008.857-5.1003 4.147-4.2427 7.348l5.1764 19.319c.2859 1.066 1.3826 1.7 2.4495 1.414s1.7001-1.383 1.4142-2.45l-5.1764-19.318c-.2858-1.067.3473-2.164 1.4143-2.45z" fill="#333"/><g clip-path="url(#j)" fill="#ff647c"><path d="m143.935 101.537c.957.552 1.285 1.775.732 2.732l-29.698 51.439c-.552.957-1.775 1.285-2.732.732-.957-.552-1.284-1.775-.732-2.732l29.698-51.439c.553-.957 1.776-1.284 2.732-.732z"/><path d="m144.646 132.834c-3.735 1-5.951 4.839-4.95 8.573 1 3.734 4.839 5.95 8.573 4.95 3.734-1.001 5.95-4.839 4.95-8.574-1.001-3.734-4.839-5.95-8.573-4.949zm-8.814 9.608c-1.572-5.868 1.91-11.9 7.778-13.472s11.9 1.91 13.473 7.778c1.572 5.868-1.911 11.9-7.779 13.472-5.868 1.573-11.899-1.91-13.472-7.778z"/><path d="m107.903 111.62c-3.734 1.001-5.95 4.839-4.949 8.574 1 3.734 4.838 5.95 8.573 4.949 3.734-1 5.95-4.839 4.949-8.573-1-3.734-4.838-5.95-8.573-4.95zm-8.8132 9.609c-1.5724-5.868 1.9102-11.9 7.7782-13.472 5.868-1.573 11.9 1.91 13.472 7.778 1.573 5.868-1.91 11.9-7.778 13.472s-11.9-1.91-13.4722-7.778z"/></g></g></g></svg>