<svg width="128" height="128" viewBox="0 0 128 128" fill="none" xmlns="http://www.w3.org/2000/svg">
<circle cx="64" cy="64" r="64" fill="#F7F8FD"/>
<path d="M28.4444 28.4448L99.5555 99.5559" stroke="#FF647C" stroke-linecap="round" stroke-linejoin="round"/>
<path d="M51.6622 78.6136C55.2718 76.0491 59.5899 74.6714 64.0178 74.6714C68.4456 74.6714 72.7637 76.0491 76.3733 78.6136" stroke="#FF647C" stroke-linecap="round" stroke-linejoin="round"/>
<path d="M80.7822 60.6577C83.6946 62.0791 86.4179 63.8588 88.8889 65.9555" stroke="#FF647C" stroke-linecap="round" stroke-linejoin="round"/>
<path d="M39.1111 65.9558C44.3807 61.5498 50.7231 58.6179 57.4933 57.458" stroke="#FF647C" stroke-linecap="round" stroke-linejoin="round"/>
<path d="M26.3822 53.3333C31.3144 48.9736 36.9696 45.5083 43.0933 43.0933" stroke="#FF647C" stroke-linecap="round" stroke-linejoin="round"/>
<path d="M59.4133 39.2893C67.0308 38.6755 74.6939 39.6027 81.9451 42.0157C89.1963 44.4287 95.887 48.278 101.618 53.3337" stroke="#FF647C" stroke-linecap="round" stroke-linejoin="round"/>
<path d="M51.6622 78.6136C55.2718 76.0491 59.5899 74.6714 64.0178 74.6714C68.4456 74.6714 72.7637 76.0491 76.3733 78.6136" stroke="#FF647C" stroke-linecap="round" stroke-linejoin="round"/>
</svg>
