<svg width="256" height="257" viewBox="0 0 256 257" fill="none" xmlns="http://www.w3.org/2000/svg">
<g clip-path="url(#clip0_619_839)">
<path d="M60.561 71.2559C62.8481 62.7205 71.6215 57.6552 80.1569 59.9422L203.795 93.0711C212.331 95.3581 217.396 104.132 215.109 112.667L195.439 186.077C193.152 194.613 184.378 199.678 175.843 197.391L52.2045 164.262C43.669 161.975 38.6037 153.202 40.8908 144.666L60.561 71.2559Z" fill="url(#paint0_linear_619_839)"/>
<path d="M160.282 123.988L161.709 126.499C161.709 126.499 164.671 124.582 166.512 124.031C168.353 123.48 170.32 123.442 172.2 123.946C174.897 124.668 177.193 126.447 178.582 128.891C179.971 131.334 180.34 134.242 179.608 136.975C177.585 144.524 162.496 154.474 154.768 152.404C147.04 150.333 138.948 134.172 140.971 126.623C141.703 123.89 143.477 121.557 145.901 120.135C148.326 118.714 151.204 118.321 153.9 119.044C156.597 119.766 158.893 121.545 160.282 123.988Z" fill="url(#paint1_linear_619_839)"/>
<path d="M86.5717 82.3666C86.8575 81.2997 87.9542 80.6666 89.0212 80.9524C90.0881 81.2383 90.7212 82.335 90.4354 83.4019L72.8357 149.085C72.5498 150.152 71.4531 150.785 70.3862 150.499C69.3192 150.213 68.6861 149.117 68.972 148.05L86.5717 82.3666Z" fill="white"/>
<path d="M98.1628 85.4725C98.4487 84.4055 99.5453 83.7724 100.612 84.0583C101.679 84.3441 102.312 85.4408 102.026 86.5078L88.5679 136.736C88.282 137.803 87.1853 138.436 86.1184 138.15C85.0515 137.864 84.4183 136.768 84.7042 135.701L98.1628 85.4725Z" fill="white"/>
<path d="M109.754 88.5783C110.04 87.5114 111.136 86.8782 112.203 87.1641C113.27 87.45 113.903 88.5466 113.618 89.6136L96.0179 155.297C95.732 156.363 94.6353 156.997 93.5684 156.711C92.5015 156.425 91.8683 155.328 92.1542 154.261L109.754 88.5783Z" fill="white"/>
<path d="M121.345 91.6841C121.631 90.6172 122.728 89.984 123.794 90.2699C124.861 90.5558 125.495 91.6525 125.209 92.7194L111.75 142.948C111.464 144.014 110.368 144.648 109.301 144.362C108.234 144.076 107.601 142.979 107.886 141.912L121.345 91.6841Z" fill="white"/>
</g>
<g clip-path="url(#clip1_619_839)">
<path d="M48 90.6667C48 81.8302 55.1634 74.6667 64 74.6667H192C200.837 74.6667 208 81.8302 208 90.6667V166.667C208 175.503 200.837 182.667 192 182.667H64C55.1634 182.667 48 175.503 48 166.667V90.6667Z" fill="url(#paint2_linear_619_839)"/>
<path d="M157.971 115.792L159.999 117.848C159.999 117.848 162.364 115.23 164 114.221C165.636 113.213 167.526 112.667 169.472 112.667C172.264 112.667 174.942 113.791 176.916 115.791C178.89 117.792 179.999 120.505 179.999 123.335C179.999 131.15 168 144.667 159.999 144.667C151.999 144.667 140 131.151 140 123.336C140 120.506 141.109 117.793 143.083 115.792C145.058 113.792 147.735 112.668 150.527 112.668C153.319 112.668 155.997 113.792 157.971 115.792Z" fill="url(#paint3_linear_619_839)"/>
<path d="M76 94.6667C76 93.5622 76.8954 92.6667 78 92.6667C79.1046 92.6667 80 93.5622 80 94.6667V162.667C80 163.771 79.1046 164.667 78 164.667C76.8954 164.667 76 163.771 76 162.667V94.6667Z" fill="white"/>
<path d="M88 94.6667C88 93.5622 88.8954 92.6667 90 92.6667C91.1046 92.6667 92 93.5622 92 94.6667V146.667C92 147.771 91.1046 148.667 90 148.667C88.8954 148.667 88 147.771 88 146.667V94.6667Z" fill="white"/>
<path d="M100 94.6667C100 93.5622 100.895 92.6667 102 92.6667C103.105 92.6667 104 93.5622 104 94.6667V162.667C104 163.771 103.105 164.667 102 164.667C100.895 164.667 100 163.771 100 162.667V94.6667Z" fill="white"/>
<path d="M112 94.6667C112 93.5622 112.895 92.6667 114 92.6667C115.105 92.6667 116 93.5622 116 94.6667V146.667C116 147.771 115.105 148.667 114 148.667C112.895 148.667 112 147.771 112 146.667V94.6667Z" fill="white"/>
</g>
<g clip-path="url(#clip2_619_839)">
<path d="M40.8908 112.667C38.6037 104.132 43.6691 95.3584 52.2045 93.0713L175.843 59.9425C184.378 57.6554 193.152 62.7207 195.439 71.2562L215.109 144.667C217.396 153.202 212.331 161.975 203.795 164.262L80.157 197.391C71.6215 199.678 62.8481 194.613 60.561 186.078L40.8908 112.667Z" fill="url(#paint4_linear_619_839)"/>
<g clip-path="url(#clip3_619_839)">
<path fill-rule="evenodd" clip-rule="evenodd" d="M123.946 98.0821C123.948 98.0826 123.949 98.083 123.951 98.0834L147.341 104.239C148.696 104.602 149.932 105.315 150.925 106.307C151.917 107.298 152.631 108.533 152.996 109.888L159.209 133.074C159.57 134.43 159.569 135.857 159.205 137.212C158.842 138.566 158.128 139.802 157.136 140.794L157.13 140.8L139.957 157.82C139.956 157.821 139.955 157.823 139.954 157.824C138.961 158.815 137.726 159.528 136.371 159.891C135.016 160.254 133.59 160.254 132.235 159.892C132.233 159.892 132.232 159.891 132.23 159.891L108.848 153.737L108.84 153.735C107.485 153.372 106.249 152.659 105.256 151.667C104.264 150.676 103.549 149.441 103.185 148.086L100.079 136.493C99.7927 135.426 100.426 134.329 101.493 134.043C102.56 133.757 103.656 134.391 103.942 135.458L107.048 147.047C107.048 147.047 107.048 147.048 107.048 147.048C107.23 147.725 107.587 148.342 108.083 148.837C108.578 149.332 109.195 149.688 109.871 149.87C109.872 149.87 109.873 149.871 109.875 149.871L133.265 156.027C133.943 156.209 134.658 156.209 135.336 156.027C136.014 155.845 136.632 155.488 137.129 154.992L137.135 154.985L154.308 137.965C154.309 137.964 154.31 137.963 154.311 137.963C154.805 137.467 155.161 136.85 155.342 136.174C155.524 135.497 155.525 134.783 155.344 134.106L149.133 110.927C148.951 110.25 148.594 109.633 148.098 109.137C147.602 108.642 146.986 108.286 146.31 108.104C146.308 108.104 146.307 108.103 146.306 108.103L122.916 101.947C122.237 101.765 121.523 101.765 120.845 101.947C120.167 102.129 119.548 102.486 119.052 102.982L119.046 102.989L101.873 120.009C101.872 120.01 101.872 120.01 101.871 120.011C101.376 120.507 101.02 121.124 100.839 121.8C100.657 122.477 100.656 123.19 100.837 123.867C100.837 123.868 100.837 123.868 100.837 123.868L101.613 126.764C101.899 127.831 101.266 128.928 100.199 129.214C99.1318 129.5 98.0351 128.866 97.7492 127.8L96.9723 124.9C96.6105 123.544 96.6116 122.118 96.9754 120.763C97.3392 119.408 98.0529 118.172 99.0449 117.18L99.0512 117.174L116.224 100.154C116.225 100.153 116.226 100.152 116.227 100.151C117.219 99.1594 118.455 98.4465 119.81 98.0834C121.165 97.7203 122.591 97.7199 123.946 98.0821ZM134.852 127.175C133.851 123.441 130.013 121.225 126.279 122.226C122.544 123.226 120.328 127.065 121.329 130.799C122.33 134.533 126.168 136.749 129.902 135.749C133.636 134.748 135.853 130.91 134.852 127.175ZM125.243 118.362C131.112 116.79 137.143 120.272 138.716 126.14C140.288 132.008 136.806 138.04 130.937 139.612C125.069 141.185 119.038 137.702 117.465 131.834C115.893 125.966 119.375 119.934 125.243 118.362Z" fill="#333333"/>
</g>
</g>
<defs>
<linearGradient id="paint0_linear_619_839" x1="36.7497" y1="160.121" x2="171.906" y2="42.7118" gradientUnits="userSpaceOnUse">
<stop stop-color="#00C48C"/>
<stop offset="1" stop-color="#03E8A6"/>
</linearGradient>
<linearGradient id="paint1_linear_619_839" x1="135.45" y1="147.227" x2="182.369" y2="126.671" gradientUnits="userSpaceOnUse">
<stop stop-color="#FF5872"/>
<stop offset="1" stop-color="#FF7890"/>
</linearGradient>
<linearGradient id="paint2_linear_619_839" x1="48" y1="192.667" x2="208" y2="64.6668" gradientUnits="userSpaceOnUse">
<stop stop-color="#FF9960"/>
<stop offset="1" stop-color="#FFAC60"/>
</linearGradient>
<linearGradient id="paint3_linear_619_839" x1="140" y1="144.667" x2="180" y2="112.667" gradientUnits="userSpaceOnUse">
<stop stop-color="#FF5872"/>
<stop offset="1" stop-color="#FF7890"/>
</linearGradient>
<linearGradient id="paint4_linear_619_839" x1="67.2903" y1="211.192" x2="188.71" y2="46.142" gradientUnits="userSpaceOnUse">
<stop stop-color="#FFE352"/>
<stop offset="1" stop-color="#FDFF92"/>
</linearGradient>
<clipPath id="clip0_619_839">
<rect width="160" height="108" fill="white" transform="translate(64.7021 55.8013) rotate(15)"/>
</clipPath>
<clipPath id="clip1_619_839">
<rect width="160" height="108" fill="white" transform="translate(48 74.6667)"/>
</clipPath>
<clipPath id="clip2_619_839">
<rect width="160" height="108" fill="white" transform="translate(36.7497 97.2124) rotate(-15)"/>
</clipPath>
<clipPath id="clip3_619_839">
<rect width="72" height="72" fill="white" transform="translate(83.9997 103.531) rotate(-15)"/>
</clipPath>
</defs>
</svg>
